<svg width="32" height="32" viewBox="0 0 32 32" fill="none" xmlns="http://www.w3.org/2000/svg">
<path fill-rule="evenodd" clip-rule="evenodd" d="M8 6H24C25.1046 6 26 6.89543 26 8V24C26 24.5782 25.7546 25.0992 25.3623 25.4643L11.7148 14L6 20V8C6 6.89543 6.89543 6 8 6ZM4 8C4 5.79086 5.79086 4 8 4H24C26.2091 4 28 5.79086 28 8V24C28 26.2091 26.2091 28 24 28H8C5.79086 28 4 26.2091 4 24V8ZM23 12C23 13.6569 21.6569 15 20 15C18.3431 15 17 13.6569 17 12C17 10.3431 18.3431 9 20 9C21.6569 9 23 10.3431 23 12Z" fill="#A842EB"/>
</svg>
