<svg width="32" height="32" viewBox="0 0 32 32" fill="none" xmlns="http://www.w3.org/2000/svg">
<path fill-rule="evenodd" clip-rule="evenodd" d="M14 5H12.7857C11.7216 5 10.7894 5.1877 9.98908 5.56309C9.18878 5.92976 8.57316 6.45357 8.14223 7.13452C7.72009 7.81548 7.51782 8.60556 7.53541 9.50476L7.60136 12.5036C7.61895 13.1409 7.42108 13.6472 7.00773 14.0226C6.59439 14.398 6.03154 14.5857 5.31918 14.5857H4V17.3095H5.31918C6.02274 17.3095 6.5812 17.4972 6.99454 17.8726C7.40789 18.2393 7.61016 18.7369 7.60136 19.3655L7.53541 22.7571C7.52661 23.604 7.73328 24.346 8.15542 24.9833C8.57756 25.6294 9.17119 26.127 9.93632 26.4762C10.7102 26.8254 11.5941 27 12.5879 27H14V24.381H12.7594C12.0118 24.381 11.4182 24.1758 10.9785 23.7655C10.5475 23.3639 10.3365 22.8139 10.3453 22.1155L10.398 18.9857C10.4156 18.1913 10.1606 17.519 9.6329 16.969C9.11403 16.419 8.41486 16.0655 7.53541 15.9083C8.42365 15.8385 9.12722 15.5417 9.6461 15.0179C10.165 14.4853 10.4156 13.7825 10.398 12.9095L10.3453 10.1202C10.3277 9.36944 10.5563 8.76706 11.0312 8.3131C11.5149 7.8504 12.1569 7.61905 12.9572 7.61905H14V5ZM18 27H19.4121C20.4059 27 21.2854 26.8254 22.0505 26.4762C22.8244 26.127 23.4224 25.6294 23.8446 24.9833C24.2667 24.346 24.4734 23.604 24.4646 22.7571L24.3986 19.3655C24.381 18.7369 24.5789 18.2393 24.9923 17.8726C25.4056 17.4972 25.9685 17.3095 26.6808 17.3095H28V14.5857H26.6808C25.9685 14.5857 25.4056 14.398 24.9923 14.0226C24.5789 13.6472 24.381 13.1409 24.3986 12.5036L24.4646 9.50476C24.4822 8.60556 24.2755 7.81548 23.8446 7.13452C23.4224 6.45357 22.8112 5.92976 22.0109 5.56309C21.2106 5.1877 20.2784 5 19.2143 5H18V7.61905H19.0428C19.8431 7.61905 20.4807 7.8504 20.9556 8.3131C21.4305 8.76706 21.6591 9.36944 21.6415 10.1202L21.5888 12.9095C21.5712 13.7825 21.8218 14.4853 22.3407 15.0179C22.8684 15.5417 23.5719 15.8385 24.4514 15.9083C23.5719 16.0655 22.8728 16.419 22.3539 16.969C21.835 17.519 21.58 18.1913 21.5888 18.9857L21.6415 22.1155C21.6503 22.8226 21.4393 23.377 21.0083 23.7786C20.5774 24.1802 19.9882 24.381 19.2406 24.381H18V27Z" fill="#1A85F6"/>
</svg>
