<svg width="32" height="32" viewBox="0 0 32 32" fill="none" xmlns="http://www.w3.org/2000/svg">
<path d="M16 1.29001L29 8.64359V23.3557L16 30.7093L3 23.3557V8.64359L16 1.29001Z" fill="white"/>
<path d="M26.6796 22.8455L16.4317 28.6489V24.1357L22.8188 20.6183L26.6796 22.8455ZM27.3811 22.2127V10.0859L23.6332 12.2493V20.0493L27.3811 22.2127ZM5.2811 22.8455L15.529 28.644V24.1308L9.14185 20.6183L5.2811 22.8455ZM4.57959 22.2127V10.0859L8.32751 12.2493V20.0493L4.57959 22.2127ZM5.01619 9.30098L15.529 3.35532V7.72135L8.79355 11.4251L8.73959 11.4546L5.01619 9.30098ZM26.9396 9.30098L16.4317 3.35532V7.72135L23.1622 11.43L23.2162 11.4595L26.9396 9.30098Z" fill="#8ED6FB"/>
<path d="M15.529 23.1055L9.23016 19.6372V12.7741L15.529 16.4092V23.1055ZM16.4317 23.1055L22.7305 19.6421V12.7741L16.4317 16.4092V23.1055ZM9.65205 11.9794L15.9804 8.50131L22.3037 11.9794L15.9804 15.6292L9.65205 11.9794Z" fill="#1C78C0"/>
</svg>
