<svg width="32" height="32" viewBox="0 0 32 32" fill="none" xmlns="http://www.w3.org/2000/svg">
<path d="M16 29.5C23.4558 29.5 29.5 23.4558 29.5 16C29.5 8.54416 23.4558 2.5 16 2.5C8.54416 2.5 2.5 8.54416 2.5 16C2.5 23.4558 8.54416 29.5 16 29.5Z" fill="#484848"/>
<path d="M21.3916 15.6352L19.8881 14.1317L20.6613 10.9529L17.4395 11.6832L15.979 10.2227L23.1957 8.41849L21.3916 15.6352Z" fill="#BAFFA9"/>
<path d="M18.8997 25.6012L6.0127 12.7141L13.2294 10.91L14.69 12.3705L9.53515 13.6592L12.4562 16.5802L15.8498 15.7641L14.9907 19.1147L17.9117 22.0358L19.2004 16.8809L20.7039 18.3844L18.8997 25.6012Z" fill="#7ACB16"/>
</svg>
