<svg width="32" height="32" viewBox="0 0 32 32" fill="none" xmlns="http://www.w3.org/2000/svg">
<path d="M27.6947 22.752C27.883 22.4258 28 22.0582 28 21.7282V10.2718C28 9.94176 27.8831 9.5743 27.6947 9.24811L16 16L27.6947 22.752Z" fill="#00599C"/>
<path d="M17.0391 29.2563L26.9606 23.5282C27.2464 23.3631 27.5062 23.0782 27.6945 22.7519L15.9998 16L4.30518 22.752C4.49349 23.0782 4.75333 23.3632 5.03906 23.5282L14.9606 29.2563C15.5322 29.5864 16.4675 29.5864 17.0391 29.2563Z" fill="#004482"/>
<path d="M27.6947 9.24801C27.5063 8.92174 27.2465 8.6368 26.9608 8.47178L17.0392 2.74362C16.4677 2.41358 15.5323 2.41358 14.9608 2.74362L5.03922 8.47178C4.46761 8.80174 4 9.61178 4 10.2718V21.7282C4 22.0582 4.11694 22.4257 4.30533 22.7519L16 16L27.6947 9.24801Z" fill="#659AD2"/>
<path d="M16 24C11.5888 24 8 20.4112 8 16C8 11.5888 11.5888 8 16 8C18.8464 8 21.5011 9.53176 22.9279 11.9975L19.4657 14.0009C18.7516 12.7667 17.4235 12 16 12C13.7944 12 12 13.7944 12 16C12 18.2056 13.7944 20 16 20C17.4237 20 18.7518 19.2333 19.466 17.9988L22.9282 20.0022C21.5013 22.4682 18.8466 24 16 24Z" fill="white"/>
<path d="M24.0002 15.5555H23.1112V14.6667H22.2224V15.5555H21.3335V16.4444H22.2224V17.3334H23.1112V16.4444H24.0002V15.5555Z" fill="white"/>
<path d="M27.3332 15.5555H26.4442V14.6667H25.5554V15.5555H24.6665V16.4444H25.5554V17.3334H26.4442V16.4444H27.3332V15.5555Z" fill="white"/>
</svg>
