<svg width="32" height="32" viewBox="0 0 32 32" fill="none" xmlns="http://www.w3.org/2000/svg">
<path d="M15.841 2.50022C14.7398 2.50534 13.6883 2.59925 12.763 2.76298C10.0372 3.24454 9.54228 4.25248 9.54228 6.11129V8.56621H15.9836V9.38452H9.54228H7.12489C5.25285 9.38452 3.61364 10.5097 3.10092 12.6502C2.5095 15.1038 2.48326 16.6348 3.10092 19.1967C3.55879 21.1037 4.65226 22.4624 6.5243 22.4624H8.73899V19.5195C8.73899 17.3934 10.5785 15.5181 12.763 15.5181H19.1968C20.9878 15.5181 22.4175 14.0435 22.4175 12.2448V6.11129C22.4175 4.36564 20.9449 3.05432 19.1968 2.76298C18.0903 2.57878 16.9422 2.4951 15.841 2.50022ZM12.3576 4.47467C13.0229 4.47467 13.5663 5.02689 13.5663 5.70589C13.5663 6.38247 13.0229 6.92959 12.3576 6.92959C11.6898 6.92959 11.1489 6.38247 11.1489 5.70589C11.1489 5.02689 11.6898 4.47467 12.3576 4.47467Z" fill="url(#paint0_linear_14168_77574)"/>
<path d="M23.2205 9.38452V12.2448C23.2205 14.4624 21.3404 16.3289 19.1965 16.3289H12.7627C11.0003 16.3289 9.54199 17.8372 9.54199 19.6021V25.7357C9.54199 27.4813 11.06 28.5081 12.7627 29.0089C14.8017 29.6084 16.7569 29.7168 19.1965 29.0089C20.8182 28.5394 22.4172 27.5945 22.4172 25.7357V23.2807H15.9834V22.4624H22.4172H25.6379C27.5099 22.4624 28.2075 21.1566 28.8586 19.1967C29.5311 17.179 29.5025 15.2386 28.8586 12.6502C28.3959 10.7866 27.5123 9.38452 25.6379 9.38452H23.2205ZM19.6019 24.9174C20.2697 24.9174 20.8106 25.4645 20.8106 26.1411C20.8106 26.8201 20.2697 27.3723 19.6019 27.3723C18.9366 27.3723 18.3932 26.8201 18.3932 26.1411C18.3932 25.4645 18.9366 24.9174 19.6019 24.9174Z" fill="url(#paint1_linear_14168_77574)"/>
<defs>
<linearGradient id="paint0_linear_14168_77574" x1="2.64746" y1="2.5" x2="17.5005" y2="15.1569" gradientUnits="userSpaceOnUse">
<stop stop-color="#65B2ED"/>
<stop offset="1" stop-color="#3472A6"/>
</linearGradient>
<linearGradient id="paint1_linear_14168_77574" x1="19.4471" y1="25.9347" x2="14.1184" y2="18.4675" gradientUnits="userSpaceOnUse">
<stop stop-color="#FFD43B"/>
<stop offset="1" stop-color="#FFE873"/>
</linearGradient>
</defs>
</svg>
