<svg width="32" height="32" viewBox="0 0 32 32" fill="none" xmlns="http://www.w3.org/2000/svg">
<path fill-rule="evenodd" clip-rule="evenodd" d="M5 5C3.34315 5 2 6.34315 2 8V10V12V24C2 25.6569 3.34315 27 5 27H27C28.6569 27 30 25.6569 30 24V12V10V8C30 6.34315 28.6569 5 27 5H5ZM28 10V8C28 7.44772 27.5523 7 27 7H5C4.44772 7 4 7.44772 4 8V10H28ZM4 12V24C4 24.5523 4.44772 25 5 25H27C27.5523 25 28 24.5523 28 24V12H4Z" fill="#181818"/>
<path d="M8 14.5L11.5 18L8 21.5" stroke="#181818" stroke-width="1.7"/>
<path d="M13 22H20" stroke="#181818" stroke-width="2"/>
</svg>
