<svg width="32" height="32" viewBox="0 0 32 32" fill="none" xmlns="http://www.w3.org/2000/svg">
<path d="M31 16.003C31 14.0157 28.5112 12.1323 24.6955 10.9643C25.576 7.07519 25.1847 3.98102 23.4603 2.9904C23.0628 2.75803 22.598 2.64796 22.0905 2.64796V4.0116C22.3718 4.0116 22.598 4.06663 22.7876 4.17059C23.6192 4.64755 23.98 6.4637 23.6987 8.79961C23.6315 9.37442 23.5214 9.9798 23.3869 10.5974C22.1883 10.3039 20.8797 10.0776 19.5039 9.93088C18.6784 8.79961 17.8223 7.7723 16.96 6.8734C18.9535 5.02057 20.8247 4.00548 22.0966 4.00548V2.64185C20.415 2.64185 18.2136 3.84038 15.9878 5.91947C13.7619 3.85261 11.5605 2.66631 9.87892 2.66631V4.02994C11.1447 4.02994 13.022 5.03891 15.0155 6.87951C14.1594 7.77841 13.3033 8.79961 12.49 9.93088C11.108 10.0776 9.79943 10.3039 8.6009 10.6035C8.46025 9.99203 8.3563 9.39888 8.28292 8.83019C7.99552 6.49427 8.35018 4.67813 9.1757 4.19505C9.35915 4.08498 9.59764 4.03606 9.87892 4.03606V2.67242C9.36527 2.67242 8.90053 2.78249 8.49694 3.01486C6.77864 4.00548 6.3934 7.09354 7.28007 10.9704C3.47656 12.1445 1 14.0218 1 16.003C1 17.9904 3.48879 19.8738 7.30452 21.0418C6.42397 24.9309 6.81533 28.025 8.53975 29.0157C8.93722 29.248 9.40196 29.3581 9.91561 29.3581C11.5972 29.3581 13.7986 28.1596 16.0245 26.0805C18.2503 28.1473 20.4517 29.3337 22.1333 29.3337C22.647 29.3337 23.1117 29.2236 23.5153 28.9912C25.2336 28.0006 25.6188 24.9125 24.7322 21.0356C28.5234 19.8677 31 17.9843 31 16.003ZM23.0383 11.9244C22.8121 12.7132 22.5308 13.5265 22.2128 14.3398C21.9621 13.8506 21.6991 13.3614 21.4117 12.8722C21.1305 12.383 20.8308 11.906 20.5312 11.4413C21.3995 11.5697 22.2373 11.7287 23.0383 11.9244ZM20.2377 18.4368C19.7607 19.2623 19.2715 20.045 18.764 20.7727C17.8528 20.8522 16.9295 20.895 16 20.895C15.0766 20.895 14.1533 20.8522 13.2483 20.7788C12.7407 20.0511 12.2454 19.2745 11.7684 18.4551C11.3037 17.6541 10.8818 16.8408 10.4965 16.0214C10.8757 15.202 11.3037 14.3826 11.7623 13.5815C12.2393 12.756 12.7285 11.9733 13.236 11.2456C14.1472 11.1661 15.0705 11.1233 16 11.1233C16.9234 11.1233 17.8467 11.1661 18.7517 11.2395C19.2593 11.9672 19.7546 12.7438 20.2316 13.5632C20.6963 14.3642 21.1182 15.1775 21.5035 15.9969C21.1182 16.8163 20.6963 17.6357 20.2377 18.4368ZM22.2128 17.6418C22.543 18.4612 22.8243 19.2807 23.0567 20.0756C22.2556 20.2713 21.4117 20.4364 20.5373 20.5648C20.8369 20.0939 21.1366 19.6109 21.4179 19.1156C21.6991 18.6264 21.9621 18.131 22.2128 17.6418ZM16.0122 24.1665C15.4435 23.5795 14.8748 22.9252 14.3123 22.2097C14.8626 22.2342 15.4252 22.2525 15.9939 22.2525C16.5687 22.2525 17.1374 22.2403 17.6938 22.2097C17.1435 22.9252 16.5748 23.5795 16.0122 24.1665ZM11.4627 20.5648C10.5944 20.4364 9.75662 20.2774 8.95556 20.0817C9.18182 19.2929 9.46311 18.4796 9.78108 17.6663C10.0318 18.1555 10.2947 18.6447 10.5821 19.1339C10.8695 19.6231 11.1631 20.1001 11.4627 20.5648ZM15.9817 7.83956C16.5503 8.4266 17.119 9.0809 17.6816 9.79635C17.1313 9.77189 16.5687 9.75355 16 9.75355C15.4252 9.75355 14.8565 9.76578 14.3 9.79635C14.8504 9.0809 15.4191 8.4266 15.9817 7.83956ZM11.4566 11.4413C11.157 11.9121 10.8573 12.3952 10.576 12.8905C10.2947 13.3797 10.0318 13.8689 9.78108 14.3581C9.45088 13.5387 9.16959 12.7193 8.93722 11.9244C9.73828 11.7348 10.5821 11.5697 11.4566 11.4413ZM5.92255 19.0972C3.75785 18.1738 2.35752 16.9631 2.35752 16.003C2.35752 15.043 3.75785 13.8261 5.92255 12.9089C6.44843 12.6826 7.02324 12.4808 7.61639 12.2913C7.96494 13.4898 8.42356 14.7372 8.99225 16.0153C8.42968 17.2872 7.97717 18.5285 7.63473 19.7209C7.02935 19.5314 6.45455 19.3235 5.92255 19.0972ZM9.21239 27.8355C8.38076 27.3585 8.01998 25.5424 8.30126 23.2065C8.36853 22.6317 8.4786 22.0263 8.61313 21.4087C9.81166 21.7022 11.1203 21.9284 12.4961 22.0752C13.3216 23.2065 14.1777 24.2338 15.04 25.1327C13.0465 26.9855 11.1753 28.0006 9.90338 28.0006C9.62821 27.9945 9.39584 27.9394 9.21239 27.8355ZM23.7171 23.1759C24.0045 25.5118 23.6498 27.3279 22.8243 27.811C22.6408 27.9211 22.4024 27.97 22.1211 27.97C20.8553 27.97 18.978 26.961 16.9845 25.1204C17.8406 24.2215 18.6967 23.2003 19.51 22.0691C20.892 21.9223 22.2006 21.6961 23.3991 21.3964C23.5397 22.014 23.6498 22.6072 23.7171 23.1759ZM26.0713 19.0972C25.5455 19.3235 24.9706 19.5253 24.3775 19.7148C24.0289 18.5163 23.5703 17.2688 23.0016 15.9908C23.5642 14.7189 24.0167 13.4776 24.3592 12.2851C24.9645 12.4747 25.5393 12.6826 26.0775 12.9089C28.2422 13.8322 29.6425 15.043 29.6425 16.003C29.6364 16.9631 28.236 18.18 26.0713 19.0972Z" fill="#61DAFB"/>
<path d="M15.9939 18.7976C17.5373 18.7976 18.7884 17.5464 18.7884 16.003C18.7884 14.4597 17.5373 13.2085 15.9939 13.2085C14.4505 13.2085 13.1993 14.4597 13.1993 16.003C13.1993 17.5464 14.4505 18.7976 15.9939 18.7976Z" fill="#61DAFB"/>
</svg>
