<svg width="32" height="32" viewBox="0 0 32 32" fill="none" xmlns="http://www.w3.org/2000/svg">
<path fill-rule="evenodd" clip-rule="evenodd" d="M13.8636 9H16.1558L15.508 12.1708H17.5677C18.6972 12.1931 19.5386 12.4255 20.0924 12.8681C20.6571 13.3107 20.8232 14.152 20.5907 15.3915L19.5048 20.7857H17.1794L18.2155 15.6405C18.3261 15.087 18.2929 14.6942 18.1158 14.4618C17.9387 14.2294 17.5567 14.1132 16.9697 14.1132L15.126 14.0966L13.7907 20.7857H11.4987L13.8636 9ZM3.36049 12.1708H7.81197C9.11852 12.1818 10.0653 12.5583 10.6523 13.2997C11.2393 14.0411 11.433 15.0538 11.2336 16.3377C11.1562 16.9244 10.9845 17.4998 10.7187 18.0642C10.4639 18.6287 10.1098 19.1377 9.65568 19.5916C9.10191 20.167 8.50959 20.5322 7.87841 20.6872C7.24723 20.8423 6.5938 20.9197 5.91843 20.9197H3.92523L3.30883 24H1L3.36049 12.1708ZM20.6906 24H22.9994L23.6158 20.9197H25.609C26.2844 20.9197 26.9378 20.8423 27.569 20.6872C28.2001 20.5322 28.7925 20.167 29.3462 19.5916C29.8003 19.1377 30.1545 18.6287 30.4093 18.0642C30.675 17.4998 30.8468 16.9244 30.9242 16.3377C31.1235 15.0538 30.9298 14.0411 30.3428 13.2997C29.7558 12.5583 28.8091 12.1818 27.5025 12.1708H23.051L20.6906 24ZM4.30726 19.0437L5.30054 14.0799H5.63606C5.75797 14.0799 5.88521 14.0743 6.01809 14.0633C6.90406 14.0524 7.64023 14.1354 8.22722 14.3124C8.82518 14.4893 9.0245 15.159 8.82518 16.3211C8.58167 17.7047 8.10531 18.5125 7.39672 18.7449C6.68813 18.9663 5.80216 19.0713 4.73912 19.0603H4.50658C4.44014 19.0603 4.3737 19.0547 4.30726 19.0437ZM24.9911 14.0799L23.9978 19.0437C24.0643 19.0547 24.1307 19.0603 24.1971 19.0603H24.4297C25.4927 19.0713 26.3787 18.9663 27.0873 18.7449C27.7959 18.5125 28.2722 17.7047 28.5157 16.3211C28.7151 15.159 28.5157 14.4893 27.9178 14.3124C27.3308 14.1354 26.5946 14.0524 25.7086 14.0633C25.5758 14.0743 25.4485 14.0799 25.3266 14.0799H24.9911Z" fill="#1A85F6"/>
</svg>
