<svg width="32" height="32" viewBox="0 0 32 32" fill="none" xmlns="http://www.w3.org/2000/svg">
<path d="M15.021 6.76752C16.2339 6.79357 17.1912 7.13553 17.9005 7.73206C18.3829 8.13774 18.7282 8.64224 18.9622 9.19862C20.8305 7.69552 22.616 6.75792 25.3562 6.75792C26.3669 6.75792 27.2078 6.97091 27.8836 7.36855C28.562 7.76767 29.0434 8.33499 29.3594 8.9922C29.9821 10.287 29.9618 11.9208 29.6236 13.3982L29.6231 13.4002L27.2181 24.2942C26.9765 25.3885 25.8684 26.0493 24.7772 25.8308C23.6792 25.6109 22.9328 24.567 23.1762 23.4634L25.4437 13.1619L25.4449 13.1568C25.774 11.7271 25.2068 10.5915 23.6486 10.5857C22.2232 10.5805 20.3712 11.4308 19.2728 12.9051L16.7316 24.3022C16.4898 25.3962 15.3817 26.0572 14.2907 25.8387C13.1798 25.6163 12.4128 24.5768 12.6587 23.463L14.935 13.1543L14.9364 13.1479C15.2241 11.9164 14.8606 10.7826 13.4908 10.6112C12.0468 10.4585 9.97708 11.3129 8.78461 12.9153L6.23208 24.3145C5.98799 25.4082 4.87845 26.0667 3.78773 25.8459C2.6901 25.6237 1.94601 24.578 2.19224 23.4747L5.50571 8.62836C5.74981 7.53466 6.85935 6.87622 7.95007 7.09702C8.77826 7.26467 9.27896 7.81613 9.47359 8.46549C11.0733 7.38495 12.9252 6.65485 15.021 6.76752Z" fill="#1A85F6"/>
</svg>
