<svg width="32" height="32" viewBox="0 0 32 32" fill="none" xmlns="http://www.w3.org/2000/svg">
<g clip-path="url(#clip0_14114_81626)">
<path d="M25.8888 23.9409L16.0001 20.1078L6.11183 23.9399L10.0162 17.8309L0 14.0899L12.3017 14.1473L15.9997 8.00315L19.698 14.1476L32 14.0914L21.9838 17.8314L25.8888 23.9409Z" fill="black"/>
<path d="M24.5514 22.8482L16.0089 19.5371L7.46678 22.8476L10.8397 17.5702L2.18701 14.3386L12.814 14.3881L16.0086 9.08036L19.2034 14.3884L29.8305 14.3397L21.178 17.5706L24.5514 22.8482Z" fill="#619CBC"/>
<path d="M9.45129 11.1427C10.3046 11.1427 9.80726 13.2749 9.50382 13.9178C9.24396 14.4683 8.65897 15.2621 7.96567 15.2621C7.13384 15.2621 7.15858 14.3305 7.4897 13.6291C7.66895 13.2494 7.94445 12.8237 8.324 12.5108C8.22685 12.8375 8.55525 13.0606 8.42243 13.342C8.33172 13.5342 8.14395 13.7442 8.04639 13.9509C7.88859 14.2851 7.94888 14.8782 8.3301 14.8782C8.67134 14.8782 8.97457 14.4555 9.09888 14.1922C9.35355 13.6526 9.99032 11.3507 9.27854 11.3507C8.45879 11.3507 7.04623 13.3483 6.75043 13.9749C6.22245 15.0933 6.60517 16.471 7.80817 16.471C8.62101 16.471 9.28959 15.6895 9.61253 15.0054C9.80491 14.5979 9.90966 14.1924 9.95091 13.8101L10.1087 13.7812C10.1436 14.8336 11.2569 16.5762 10.783 17.5802C10.1764 18.8651 8.36272 18.8536 7.32713 19.3097C7.10946 18.8005 6.81457 18.3271 6.39935 17.9658C7.3231 17.655 9.59309 17.1333 10.0867 16.0876C10.2941 15.6483 10.1529 14.9199 9.91322 14.673C9.87244 14.8283 9.81601 14.9866 9.74111 15.1452C9.31847 16.0405 8.41357 16.7348 7.48067 16.7348C6.18183 16.7348 5.6312 15.8015 6.24246 14.5064C6.60932 13.7293 8.48267 11.1427 9.45129 11.1427Z" fill="black"/>
<path d="M9.45129 11.1427C10.3046 11.1427 9.80726 13.2749 9.50382 13.9178C9.24396 14.4683 8.65897 15.2621 7.96567 15.2621C7.13384 15.2621 7.15858 14.3305 7.4897 13.6291C7.66895 13.2494 7.94445 12.8237 8.324 12.5108C8.22685 12.8375 8.55525 13.0606 8.42243 13.342C8.33172 13.5342 8.14395 13.7442 8.04639 13.9509C7.88859 14.2851 7.94888 14.8782 8.3301 14.8782C8.67134 14.8782 8.97457 14.4555 9.09888 14.1922C9.35355 13.6526 9.99032 11.3507 9.27854 11.3507C8.45879 11.3507 7.04623 13.3483 6.75043 13.9749C6.22245 15.0933 6.60517 16.471 7.80817 16.471C8.62101 16.471 9.28959 15.6895 9.61253 15.0054C9.80491 14.5979 9.90966 14.1924 9.95091 13.8101L10.1087 13.7812C10.1436 14.8336 11.2569 16.5762 10.783 17.5802C10.1764 18.8651 8.36272 18.8536 7.32713 19.3097C7.10946 18.8005 6.81457 18.3271 6.39935 17.9658C7.3231 17.655 9.59309 17.1333 10.0867 16.0876C10.2941 15.6483 10.1529 14.9199 9.91322 14.673C9.87244 14.8283 9.81601 14.9866 9.74111 15.1452C9.31847 16.0405 8.41357 16.7348 7.48067 16.7348C6.18183 16.7348 5.6312 15.8015 6.24246 14.5064C6.60932 13.7293 8.48267 11.1427 9.45129 11.1427Z" stroke="black" stroke-width="1.2" stroke-miterlimit="3.86369" stroke-linejoin="round"/>
<path d="M11.6703 14.2287C11.7219 14.3555 11.8711 15.0734 11.9844 15.0734C12.229 15.0734 12.6712 14.4077 12.7898 14.2349C13.0074 14.3774 12.8867 14.6765 13.2899 14.6765C13.4724 14.6765 13.5642 14.2833 13.7542 14.2769C13.7609 14.4358 13.7711 14.5796 13.6844 14.7632C13.5508 15.0463 13.2127 15.4299 12.8804 15.4299C12.6424 15.4299 12.3108 15.1433 12.2457 15.1433C12.175 15.1433 12.0451 15.1764 12.0037 15.2641C11.8307 15.6307 12.2933 16.8548 12.7573 16.8548C13.0052 16.8548 13.3011 16.6729 13.5604 16.5607C13.4929 17.0018 13.4835 17.3736 13.5728 17.7531C13.3365 17.9029 13.0597 17.966 12.8376 17.966C11.6974 17.966 12.3262 15.3145 11.2749 14.7496L11.6703 14.2287Z" fill="black"/>
<path d="M11.6703 14.2287C11.7219 14.3555 11.8711 15.0734 11.9844 15.0734C12.229 15.0734 12.6712 14.4077 12.7898 14.2349C13.0074 14.3774 12.8867 14.6765 13.2899 14.6765C13.4724 14.6765 13.5642 14.2833 13.7542 14.2769C13.7609 14.4358 13.7711 14.5796 13.6844 14.7632C13.5508 15.0463 13.2127 15.4299 12.8804 15.4299C12.6424 15.4299 12.3108 15.1433 12.2457 15.1433C12.175 15.1433 12.0451 15.1764 12.0037 15.2641C11.8307 15.6307 12.2933 16.8548 12.7573 16.8548C13.0052 16.8548 13.3011 16.6729 13.5604 16.5607C13.4929 17.0018 13.4835 17.3736 13.5728 17.7531C13.3365 17.9029 13.0597 17.966 12.8376 17.966C11.6974 17.966 12.3262 15.3145 11.2749 14.7496L11.6703 14.2287Z" stroke="black" stroke-width="1.2" stroke-miterlimit="3.86369" stroke-linejoin="round"/>
<path fill-rule="evenodd" clip-rule="evenodd" d="M16.052 14.0162C16.9137 14.0162 17.2539 15.5662 16.8673 16.3852C16.5673 17.0206 16.0355 17.4812 15.3543 17.4812C14.1511 17.4812 14.3019 15.8411 14.7712 14.8467C14.9007 14.5728 15.3429 13.9757 15.6889 13.9757C15.816 13.9757 15.9213 14.0162 16.052 14.0162ZM16.0254 14.1609C15.8897 14.1609 15.7705 14.2279 15.7076 14.3614C15.5755 14.6411 16.234 14.9241 16.1395 15.1243C16.08 15.2503 15.8535 15.3682 15.7392 15.3682C15.1683 15.3682 15.1731 14.6253 15.5135 14.1411C15.3018 14.276 15.1631 14.4819 15.073 14.673C14.7384 15.3816 15.0039 16.3565 15.7675 16.3565C16.1894 16.3565 16.6754 15.9774 16.8642 15.5773C17.0966 15.0853 16.5024 14.1609 16.0254 14.1609Z" fill="black"/>
<path d="M16.052 14.0162C16.9137 14.0162 17.2539 15.5662 16.8673 16.3852C16.5673 17.0206 16.0355 17.4812 15.3543 17.4812C14.1511 17.4812 14.3019 15.8411 14.7712 14.8467C14.9007 14.5728 15.3429 13.9757 15.6889 13.9757C15.816 13.9757 15.9213 14.0162 16.052 14.0162Z" stroke="black" stroke-width="1.2" stroke-miterlimit="3.86369" stroke-linejoin="round"/>
<path d="M16.0257 14.1609C15.8901 14.1609 15.7708 14.2279 15.7079 14.3614C15.5758 14.6411 16.2344 14.9241 16.1399 15.1243C16.0804 15.2503 15.8539 15.3682 15.7396 15.3682C15.1686 15.3682 15.1735 14.6253 15.5138 14.1411C15.3022 14.276 15.1635 14.4819 15.0734 14.673C14.7388 15.3816 15.0043 16.3565 15.7679 16.3565C16.1898 16.3565 16.6758 15.9775 16.8646 15.5773C17.097 15.0853 16.5027 14.1609 16.0257 14.1609Z" stroke="black" stroke-width="1.2" stroke-miterlimit="3.86369" stroke-linejoin="round"/>
<path fill-rule="evenodd" clip-rule="evenodd" d="M19.9683 16.568C19.7431 17.045 19.3235 17.3068 18.8511 17.3068C17.3518 17.3068 17.0543 15.9396 17.704 14.5631C17.8575 14.2382 18.1093 13.8788 18.4938 13.8788C19.6983 13.8788 20.5375 15.3622 19.9683 16.568ZM18.772 14.0515C18.6614 14.0515 18.5644 14.0915 18.5114 14.2038C18.3947 14.451 19.0293 14.6714 19.0302 14.9268C18.9639 15.0053 18.7784 15.0931 18.6975 15.0931C18.2405 15.0931 17.8956 14.4736 18.2857 14.0132C18.1274 14.1137 18.0335 14.2642 17.9666 14.4057C17.5711 15.2436 18.1349 16.0908 18.9565 16.0908C19.2985 16.0908 19.7393 15.9004 19.9169 15.5241C20.1683 14.9915 19.2729 14.0515 18.772 14.0515Z" fill="black"/>
<path d="M19.9683 16.568C19.7431 17.045 19.3235 17.3068 18.8511 17.3068C17.3518 17.3068 17.0543 15.9396 17.704 14.5631C17.8575 14.2382 18.1093 13.8788 18.4938 13.8788C19.6983 13.8788 20.5375 15.3622 19.9683 16.568Z" stroke="black" stroke-width="1.2" stroke-miterlimit="3.86369" stroke-linejoin="round"/>
<path d="M18.7721 14.0515C18.6615 14.0515 18.5644 14.0915 18.5114 14.2038C18.3948 14.451 19.0294 14.6714 19.0302 14.9268C18.964 15.0053 18.7784 15.0931 18.6976 15.0931C18.2406 15.0931 17.8957 14.4736 18.2858 14.0132C18.1275 14.1137 18.0335 14.2642 17.9667 14.4057C17.5711 15.2436 18.135 16.0908 18.9566 16.0908C19.2986 16.0908 19.7393 15.9004 19.9169 15.5241C20.1683 14.9915 19.2729 14.0515 18.7721 14.0515Z" stroke="black" stroke-width="1.2" stroke-miterlimit="3.86369" stroke-linejoin="round"/>
<path d="M21.519 14.0433C22.8112 14.0433 23.4677 16.4143 22.8902 17.6373C22.7799 17.8711 22.5742 18.1049 22.3029 18.1049C20.8267 18.1049 21.2036 15.1706 20.3726 14.3369C20.4485 14.2562 20.5213 14.1717 20.588 14.0867C21.1495 14.7457 20.8705 16.48 22.0698 16.48C22.3461 16.48 22.5551 16.238 22.6665 16.0019C22.9643 15.371 22.4132 14.2753 21.81 14.2753C21.804 14.2753 21.7174 14.2789 21.7193 14.3139C21.7416 14.7166 22.0583 14.4655 21.7393 15.1508C21.4134 15.0859 21.0682 14.5627 21.2464 14.1852C21.2989 14.0742 21.4301 14.0433 21.519 14.0433Z" fill="black"/>
<path d="M21.519 14.0433C22.8112 14.0433 23.4677 16.4143 22.8902 17.6373C22.7799 17.8711 22.5742 18.1049 22.3029 18.1049C20.8267 18.1049 21.2036 15.1706 20.3726 14.3369C20.4485 14.2562 20.5213 14.1717 20.588 14.0867C21.1495 14.7457 20.8705 16.48 22.0698 16.48C22.3461 16.48 22.5551 16.238 22.6665 16.0019C22.9643 15.371 22.4132 14.2753 21.81 14.2753C21.804 14.2753 21.7174 14.2789 21.7193 14.3139C21.7416 14.7166 22.0583 14.4655 21.7393 15.1508C21.4134 15.0859 21.0682 14.5627 21.2464 14.1852C21.2989 14.0742 21.4301 14.0433 21.519 14.0433Z" stroke="black" stroke-width="1.2" stroke-miterlimit="3.86369" stroke-linejoin="round"/>
<path fill-rule="evenodd" clip-rule="evenodd" d="M24.7316 14.0169C24.8533 14.0284 25.0362 14.0175 25.1406 14.0493C25.1602 14.0552 25.1453 14.0797 25.1487 14.099C25.1804 14.2782 25.2303 14.4482 25.2734 14.6213C25.4418 15.2959 25.5431 15.9884 25.7363 16.657C25.9465 17.385 26.1656 18.2054 25.9111 19.1188C25.8862 19.2082 25.8529 19.299 25.8099 19.39C25.5214 20.0013 23.037 20.7056 22.3885 20.7056C22.3097 20.7056 22.2246 20.6832 22.187 20.632C22.4606 20.4579 22.6321 20.2795 22.7544 20.0204C22.901 19.7099 22.8988 19.419 22.8795 19.1511C22.9313 19.1813 24.84 19.1342 24.9093 19.1342C25.1898 19.1342 25.4307 18.8629 25.5432 18.6244C25.75 18.1864 25.7147 17.7395 25.6789 17.3665C25.6609 17.1798 25.6357 16.9955 25.601 16.8166L25.5482 16.5575L25.5416 16.5291L25.5351 16.5008C25.5665 16.5008 25.5384 16.5558 25.5396 16.5835C25.5588 17.0351 25.5507 17.6655 25.3082 18.1794C25.1954 18.4181 25.011 18.6643 24.728 18.6643C23.4874 18.6643 24.1114 15.1459 23.1172 14.3095C23.1722 14.2185 23.2214 14.125 23.2627 14.0332C23.851 14.7437 23.8818 16.7025 24.7477 16.7025C24.9578 16.7025 25.1751 16.5055 25.2645 16.3162C25.6491 15.5013 25.0101 14.552 24.7316 14.0169Z" fill="black"/>
<path d="M24.7316 14.0169C24.8533 14.0284 25.0362 14.0175 25.1406 14.0493C25.1602 14.0552 25.1453 14.0797 25.1487 14.099C25.1804 14.2782 25.2303 14.4482 25.2734 14.6213C25.4418 15.2959 25.5431 15.9884 25.7363 16.657C25.9465 17.385 26.1656 18.2054 25.9111 19.1188C25.8862 19.2082 25.8529 19.299 25.8099 19.39C25.5214 20.0013 23.037 20.7056 22.3885 20.7056C22.3097 20.7056 22.2246 20.6832 22.187 20.632C22.4606 20.4579 22.6321 20.2795 22.7544 20.0204C22.901 19.7099 22.8988 19.419 22.8795 19.1511C22.9313 19.1813 24.84 19.1342 24.9093 19.1342C25.1898 19.1342 25.4307 18.8629 25.5432 18.6244C25.75 18.1864 25.7147 17.7395 25.6789 17.3665C25.6609 17.1798 25.6357 16.9955 25.601 16.8166L25.5482 16.5575L25.5416 16.5291L25.5351 16.5008C25.5665 16.5008 25.5384 16.5558 25.5396 16.5835C25.5588 17.0351 25.5507 17.6655 25.3082 18.1794C25.1954 18.4181 25.011 18.6643 24.728 18.6643C23.4874 18.6643 24.1114 15.1459 23.1172 14.3095C23.1722 14.2185 23.2214 14.125 23.2627 14.0332C23.851 14.7437 23.8818 16.7025 24.7477 16.7025C24.9578 16.7025 25.1751 16.5055 25.2645 16.3162C25.6491 15.5013 25.0101 14.552 24.7316 14.0169Z" stroke="black" stroke-width="1.2" stroke-miterlimit="3.86369" stroke-linejoin="round"/>
<path d="M9.45129 11.1427C10.3046 11.1427 9.80726 13.2749 9.50382 13.9178C9.24396 14.4683 8.65897 15.2621 7.96567 15.2621C7.13384 15.2621 7.15858 14.3305 7.4897 13.6291C7.66895 13.2494 7.94445 12.8237 8.324 12.5108C8.22685 12.8375 8.55525 13.0606 8.42243 13.342C8.33172 13.5342 8.14395 13.7442 8.04639 13.9509C7.88859 14.2851 7.94888 14.8782 8.3301 14.8782C8.67134 14.8782 8.97457 14.4555 9.09888 14.1922C9.35355 13.6526 9.99032 11.3507 9.27854 11.3507C8.45879 11.3507 7.04623 13.3483 6.75043 13.9749C6.22245 15.0933 6.60517 16.471 7.80817 16.471C8.62101 16.471 9.28959 15.6895 9.61253 15.0054C9.80491 14.5979 9.90966 14.1924 9.95091 13.8101L10.1087 13.7812C10.1436 14.8336 11.2569 16.5762 10.783 17.5802C10.1764 18.8651 8.36272 18.8536 7.32713 19.3097C7.10946 18.8005 6.81457 18.3271 6.39935 17.9658C7.3231 17.655 9.59309 17.1333 10.0867 16.0876C10.2941 15.6483 10.1529 14.9199 9.91322 14.673C9.87244 14.8283 9.81601 14.9866 9.74111 15.1452C9.31847 16.0405 8.41357 16.7348 7.48067 16.7348C6.18183 16.7348 5.6312 15.8015 6.24246 14.5064C6.60932 13.7293 8.48267 11.1427 9.45129 11.1427Z" fill="black"/>
<path d="M9.45129 11.1427C10.3046 11.1427 9.80726 13.2749 9.50382 13.9178C9.24396 14.4683 8.65897 15.2621 7.96567 15.2621C7.13384 15.2621 7.15858 14.3305 7.4897 13.6291C7.66895 13.2494 7.94445 12.8237 8.324 12.5108C8.22685 12.8375 8.55525 13.0606 8.42243 13.342C8.33172 13.5342 8.14395 13.7442 8.04639 13.9509C7.88859 14.2851 7.94888 14.8782 8.3301 14.8782C8.67134 14.8782 8.97457 14.4555 9.09888 14.1922C9.35355 13.6526 9.99032 11.3507 9.27854 11.3507C8.45879 11.3507 7.04623 13.3483 6.75043 13.9749C6.22245 15.0933 6.60517 16.471 7.80817 16.471C8.62101 16.471 9.28959 15.6895 9.61253 15.0054C9.80491 14.5979 9.90966 14.1924 9.95091 13.8101L10.1087 13.7812C10.1436 14.8336 11.2569 16.5762 10.783 17.5802C10.1764 18.8651 8.36272 18.8536 7.32713 19.3097C7.10946 18.8005 6.81457 18.3271 6.39935 17.9658C7.3231 17.655 9.59309 17.1333 10.0867 16.0876C10.2941 15.6483 10.1529 14.9199 9.91322 14.673C9.87244 14.8283 9.81601 14.9866 9.74111 15.1452C9.31847 16.0405 8.41357 16.7348 7.48067 16.7348C6.18183 16.7348 5.6312 15.8015 6.24246 14.5064C6.60932 13.7293 8.48267 11.1427 9.45129 11.1427Z" stroke="black" stroke-width="1.2" stroke-miterlimit="3.86371" stroke-linejoin="round"/>
<path d="M11.6703 14.2287C11.7219 14.3555 11.8711 15.0734 11.9844 15.0734C12.229 15.0734 12.6712 14.4077 12.7898 14.2349C13.0074 14.3774 12.8867 14.6765 13.2899 14.6765C13.4724 14.6765 13.5642 14.2833 13.7542 14.2769C13.7609 14.4358 13.7711 14.5796 13.6844 14.7632C13.5508 15.0463 13.2127 15.4299 12.8804 15.4299C12.6424 15.4299 12.3108 15.1433 12.2457 15.1433C12.175 15.1433 12.0451 15.1764 12.0037 15.2641C11.8307 15.6307 12.2933 16.8548 12.7573 16.8548C13.0052 16.8548 13.3011 16.6729 13.5604 16.5607C13.4929 17.0018 13.4835 17.3736 13.5728 17.7531C13.3365 17.9029 13.0597 17.966 12.8376 17.966C11.6974 17.966 12.3262 15.3145 11.2749 14.7496L11.6703 14.2287Z" fill="black"/>
<path d="M11.6703 14.2287C11.7219 14.3555 11.8711 15.0734 11.9844 15.0734C12.229 15.0734 12.6712 14.4077 12.7898 14.2349C13.0074 14.3774 12.8867 14.6765 13.2899 14.6765C13.4724 14.6765 13.5642 14.2833 13.7542 14.2769C13.7609 14.4358 13.7711 14.5796 13.6844 14.7632C13.5508 15.0463 13.2127 15.4299 12.8804 15.4299C12.6424 15.4299 12.3108 15.1433 12.2457 15.1433C12.175 15.1433 12.0451 15.1764 12.0037 15.2641C11.8307 15.6307 12.2933 16.8548 12.7573 16.8548C13.0052 16.8548 13.3011 16.6729 13.5604 16.5607C13.4929 17.0018 13.4835 17.3736 13.5728 17.7531C13.3365 17.9029 13.0597 17.966 12.8376 17.966C11.6974 17.966 12.3262 15.3145 11.2749 14.7496L11.6703 14.2287Z" stroke="black" stroke-width="1.2" stroke-miterlimit="3.86371" stroke-linejoin="round"/>
<path fill-rule="evenodd" clip-rule="evenodd" d="M16.052 14.0162C16.9137 14.0162 17.2539 15.5662 16.8673 16.3852C16.5673 17.0206 16.0355 17.4812 15.3543 17.4812C14.1511 17.4812 14.3019 15.8411 14.7712 14.8467C14.9007 14.5728 15.3429 13.9757 15.6889 13.9757C15.816 13.9757 15.9213 14.0162 16.052 14.0162ZM16.0254 14.1609C15.8897 14.1609 15.7705 14.2279 15.7076 14.3614C15.5755 14.6411 16.234 14.9241 16.1395 15.1243C16.08 15.2503 15.8535 15.3682 15.7392 15.3682C15.1683 15.3682 15.1731 14.6253 15.5135 14.1411C15.3018 14.276 15.1631 14.4819 15.073 14.673C14.7384 15.3816 15.0039 16.3565 15.7675 16.3565C16.1894 16.3565 16.6754 15.9774 16.8642 15.5773C17.0966 15.0853 16.5024 14.1609 16.0254 14.1609Z" fill="black"/>
<path d="M16.052 14.0162C16.9137 14.0162 17.2539 15.5662 16.8673 16.3852C16.5673 17.0206 16.0355 17.4812 15.3543 17.4812C14.1511 17.4812 14.3019 15.8411 14.7712 14.8467C14.9007 14.5728 15.3429 13.9757 15.6889 13.9757C15.816 13.9757 15.9213 14.0162 16.052 14.0162Z" stroke="black" stroke-width="1.2" stroke-miterlimit="3.86371" stroke-linejoin="round"/>
<path d="M16.0257 14.1609C15.8901 14.1609 15.7708 14.2279 15.7079 14.3614C15.5758 14.6411 16.2344 14.9241 16.1399 15.1243C16.0804 15.2503 15.8539 15.3682 15.7396 15.3682C15.1686 15.3682 15.1735 14.6253 15.5138 14.1411C15.3022 14.276 15.1635 14.4819 15.0734 14.673C14.7388 15.3816 15.0043 16.3565 15.7679 16.3565C16.1898 16.3565 16.6758 15.9775 16.8646 15.5773C17.097 15.0853 16.5027 14.1609 16.0257 14.1609Z" stroke="black" stroke-width="1.2" stroke-miterlimit="3.86371" stroke-linejoin="round"/>
<path fill-rule="evenodd" clip-rule="evenodd" d="M19.9683 16.568C19.7431 17.045 19.3235 17.3068 18.8511 17.3068C17.3518 17.3068 17.0543 15.9396 17.704 14.5631C17.8575 14.2382 18.1093 13.8788 18.4938 13.8788C19.6983 13.8788 20.5375 15.3622 19.9683 16.568ZM18.772 14.0515C18.6614 14.0515 18.5644 14.0915 18.5114 14.2038C18.3947 14.451 19.0293 14.6714 19.0302 14.9268C18.9639 15.0053 18.7784 15.0931 18.6975 15.0931C18.2405 15.0931 17.8956 14.4736 18.2857 14.0132C18.1274 14.1137 18.0335 14.2642 17.9666 14.4057C17.5711 15.2436 18.1349 16.0908 18.9565 16.0908C19.2985 16.0908 19.7393 15.9004 19.9169 15.5241C20.1683 14.9915 19.2729 14.0515 18.772 14.0515Z" fill="black"/>
<path d="M19.9683 16.568C19.7431 17.045 19.3235 17.3068 18.8511 17.3068C17.3518 17.3068 17.0543 15.9396 17.704 14.5631C17.8575 14.2382 18.1093 13.8788 18.4938 13.8788C19.6983 13.8788 20.5375 15.3622 19.9683 16.568Z" stroke="black" stroke-width="1.2" stroke-miterlimit="3.86371" stroke-linejoin="round"/>
<path d="M18.7721 14.0515C18.6615 14.0515 18.5644 14.0915 18.5114 14.2038C18.3948 14.451 19.0294 14.6714 19.0302 14.9268C18.964 15.0053 18.7784 15.0931 18.6976 15.0931C18.2406 15.0931 17.8957 14.4736 18.2858 14.0132C18.1275 14.1137 18.0335 14.2642 17.9667 14.4057C17.5711 15.2436 18.135 16.0908 18.9566 16.0908C19.2986 16.0908 19.7393 15.9004 19.9169 15.5241C20.1683 14.9915 19.2729 14.0515 18.7721 14.0515Z" stroke="black" stroke-width="1.2" stroke-miterlimit="3.86371" stroke-linejoin="round"/>
<path d="M21.519 14.0433C22.8112 14.0433 23.4677 16.4143 22.8902 17.6373C22.7799 17.8711 22.5742 18.1049 22.3029 18.1049C20.8267 18.1049 21.2036 15.1706 20.3726 14.3369C20.4485 14.2562 20.5213 14.1717 20.588 14.0867C21.1495 14.7457 20.8705 16.48 22.0698 16.48C22.3461 16.48 22.5551 16.238 22.6665 16.0019C22.9643 15.371 22.4132 14.2753 21.81 14.2753C21.804 14.2753 21.7174 14.2789 21.7193 14.3139C21.7416 14.7166 22.0583 14.4655 21.7393 15.1508C21.4134 15.0859 21.0682 14.5627 21.2464 14.1852C21.2989 14.0742 21.4301 14.0433 21.519 14.0433Z" fill="black"/>
<path d="M21.519 14.0433C22.8112 14.0433 23.4677 16.4143 22.8902 17.6373C22.7799 17.8711 22.5742 18.1049 22.3029 18.1049C20.8267 18.1049 21.2036 15.1706 20.3726 14.3369C20.4485 14.2562 20.5213 14.1717 20.588 14.0867C21.1495 14.7457 20.8705 16.48 22.0698 16.48C22.3461 16.48 22.5551 16.238 22.6665 16.0019C22.9643 15.371 22.4132 14.2753 21.81 14.2753C21.804 14.2753 21.7174 14.2789 21.7193 14.3139C21.7416 14.7166 22.0583 14.4655 21.7393 15.1508C21.4134 15.0859 21.0682 14.5627 21.2464 14.1852C21.2989 14.0742 21.4301 14.0433 21.519 14.0433Z" stroke="black" stroke-width="1.2" stroke-miterlimit="3.86371" stroke-linejoin="round"/>
<path fill-rule="evenodd" clip-rule="evenodd" d="M24.7317 14.0169C24.8533 14.0284 25.0362 14.0175 25.1406 14.0493C25.1602 14.0552 25.1454 14.0797 25.1487 14.099C25.1804 14.2782 25.2303 14.4482 25.2735 14.6213C25.4418 15.2959 25.5431 15.9884 25.7363 16.657C25.9465 17.385 26.1656 18.2053 25.9111 19.1188C25.8863 19.2082 25.853 19.2989 25.81 19.39C25.5215 20.0013 24.7797 20.5831 24.131 20.5831C24.0522 20.5831 23.9672 20.5609 23.9295 20.5096C24.2033 20.3356 24.3746 20.1571 24.4969 19.8981C24.6436 19.5874 24.6414 19.2965 24.6221 19.0288C24.674 19.0589 24.8401 19.1342 24.9093 19.1342C25.1898 19.1342 25.4308 18.8629 25.5433 18.6244C25.75 18.1864 25.7147 17.7394 25.6789 17.3664C25.6609 17.1797 25.6358 16.9955 25.601 16.8166L25.5483 16.5575L25.5416 16.5291L25.5352 16.5008C25.5665 16.5008 25.5384 16.5558 25.5396 16.5835C25.5589 17.0351 25.5508 17.6654 25.3082 18.1793C25.1954 18.4181 25.011 18.6643 24.728 18.6643C23.4874 18.6643 24.1114 15.1459 23.1172 14.3095C23.1723 14.2185 23.2215 14.1249 23.2627 14.0332C23.851 14.7437 23.8818 16.7024 24.7477 16.7024C24.9579 16.7024 25.1751 16.5055 25.2645 16.3162C25.6492 15.5013 25.0102 14.552 24.7317 14.0169Z" fill="black"/>
<path d="M24.7317 14.0169C24.8533 14.0284 25.0362 14.0175 25.1406 14.0493C25.1602 14.0552 25.1454 14.0797 25.1487 14.099C25.1804 14.2782 25.2303 14.4482 25.2735 14.6213C25.4418 15.2959 25.5431 15.9884 25.7363 16.657C25.9465 17.385 26.1656 18.2053 25.9111 19.1188C25.8863 19.2082 25.853 19.2989 25.81 19.39C25.5215 20.0013 24.7797 20.5831 24.131 20.5831C24.0522 20.5831 23.9672 20.5609 23.9295 20.5096C24.2033 20.3356 24.3746 20.1571 24.4969 19.8981C24.6436 19.5874 24.6414 19.2965 24.6221 19.0288C24.674 19.0589 24.8401 19.1342 24.9093 19.1342C25.1898 19.1342 25.4308 18.8629 25.5433 18.6244C25.75 18.1864 25.7147 17.7394 25.6789 17.3664C25.6609 17.1797 25.6358 16.9955 25.601 16.8166L25.5483 16.5575L25.5416 16.5291L25.5352 16.5008C25.5665 16.5008 25.5384 16.5558 25.5396 16.5835C25.5589 17.0351 25.5508 17.6654 25.3082 18.1793C25.1954 18.4181 25.011 18.6643 24.728 18.6643C23.4874 18.6643 24.1114 15.1459 23.1172 14.3095C23.1723 14.2185 23.2215 14.1249 23.2627 14.0332C23.851 14.7437 23.8818 16.7024 24.7477 16.7024C24.9579 16.7024 25.1751 16.5055 25.2645 16.3162C25.6492 15.5013 25.0102 14.552 24.7317 14.0169Z" stroke="black" stroke-width="1.2" stroke-miterlimit="3.86371" stroke-linejoin="round"/>
<path d="M9.45129 11.1427C10.3046 11.1427 9.80726 13.2749 9.50382 13.9178C9.24396 14.4683 8.65897 15.2621 7.96567 15.2621C7.13384 15.2621 7.15858 14.3305 7.4897 13.6291C7.66895 13.2494 7.94445 12.8237 8.324 12.5108C8.22685 12.8375 8.55525 13.0606 8.42243 13.342C8.33172 13.5342 8.14395 13.7442 8.04639 13.9509C7.88859 14.2851 7.94888 14.8782 8.3301 14.8782C8.67134 14.8782 8.97457 14.4555 9.09888 14.1922C9.35355 13.6526 9.99032 11.3507 9.27854 11.3507C8.45879 11.3507 7.04623 13.3483 6.75043 13.9749C6.22245 15.0933 6.60517 16.471 7.80817 16.471C8.62101 16.471 9.28959 15.6895 9.61253 15.0054C9.80491 14.5979 9.90966 14.1924 9.95091 13.8101L10.1087 13.7812C10.1436 14.8336 11.2569 16.5762 10.783 17.5802C10.1764 18.8651 8.36272 18.8536 7.32713 19.3097C7.10946 18.8005 6.81457 18.3271 6.39935 17.9658C7.3231 17.655 9.59309 17.1333 10.0867 16.0876C10.2941 15.6483 10.1529 14.9199 9.91322 14.673C9.87244 14.8283 9.81601 14.9866 9.74111 15.1452C9.31847 16.0405 8.41357 16.7348 7.48067 16.7348C6.18183 16.7348 5.6312 15.8015 6.24246 14.5064C6.60932 13.7293 8.48267 11.1427 9.45129 11.1427Z" fill="black"/>
<path d="M9.45129 11.1427C10.3046 11.1427 9.80726 13.2749 9.50382 13.9178C9.24396 14.4683 8.65897 15.2621 7.96567 15.2621C7.13384 15.2621 7.15858 14.3305 7.4897 13.6291C7.66895 13.2494 7.94445 12.8237 8.324 12.5108C8.22685 12.8375 8.55525 13.0606 8.42243 13.342C8.33172 13.5342 8.14395 13.7442 8.04639 13.9509C7.88859 14.2851 7.94888 14.8782 8.3301 14.8782C8.67134 14.8782 8.97457 14.4555 9.09888 14.1922C9.35355 13.6526 9.99032 11.3507 9.27854 11.3507C8.45879 11.3507 7.04623 13.3483 6.75043 13.9749C6.22245 15.0933 6.60517 16.471 7.80817 16.471C8.62101 16.471 9.28959 15.6895 9.61253 15.0054C9.80491 14.5979 9.90966 14.1924 9.95091 13.8101L10.1087 13.7812C10.1436 14.8336 11.2569 16.5762 10.783 17.5802C10.1764 18.8651 8.36272 18.8536 7.32713 19.3097C7.10946 18.8005 6.81457 18.3271 6.39935 17.9658C7.3231 17.655 9.59309 17.1333 10.0867 16.0876C10.2941 15.6483 10.1529 14.9199 9.91322 14.673C9.87244 14.8283 9.81601 14.9866 9.74111 15.1452C9.31847 16.0405 8.41357 16.7348 7.48067 16.7348C6.18183 16.7348 5.6312 15.8015 6.24246 14.5064C6.60932 13.7293 8.48267 11.1427 9.45129 11.1427Z" stroke="black" stroke-width="1.2" stroke-miterlimit="3.86369" stroke-linejoin="round"/>
<path d="M11.6703 14.2287C11.7219 14.3555 11.8711 15.0734 11.9844 15.0734C12.229 15.0734 12.6712 14.4077 12.7898 14.2349C13.0074 14.3774 12.8867 14.6765 13.2899 14.6765C13.4724 14.6765 13.5642 14.2833 13.7542 14.2769C13.7609 14.4358 13.7711 14.5796 13.6844 14.7632C13.5508 15.0463 13.2127 15.4299 12.8804 15.4299C12.6424 15.4299 12.3108 15.1433 12.2457 15.1433C12.175 15.1433 12.0451 15.1764 12.0037 15.2641C11.8307 15.6307 12.2933 16.8548 12.7573 16.8548C13.0052 16.8548 13.3011 16.6729 13.5604 16.5607C13.4929 17.0018 13.4835 17.3736 13.5728 17.7531C13.3365 17.9029 13.0597 17.966 12.8376 17.966C11.6974 17.966 12.3262 15.3145 11.2749 14.7496L11.6703 14.2287Z" fill="black"/>
<path d="M11.6703 14.2287C11.7219 14.3555 11.8711 15.0734 11.9844 15.0734C12.229 15.0734 12.6712 14.4077 12.7898 14.2349C13.0074 14.3774 12.8867 14.6765 13.2899 14.6765C13.4724 14.6765 13.5642 14.2833 13.7542 14.2769C13.7609 14.4358 13.7711 14.5796 13.6844 14.7632C13.5508 15.0463 13.2127 15.4299 12.8804 15.4299C12.6424 15.4299 12.3108 15.1433 12.2457 15.1433C12.175 15.1433 12.0451 15.1764 12.0037 15.2641C11.8307 15.6307 12.2933 16.8548 12.7573 16.8548C13.0052 16.8548 13.3011 16.6729 13.5604 16.5607C13.4929 17.0018 13.4835 17.3736 13.5728 17.7531C13.3365 17.9029 13.0597 17.966 12.8376 17.966C11.6974 17.966 12.3262 15.3145 11.2749 14.7496L11.6703 14.2287Z" stroke="black" stroke-width="1.2" stroke-miterlimit="3.86369" stroke-linejoin="round"/>
<path fill-rule="evenodd" clip-rule="evenodd" d="M16.052 14.0162C16.9137 14.0162 17.2539 15.5662 16.8673 16.3852C16.5673 17.0206 16.0355 17.4812 15.3543 17.4812C14.1511 17.4812 14.3019 15.8411 14.7712 14.8467C14.9007 14.5728 15.3429 13.9757 15.6889 13.9757C15.816 13.9757 15.9213 14.0162 16.052 14.0162ZM16.0254 14.1609C15.8897 14.1609 15.7705 14.2279 15.7076 14.3614C15.5755 14.6411 16.234 14.9241 16.1395 15.1243C16.08 15.2503 15.8535 15.3682 15.7392 15.3682C15.1683 15.3682 15.1731 14.6253 15.5135 14.1411C15.3018 14.276 15.1631 14.4819 15.073 14.673C14.7384 15.3816 15.0039 16.3565 15.7675 16.3565C16.1894 16.3565 16.6754 15.9774 16.8642 15.5773C17.0966 15.0853 16.5024 14.1609 16.0254 14.1609Z" fill="black"/>
<path d="M16.052 14.0162C16.9137 14.0162 17.2539 15.5662 16.8673 16.3852C16.5673 17.0206 16.0355 17.4812 15.3543 17.4812C14.1511 17.4812 14.3019 15.8411 14.7712 14.8467C14.9007 14.5728 15.3429 13.9757 15.6889 13.9757C15.816 13.9757 15.9213 14.0162 16.052 14.0162Z" stroke="black" stroke-width="1.2" stroke-miterlimit="3.86369" stroke-linejoin="round"/>
<path d="M16.0257 14.1609C15.8901 14.1609 15.7708 14.2279 15.7079 14.3614C15.5758 14.6411 16.2344 14.9241 16.1399 15.1243C16.0804 15.2503 15.8539 15.3682 15.7396 15.3682C15.1686 15.3682 15.1735 14.6253 15.5138 14.1411C15.3022 14.276 15.1635 14.4819 15.0734 14.673C14.7388 15.3816 15.0043 16.3565 15.7679 16.3565C16.1898 16.3565 16.6758 15.9775 16.8646 15.5773C17.097 15.0853 16.5027 14.1609 16.0257 14.1609Z" stroke="black" stroke-width="1.2" stroke-miterlimit="3.86369" stroke-linejoin="round"/>
<path fill-rule="evenodd" clip-rule="evenodd" d="M19.9683 16.568C19.7431 17.045 19.3235 17.3068 18.8511 17.3068C17.3518 17.3068 17.0543 15.9396 17.704 14.5631C17.8575 14.2382 18.1093 13.8788 18.4938 13.8788C19.6983 13.8788 20.5375 15.3622 19.9683 16.568ZM18.772 14.0515C18.6614 14.0515 18.5644 14.0915 18.5114 14.2038C18.3947 14.451 19.0293 14.6714 19.0302 14.9268C18.9639 15.0053 18.7784 15.0931 18.6975 15.0931C18.2405 15.0931 17.8956 14.4736 18.2857 14.0132C18.1274 14.1137 18.0335 14.2642 17.9666 14.4057C17.5711 15.2436 18.1349 16.0908 18.9565 16.0908C19.2985 16.0908 19.7393 15.9004 19.9169 15.5241C20.1683 14.9915 19.2729 14.0515 18.772 14.0515Z" fill="black"/>
<path d="M19.9683 16.568C19.7431 17.045 19.3235 17.3068 18.8511 17.3068C17.3518 17.3068 17.0543 15.9396 17.704 14.5631C17.8575 14.2382 18.1093 13.8788 18.4938 13.8788C19.6983 13.8788 20.5375 15.3622 19.9683 16.568Z" stroke="black" stroke-width="1.2" stroke-miterlimit="3.86369" stroke-linejoin="round"/>
<path d="M18.7721 14.0515C18.6615 14.0515 18.5644 14.0915 18.5114 14.2038C18.3948 14.451 19.0294 14.6714 19.0302 14.9268C18.964 15.0053 18.7784 15.0931 18.6976 15.0931C18.2406 15.0931 17.8957 14.4736 18.2858 14.0132C18.1275 14.1137 18.0335 14.2642 17.9667 14.4057C17.5711 15.2436 18.135 16.0908 18.9566 16.0908C19.2986 16.0908 19.7393 15.9004 19.9169 15.5241C20.1683 14.9915 19.2729 14.0515 18.7721 14.0515Z" stroke="black" stroke-width="1.2" stroke-miterlimit="3.86369" stroke-linejoin="round"/>
<path d="M21.519 14.0433C22.8112 14.0433 23.4677 16.4143 22.8902 17.6373C22.7799 17.8711 22.5742 18.1049 22.3029 18.1049C20.8267 18.1049 21.2036 15.1706 20.3726 14.3369C20.4485 14.2562 20.5213 14.1717 20.588 14.0867C21.1495 14.7457 20.8705 16.48 22.0698 16.48C22.3461 16.48 22.5551 16.238 22.6665 16.0019C22.9643 15.371 22.4132 14.2753 21.81 14.2753C21.804 14.2753 21.7174 14.2789 21.7193 14.3139C21.7416 14.7166 22.0583 14.4655 21.7393 15.1508C21.4134 15.0859 21.0682 14.5627 21.2464 14.1852C21.2989 14.0742 21.4301 14.0433 21.519 14.0433Z" fill="black"/>
<path d="M21.519 14.0433C22.8112 14.0433 23.4677 16.4143 22.8902 17.6373C22.7799 17.8711 22.5742 18.1049 22.3029 18.1049C20.8267 18.1049 21.2036 15.1706 20.3726 14.3369C20.4485 14.2562 20.5213 14.1717 20.588 14.0867C21.1495 14.7457 20.8705 16.48 22.0698 16.48C22.3461 16.48 22.5551 16.238 22.6665 16.0019C22.9643 15.371 22.4132 14.2753 21.81 14.2753C21.804 14.2753 21.7174 14.2789 21.7193 14.3139C21.7416 14.7166 22.0583 14.4655 21.7393 15.1508C21.4134 15.0859 21.0682 14.5627 21.2464 14.1852C21.2989 14.0742 21.4301 14.0433 21.519 14.0433Z" stroke="black" stroke-width="1.2" stroke-miterlimit="3.86369" stroke-linejoin="round"/>
<path fill-rule="evenodd" clip-rule="evenodd" d="M24.7317 14.0169C24.8533 14.0284 25.0362 14.0175 25.1406 14.0493C25.1602 14.0552 25.1454 14.0797 25.1487 14.099C25.1804 14.2782 25.2303 14.4482 25.2735 14.6213C25.4418 15.2959 25.5431 15.9884 25.7363 16.657C25.9465 17.385 26.1656 18.2053 25.9111 19.1188C25.8863 19.2082 25.853 19.2989 25.81 19.39C25.5215 20.0013 24.7797 20.5831 24.131 20.5831C24.0522 20.5831 23.9672 20.5609 23.9295 20.5096C24.2033 20.3356 24.3746 20.1571 24.4969 19.8981C24.6436 19.5874 24.6414 19.2965 24.6221 19.0288C24.674 19.0589 24.8401 19.1342 24.9093 19.1342C25.1898 19.1342 25.4308 18.8629 25.5433 18.6244C25.75 18.1864 25.7147 17.7394 25.6789 17.3664C25.6609 17.1797 25.6358 16.9955 25.601 16.8166L25.5483 16.5575L25.5416 16.5291L25.5352 16.5008C25.5665 16.5008 25.5384 16.5558 25.5396 16.5835C25.5589 17.0351 25.5508 17.6654 25.3082 18.1793C25.1954 18.4181 25.011 18.6643 24.728 18.6643C23.4874 18.6643 24.1114 15.1459 23.1172 14.3095C23.1723 14.2185 23.2215 14.1249 23.2627 14.0332C23.851 14.7437 23.8818 16.7024 24.7477 16.7024C24.9579 16.7024 25.1751 16.5055 25.2645 16.3162C25.6492 15.5013 25.0102 14.552 24.7317 14.0169Z" fill="black"/>
<path d="M24.7317 14.0169C24.8533 14.0284 25.0362 14.0175 25.1406 14.0493C25.1602 14.0552 25.1454 14.0797 25.1487 14.099C25.1804 14.2782 25.2303 14.4482 25.2735 14.6213C25.4418 15.2959 25.5431 15.9884 25.7363 16.657C25.9465 17.385 26.1656 18.2053 25.9111 19.1188C25.8863 19.2082 25.853 19.2989 25.81 19.39C25.5215 20.0013 24.7797 20.5831 24.131 20.5831C24.0522 20.5831 23.9672 20.5609 23.9295 20.5096C24.2033 20.3356 24.3746 20.1571 24.4969 19.8981C24.6436 19.5874 24.6414 19.2965 24.6221 19.0288C24.674 19.0589 24.8401 19.1342 24.9093 19.1342C25.1898 19.1342 25.4308 18.8629 25.5433 18.6244C25.75 18.1864 25.7147 17.7394 25.6789 17.3664C25.6609 17.1797 25.6358 16.9955 25.601 16.8166L25.5483 16.5575L25.5416 16.5291L25.5352 16.5008C25.5665 16.5008 25.5384 16.5558 25.5396 16.5835C25.5589 17.0351 25.5508 17.6654 25.3082 18.1793C25.1954 18.4181 25.011 18.6643 24.728 18.6643C23.4874 18.6643 24.1114 15.1459 23.1172 14.3095C23.1723 14.2185 23.2215 14.1249 23.2627 14.0332C23.851 14.7437 23.8818 16.7024 24.7477 16.7024C24.9579 16.7024 25.1751 16.5055 25.2645 16.3162C25.6492 15.5013 25.0102 14.552 24.7317 14.0169Z" stroke="black" stroke-width="1.2" stroke-miterlimit="3.86369" stroke-linejoin="round"/>
<path d="M9.45129 11.1427C10.3046 11.1427 9.80726 13.2749 9.50382 13.9178C9.24396 14.4683 8.65897 15.2621 7.96567 15.2621C7.13384 15.2621 7.15858 14.3305 7.4897 13.6291C7.66895 13.2494 7.94445 12.8237 8.324 12.5108C8.22685 12.8375 8.55525 13.0606 8.42243 13.342C8.33172 13.5342 8.14395 13.7442 8.04639 13.9509C7.88859 14.2851 7.94888 14.8782 8.3301 14.8782C8.67134 14.8782 8.97457 14.4555 9.09888 14.1922C9.35355 13.6526 9.99032 11.3507 9.27854 11.3507C8.45879 11.3507 7.04623 13.3483 6.75043 13.9749C6.22245 15.0933 6.60517 16.471 7.80817 16.471C8.62101 16.471 9.28959 15.6895 9.61253 15.0054C9.80491 14.5979 9.90966 14.1924 9.95091 13.8101L10.1087 13.7812C10.1436 14.8336 11.2569 16.5762 10.783 17.5802C10.1764 18.8651 8.36272 18.8536 7.32713 19.3097C7.10946 18.8005 6.81457 18.3271 6.39935 17.9658C7.3231 17.655 9.59309 17.1333 10.0867 16.0876C10.2941 15.6483 10.1529 14.9199 9.91322 14.673C9.87244 14.8283 9.81601 14.9866 9.74111 15.1452C9.31847 16.0405 8.41357 16.7348 7.48067 16.7348C6.18183 16.7348 5.6312 15.8015 6.24246 14.5064C6.60932 13.7293 8.48267 11.1427 9.45129 11.1427Z" fill="white"/>
<path d="M11.6703 14.2287C11.7219 14.3555 11.8711 15.0734 11.9844 15.0734C12.229 15.0734 12.6712 14.4077 12.7898 14.2349C13.0074 14.3774 12.8867 14.6765 13.2899 14.6765C13.4724 14.6765 13.5642 14.2833 13.7542 14.2769C13.7609 14.4358 13.7711 14.5796 13.6844 14.7632C13.5508 15.0463 13.2127 15.4299 12.8804 15.4299C12.6424 15.4299 12.3108 15.1433 12.2457 15.1433C12.175 15.1433 12.0451 15.1764 12.0037 15.2641C11.8307 15.6307 12.2933 16.8548 12.7573 16.8548C13.0052 16.8548 13.3011 16.6729 13.5604 16.5607C13.4929 17.0018 13.4835 17.3736 13.5728 17.7531C13.3365 17.9029 13.0597 17.966 12.8376 17.966C11.6974 17.966 12.3262 15.3145 11.2749 14.7496L11.6703 14.2287Z" fill="white"/>
<path fill-rule="evenodd" clip-rule="evenodd" d="M16.052 14.0162C16.9137 14.0162 17.2539 15.5662 16.8673 16.3852C16.5673 17.0206 16.0355 17.4812 15.3543 17.4812C14.1511 17.4812 14.3019 15.8411 14.7712 14.8467C14.9007 14.5728 15.3429 13.9757 15.6889 13.9757C15.816 13.9757 15.9213 14.0162 16.052 14.0162ZM16.0254 14.1609C15.8897 14.1609 15.7705 14.2279 15.7076 14.3614C15.5755 14.6411 16.234 14.9241 16.1395 15.1243C16.08 15.2503 15.8535 15.3682 15.7392 15.3682C15.1683 15.3682 15.1731 14.6253 15.5135 14.1411C15.3018 14.276 15.1631 14.4819 15.073 14.673C14.7384 15.3816 15.0039 16.3565 15.7675 16.3565C16.1894 16.3565 16.6754 15.9774 16.8642 15.5773C17.0966 15.0853 16.5024 14.1609 16.0254 14.1609Z" fill="white"/>
<path fill-rule="evenodd" clip-rule="evenodd" d="M19.9683 16.568C19.7431 17.045 19.3235 17.3068 18.8511 17.3068C17.3518 17.3068 17.0543 15.9396 17.704 14.5631C17.8575 14.2382 18.1093 13.8788 18.4938 13.8788C19.6983 13.8788 20.5375 15.3622 19.9683 16.568ZM18.772 14.0515C18.6614 14.0515 18.5644 14.0915 18.5114 14.2038C18.3947 14.451 19.0293 14.6714 19.0302 14.9268C18.9639 15.0053 18.7784 15.0931 18.6975 15.0931C18.2405 15.0931 17.8956 14.4736 18.2857 14.0132C18.1274 14.1137 18.0335 14.2642 17.9666 14.4057C17.5711 15.2436 18.1349 16.0908 18.9565 16.0908C19.2985 16.0908 19.7393 15.9004 19.9169 15.5241C20.1683 14.9915 19.2729 14.0515 18.772 14.0515Z" fill="white"/>
<path d="M21.519 14.0433C22.8112 14.0433 23.4677 16.4143 22.8902 17.6373C22.7799 17.8711 22.5742 18.1049 22.3029 18.1049C20.8267 18.1049 21.2036 15.1706 20.3726 14.3369C20.4485 14.2562 20.5213 14.1717 20.588 14.0867C21.1495 14.7457 20.8705 16.48 22.0698 16.48C22.3461 16.48 22.5551 16.238 22.6665 16.0019C22.9643 15.371 22.4132 14.2753 21.81 14.2753C21.804 14.2753 21.7174 14.2789 21.7193 14.3139C21.7416 14.7166 22.0583 14.4655 21.7393 15.1508C21.4134 15.0859 21.0682 14.5627 21.2464 14.1852C21.2989 14.0742 21.4301 14.0433 21.519 14.0433Z" fill="white"/>
<path fill-rule="evenodd" clip-rule="evenodd" d="M24.7319 14.0169C24.8536 14.0284 25.0365 14.0175 25.1409 14.0493C25.1605 14.0552 25.1456 14.0797 25.149 14.099C25.1807 14.2782 25.2306 14.4482 25.2737 14.6213C25.4421 15.2959 25.5434 15.9884 25.7366 16.657C25.9467 17.385 26.1659 18.2053 25.9114 19.1188C25.8865 19.2082 25.8532 19.2989 25.8102 19.39C24.8428 21.2483 22.7724 20.7474 22.1238 20.7474C22.045 20.7474 21.9599 20.7251 21.9224 20.6738C22.196 20.4998 22.3674 20.3214 22.4896 20.0623C22.6363 19.7517 22.6341 19.4608 22.6148 19.193C22.6667 19.2232 22.8329 19.2984 22.902 19.2984C23.1825 19.2984 24.7464 20.1019 25.5435 18.6244C25.7503 18.1864 25.7149 17.7394 25.6792 17.3665C25.6612 17.1798 25.636 16.9955 25.6013 16.8166L25.5485 16.5575L25.5419 16.5291L25.5354 16.5008C25.5668 16.5008 25.5387 16.5558 25.5398 16.5835C25.5591 17.0351 25.551 17.6655 25.3085 18.1794C25.1957 18.4181 25.0113 18.6643 24.7282 18.6643C23.4877 18.6643 24.1116 15.1459 23.1174 14.3095C23.1725 14.2185 23.2217 14.1249 23.2629 14.0332C23.8513 14.7437 23.8821 16.7025 24.748 16.7025C24.9581 16.7025 25.1754 16.5055 25.2647 16.3162C25.6494 15.5013 25.0104 14.552 24.7319 14.0169Z" fill="white"/>
<path d="M25.8733 23.9563L15.9919 20.1188L6.11079 23.9554L10.0123 17.8392L0.00341797 14.0939L12.2962 14.1513L15.9914 7.99999L19.687 14.1516L31.98 14.0953L21.9711 17.8398L25.8733 23.9563Z" fill="black"/>
<path d="M24.5514 22.8482L16.0089 19.5371L7.46678 22.8476L10.8397 17.5702L2.18701 14.3386L12.814 14.3881L16.0086 9.08036L19.2034 14.3884L29.8305 14.3397L21.178 17.5706L24.5514 22.8482Z" fill="#619CBC"/>
<path d="M9.45129 11.1427C10.3046 11.1427 9.80726 13.2749 9.50382 13.9178C9.24396 14.4683 8.65897 15.2621 7.96567 15.2621C7.13384 15.2621 7.15858 14.3305 7.4897 13.6291C7.66895 13.2494 7.94445 12.8237 8.324 12.5108C8.22685 12.8375 8.55525 13.0606 8.42243 13.342C8.33172 13.5342 8.14395 13.7442 8.04639 13.9509C7.88859 14.2851 7.94888 14.8782 8.3301 14.8782C8.67134 14.8782 8.97457 14.4555 9.09888 14.1922C9.35355 13.6526 9.99032 11.3507 9.27854 11.3507C8.45879 11.3507 7.04623 13.3483 6.75043 13.9749C6.22245 15.0933 6.60517 16.471 7.80817 16.471C8.62101 16.471 9.28959 15.6895 9.61253 15.0054C9.80491 14.5979 9.90966 14.1924 9.95091 13.8101L10.1087 13.7812C10.1436 14.8336 11.2569 16.5762 10.783 17.5802C10.1764 18.8651 8.36272 18.8536 7.32713 19.3097C7.10946 18.8005 6.81457 18.3271 6.39935 17.9658C7.3231 17.655 9.59309 17.1333 10.0867 16.0876C10.2941 15.6483 10.1529 14.9199 9.91322 14.673C9.87244 14.8283 9.81601 14.9866 9.74111 15.1452C9.31847 16.0405 8.41357 16.7348 7.48067 16.7348C6.18183 16.7348 5.6312 15.8015 6.24246 14.5064C6.60932 13.7293 8.48267 11.1427 9.45129 11.1427Z" fill="black"/>
<path d="M9.45129 11.1427C10.3046 11.1427 9.80726 13.2749 9.50382 13.9178C9.24396 14.4683 8.65897 15.2621 7.96567 15.2621C7.13384 15.2621 7.15858 14.3305 7.4897 13.6291C7.66895 13.2494 7.94445 12.8237 8.324 12.5108C8.22685 12.8375 8.55525 13.0606 8.42243 13.342C8.33172 13.5342 8.14395 13.7442 8.04639 13.9509C7.88859 14.2851 7.94888 14.8782 8.3301 14.8782C8.67134 14.8782 8.97457 14.4555 9.09888 14.1922C9.35355 13.6526 9.99032 11.3507 9.27854 11.3507C8.45879 11.3507 7.04623 13.3483 6.75043 13.9749C6.22245 15.0933 6.60517 16.471 7.80817 16.471C8.62101 16.471 9.28959 15.6895 9.61253 15.0054C9.80491 14.5979 9.90966 14.1924 9.95091 13.8101L10.1087 13.7812C10.1436 14.8336 11.2569 16.5762 10.783 17.5802C10.1764 18.8651 8.36272 18.8536 7.32713 19.3097C7.10946 18.8005 6.81457 18.3271 6.39935 17.9658C7.3231 17.655 9.59309 17.1333 10.0867 16.0876C10.2941 15.6483 10.1529 14.9199 9.91322 14.673C9.87244 14.8283 9.81601 14.9866 9.74111 15.1452C9.31847 16.0405 8.41357 16.7348 7.48067 16.7348C6.18183 16.7348 5.6312 15.8015 6.24246 14.5064C6.60932 13.7293 8.48267 11.1427 9.45129 11.1427Z" stroke="black" stroke-width="1.2" stroke-miterlimit="3.86369" stroke-linejoin="round"/>
<path d="M11.6703 14.2287C11.7219 14.3555 11.8711 15.0734 11.9844 15.0734C12.229 15.0734 12.6712 14.4077 12.7898 14.2349C13.0074 14.3774 12.8867 14.6765 13.2899 14.6765C13.4724 14.6765 13.5642 14.2833 13.7542 14.2769C13.7609 14.4358 13.7711 14.5796 13.6844 14.7632C13.5508 15.0463 13.2127 15.4299 12.8804 15.4299C12.6424 15.4299 12.3108 15.1433 12.2457 15.1433C12.175 15.1433 12.0451 15.1764 12.0037 15.2641C11.8307 15.6307 12.2933 16.8548 12.7573 16.8548C13.0052 16.8548 13.3011 16.6729 13.5604 16.5607C13.4929 17.0018 13.4835 17.3736 13.5728 17.7531C13.3365 17.9029 13.0597 17.966 12.8376 17.966C11.6974 17.966 12.3262 15.3145 11.2749 14.7496L11.6703 14.2287Z" fill="black"/>
<path d="M11.6703 14.2287C11.7219 14.3555 11.8711 15.0734 11.9844 15.0734C12.229 15.0734 12.6712 14.4077 12.7898 14.2349C13.0074 14.3774 12.8867 14.6765 13.2899 14.6765C13.4724 14.6765 13.5642 14.2833 13.7542 14.2769C13.7609 14.4358 13.7711 14.5796 13.6844 14.7632C13.5508 15.0463 13.2127 15.4299 12.8804 15.4299C12.6424 15.4299 12.3108 15.1433 12.2457 15.1433C12.175 15.1433 12.0451 15.1764 12.0037 15.2641C11.8307 15.6307 12.2933 16.8548 12.7573 16.8548C13.0052 16.8548 13.3011 16.6729 13.5604 16.5607C13.4929 17.0018 13.4835 17.3736 13.5728 17.7531C13.3365 17.9029 13.0597 17.966 12.8376 17.966C11.6974 17.966 12.3262 15.3145 11.2749 14.7496L11.6703 14.2287Z" stroke="black" stroke-width="1.2" stroke-miterlimit="3.86369" stroke-linejoin="round"/>
<path fill-rule="evenodd" clip-rule="evenodd" d="M16.052 14.0162C16.9137 14.0162 17.2539 15.5662 16.8673 16.3852C16.5673 17.0206 16.0355 17.4812 15.3543 17.4812C14.1511 17.4812 14.3019 15.8411 14.7712 14.8467C14.9007 14.5728 15.3429 13.9757 15.6889 13.9757C15.816 13.9757 15.9213 14.0162 16.052 14.0162ZM16.0254 14.1609C15.8897 14.1609 15.7705 14.2279 15.7076 14.3614C15.5755 14.6411 16.234 14.9241 16.1395 15.1243C16.08 15.2503 15.8535 15.3682 15.7392 15.3682C15.1683 15.3682 15.1731 14.6253 15.5135 14.1411C15.3018 14.276 15.1631 14.4819 15.073 14.673C14.7384 15.3816 15.0039 16.3565 15.7675 16.3565C16.1894 16.3565 16.6754 15.9774 16.8642 15.5773C17.0966 15.0853 16.5024 14.1609 16.0254 14.1609Z" fill="black"/>
<path d="M16.052 14.0162C16.9137 14.0162 17.2539 15.5662 16.8673 16.3852C16.5673 17.0206 16.0355 17.4812 15.3543 17.4812C14.1511 17.4812 14.3019 15.8411 14.7712 14.8467C14.9007 14.5728 15.3429 13.9757 15.6889 13.9757C15.816 13.9757 15.9213 14.0162 16.052 14.0162Z" stroke="black" stroke-width="1.2" stroke-miterlimit="3.86369" stroke-linejoin="round"/>
<path d="M16.0257 14.1609C15.8901 14.1609 15.7708 14.2279 15.7079 14.3614C15.5758 14.6411 16.2344 14.9241 16.1399 15.1243C16.0804 15.2503 15.8539 15.3682 15.7396 15.3682C15.1686 15.3682 15.1735 14.6253 15.5138 14.1411C15.3022 14.276 15.1635 14.4819 15.0734 14.673C14.7388 15.3816 15.0043 16.3565 15.7679 16.3565C16.1898 16.3565 16.6758 15.9775 16.8646 15.5773C17.097 15.0853 16.5027 14.1609 16.0257 14.1609Z" stroke="black" stroke-width="1.2" stroke-miterlimit="3.86369" stroke-linejoin="round"/>
<path fill-rule="evenodd" clip-rule="evenodd" d="M19.9683 16.568C19.7431 17.045 19.3235 17.3068 18.8511 17.3068C17.3518 17.3068 17.0543 15.9396 17.704 14.5631C17.8575 14.2382 18.1093 13.8788 18.4938 13.8788C19.6983 13.8788 20.5375 15.3622 19.9683 16.568ZM18.772 14.0515C18.6614 14.0515 18.5644 14.0915 18.5114 14.2038C18.3947 14.451 19.0293 14.6714 19.0302 14.9268C18.9639 15.0053 18.7784 15.0931 18.6975 15.0931C18.2405 15.0931 17.8956 14.4736 18.2857 14.0132C18.1274 14.1137 18.0335 14.2642 17.9666 14.4057C17.5711 15.2436 18.1349 16.0908 18.9565 16.0908C19.2985 16.0908 19.7393 15.9004 19.9169 15.5241C20.1683 14.9915 19.2729 14.0515 18.772 14.0515Z" fill="black"/>
<path d="M19.9683 16.568C19.7431 17.045 19.3235 17.3068 18.8511 17.3068C17.3518 17.3068 17.0543 15.9396 17.704 14.5631C17.8575 14.2382 18.1093 13.8788 18.4938 13.8788C19.6983 13.8788 20.5375 15.3622 19.9683 16.568Z" stroke="black" stroke-width="1.2" stroke-miterlimit="3.86369" stroke-linejoin="round"/>
<path d="M18.7721 14.0515C18.6615 14.0515 18.5644 14.0915 18.5114 14.2038C18.3948 14.451 19.0294 14.6714 19.0302 14.9268C18.964 15.0053 18.7784 15.0931 18.6976 15.0931C18.2406 15.0931 17.8957 14.4736 18.2858 14.0132C18.1275 14.1137 18.0335 14.2642 17.9667 14.4057C17.5711 15.2436 18.135 16.0908 18.9566 16.0908C19.2986 16.0908 19.7393 15.9004 19.9169 15.5241C20.1683 14.9915 19.2729 14.0515 18.7721 14.0515Z" stroke="black" stroke-width="1.2" stroke-miterlimit="3.86369" stroke-linejoin="round"/>
<path d="M21.519 14.0433C22.8112 14.0433 23.4677 16.4143 22.8902 17.6373C22.7799 17.8711 22.5742 18.1049 22.3029 18.1049C20.8267 18.1049 21.2036 15.1706 20.3726 14.3369C20.4485 14.2562 20.5213 14.1717 20.588 14.0867C21.1495 14.7457 20.8705 16.48 22.0698 16.48C22.3461 16.48 22.5551 16.238 22.6665 16.0019C22.9643 15.371 22.4132 14.2753 21.81 14.2753C21.804 14.2753 21.7174 14.2789 21.7193 14.3139C21.7416 14.7166 22.0583 14.4655 21.7393 15.1508C21.4134 15.0859 21.0682 14.5627 21.2464 14.1852C21.2989 14.0742 21.4301 14.0433 21.519 14.0433Z" fill="black"/>
<path d="M21.519 14.0433C22.8112 14.0433 23.4677 16.4143 22.8902 17.6373C22.7799 17.8711 22.5742 18.1049 22.3029 18.1049C20.8267 18.1049 21.2036 15.1706 20.3726 14.3369C20.4485 14.2562 20.5213 14.1717 20.588 14.0867C21.1495 14.7457 20.8705 16.48 22.0698 16.48C22.3461 16.48 22.5551 16.238 22.6665 16.0019C22.9643 15.371 22.4132 14.2753 21.81 14.2753C21.804 14.2753 21.7174 14.2789 21.7193 14.3139C21.7416 14.7166 22.0583 14.4655 21.7393 15.1508C21.4134 15.0859 21.0682 14.5627 21.2464 14.1852C21.2989 14.0742 21.4301 14.0433 21.519 14.0433Z" stroke="black" stroke-width="1.2" stroke-miterlimit="3.86369" stroke-linejoin="round"/>
<path fill-rule="evenodd" clip-rule="evenodd" d="M24.7316 14.0169C24.8533 14.0284 25.0362 14.0175 25.1406 14.0493C25.1602 14.0552 25.1453 14.0797 25.1487 14.099C25.1804 14.2782 25.2303 14.4482 25.2734 14.6213C25.4418 15.2959 25.5431 15.9884 25.7363 16.657C25.9465 17.385 26.1656 18.2054 25.9111 19.1188C25.8862 19.2082 25.8529 19.299 25.8099 19.39C25.5214 20.0013 23.037 20.7056 22.3885 20.7056C22.3097 20.7056 22.2246 20.6832 22.187 20.632C22.4606 20.4579 22.6321 20.2795 22.7544 20.0204C22.901 19.7099 22.8988 19.419 22.8795 19.1511C22.9313 19.1813 24.84 19.1342 24.9093 19.1342C25.1898 19.1342 25.4307 18.8629 25.5432 18.6244C25.75 18.1864 25.7147 17.7395 25.6789 17.3665C25.6609 17.1798 25.6357 16.9955 25.601 16.8166L25.5482 16.5575L25.5416 16.5291L25.5351 16.5008C25.5665 16.5008 25.5384 16.5558 25.5396 16.5835C25.5588 17.0351 25.5507 17.6655 25.3082 18.1794C25.1954 18.4181 25.011 18.6643 24.728 18.6643C23.4874 18.6643 24.1114 15.1459 23.1172 14.3095C23.1722 14.2185 23.2214 14.125 23.2627 14.0332C23.851 14.7437 23.8818 16.7025 24.7477 16.7025C24.9578 16.7025 25.1751 16.5055 25.2645 16.3162C25.6491 15.5013 25.0101 14.552 24.7316 14.0169Z" fill="black"/>
<path d="M24.7316 14.0169C24.8533 14.0284 25.0362 14.0175 25.1406 14.0493C25.1602 14.0552 25.1453 14.0797 25.1487 14.099C25.1804 14.2782 25.2303 14.4482 25.2734 14.6213C25.4418 15.2959 25.5431 15.9884 25.7363 16.657C25.9465 17.385 26.1656 18.2054 25.9111 19.1188C25.8862 19.2082 25.8529 19.299 25.8099 19.39C25.5214 20.0013 23.037 20.7056 22.3885 20.7056C22.3097 20.7056 22.2246 20.6832 22.187 20.632C22.4606 20.4579 22.6321 20.2795 22.7544 20.0204C22.901 19.7099 22.8988 19.419 22.8795 19.1511C22.9313 19.1813 24.84 19.1342 24.9093 19.1342C25.1898 19.1342 25.4307 18.8629 25.5432 18.6244C25.75 18.1864 25.7147 17.7395 25.6789 17.3665C25.6609 17.1798 25.6357 16.9955 25.601 16.8166L25.5482 16.5575L25.5416 16.5291L25.5351 16.5008C25.5665 16.5008 25.5384 16.5558 25.5396 16.5835C25.5588 17.0351 25.5507 17.6655 25.3082 18.1794C25.1954 18.4181 25.011 18.6643 24.728 18.6643C23.4874 18.6643 24.1114 15.1459 23.1172 14.3095C23.1722 14.2185 23.2214 14.125 23.2627 14.0332C23.851 14.7437 23.8818 16.7025 24.7477 16.7025C24.9578 16.7025 25.1751 16.5055 25.2645 16.3162C25.6491 15.5013 25.0101 14.552 24.7316 14.0169Z" stroke="black" stroke-width="1.4" stroke-miterlimit="3.86369" stroke-linejoin="round"/>
<path d="M9.45129 11.1427C10.3046 11.1427 9.80726 13.2749 9.50382 13.9178C9.24396 14.4683 8.65897 15.2621 7.96567 15.2621C7.13384 15.2621 7.15858 14.3305 7.4897 13.6291C7.66895 13.2494 7.94445 12.8237 8.324 12.5108C8.22685 12.8375 8.55525 13.0606 8.42243 13.342C8.33172 13.5342 8.14395 13.7442 8.04639 13.9509C7.88859 14.2851 7.94888 14.8782 8.3301 14.8782C8.67134 14.8782 8.97457 14.4555 9.09888 14.1922C9.35355 13.6526 9.99032 11.3507 9.27854 11.3507C8.45879 11.3507 7.04623 13.3483 6.75043 13.9749C6.22245 15.0933 6.60517 16.471 7.80817 16.471C8.62101 16.471 9.28959 15.6895 9.61253 15.0054C9.80491 14.5979 9.90966 14.1924 9.95091 13.8101L10.1087 13.7812C10.1436 14.8336 11.2569 16.5762 10.783 17.5802C10.1764 18.8651 8.36272 18.8536 7.32713 19.3097C7.10946 18.8005 6.81457 18.3271 6.39935 17.9658C7.3231 17.655 9.59309 17.1333 10.0867 16.0876C10.2941 15.6483 10.1529 14.9199 9.91322 14.673C9.87244 14.8283 9.81601 14.9866 9.74111 15.1452C9.31847 16.0405 8.41357 16.7348 7.48067 16.7348C6.18183 16.7348 5.6312 15.8015 6.24246 14.5064C6.60932 13.7293 8.48267 11.1427 9.45129 11.1427Z" fill="black"/>
<path d="M9.45129 11.1427C10.3046 11.1427 9.80726 13.2749 9.50382 13.9178C9.24396 14.4683 8.65897 15.2621 7.96567 15.2621C7.13384 15.2621 7.15858 14.3305 7.4897 13.6291C7.66895 13.2494 7.94445 12.8237 8.324 12.5108C8.22685 12.8375 8.55525 13.0606 8.42243 13.342C8.33172 13.5342 8.14395 13.7442 8.04639 13.9509C7.88859 14.2851 7.94888 14.8782 8.3301 14.8782C8.67134 14.8782 8.97457 14.4555 9.09888 14.1922C9.35355 13.6526 9.99032 11.3507 9.27854 11.3507C8.45879 11.3507 7.04623 13.3483 6.75043 13.9749C6.22245 15.0933 6.60517 16.471 7.80817 16.471C8.62101 16.471 9.28959 15.6895 9.61253 15.0054C9.80491 14.5979 9.90966 14.1924 9.95091 13.8101L10.1087 13.7812C10.1436 14.8336 11.2569 16.5762 10.783 17.5802C10.1764 18.8651 8.36272 18.8536 7.32713 19.3097C7.10946 18.8005 6.81457 18.3271 6.39935 17.9658C7.3231 17.655 9.59309 17.1333 10.0867 16.0876C10.2941 15.6483 10.1529 14.9199 9.91322 14.673C9.87244 14.8283 9.81601 14.9866 9.74111 15.1452C9.31847 16.0405 8.41357 16.7348 7.48067 16.7348C6.18183 16.7348 5.6312 15.8015 6.24246 14.5064C6.60932 13.7293 8.48267 11.1427 9.45129 11.1427Z" stroke="black" stroke-width="1.2" stroke-miterlimit="3.86371" stroke-linejoin="round"/>
<path d="M11.6703 14.2287C11.7219 14.3555 11.8711 15.0734 11.9844 15.0734C12.229 15.0734 12.6712 14.4077 12.7898 14.2349C13.0074 14.3774 12.8867 14.6765 13.2899 14.6765C13.4724 14.6765 13.5642 14.2833 13.7542 14.2769C13.7609 14.4358 13.7711 14.5796 13.6844 14.7632C13.5508 15.0463 13.2127 15.4299 12.8804 15.4299C12.6424 15.4299 12.3108 15.1433 12.2457 15.1433C12.175 15.1433 12.0451 15.1764 12.0037 15.2641C11.8307 15.6307 12.2933 16.8548 12.7573 16.8548C13.0052 16.8548 13.3011 16.6729 13.5604 16.5607C13.4929 17.0018 13.4835 17.3736 13.5728 17.7531C13.3365 17.9029 13.0597 17.966 12.8376 17.966C11.6974 17.966 12.3262 15.3145 11.2749 14.7496L11.6703 14.2287Z" fill="black"/>
<path d="M11.6703 14.2287C11.7219 14.3555 11.8711 15.0734 11.9844 15.0734C12.229 15.0734 12.6712 14.4077 12.7898 14.2349C13.0074 14.3774 12.8867 14.6765 13.2899 14.6765C13.4724 14.6765 13.5642 14.2833 13.7542 14.2769C13.7609 14.4358 13.7711 14.5796 13.6844 14.7632C13.5508 15.0463 13.2127 15.4299 12.8804 15.4299C12.6424 15.4299 12.3108 15.1433 12.2457 15.1433C12.175 15.1433 12.0451 15.1764 12.0037 15.2641C11.8307 15.6307 12.2933 16.8548 12.7573 16.8548C13.0052 16.8548 13.3011 16.6729 13.5604 16.5607C13.4929 17.0018 13.4835 17.3736 13.5728 17.7531C13.3365 17.9029 13.0597 17.966 12.8376 17.966C11.6974 17.966 12.3262 15.3145 11.2749 14.7496L11.6703 14.2287Z" stroke="black" stroke-width="1.2" stroke-miterlimit="3.86371" stroke-linejoin="round"/>
<path fill-rule="evenodd" clip-rule="evenodd" d="M16.052 14.0162C16.9137 14.0162 17.2539 15.5662 16.8673 16.3852C16.5673 17.0206 16.0355 17.4812 15.3543 17.4812C14.1511 17.4812 14.3019 15.8411 14.7712 14.8467C14.9007 14.5728 15.3429 13.9757 15.6889 13.9757C15.816 13.9757 15.9213 14.0162 16.052 14.0162ZM16.0254 14.1609C15.8897 14.1609 15.7705 14.2279 15.7076 14.3614C15.5755 14.6411 16.234 14.9241 16.1395 15.1243C16.08 15.2503 15.8535 15.3682 15.7392 15.3682C15.1683 15.3682 15.1731 14.6253 15.5135 14.1411C15.3018 14.276 15.1631 14.4819 15.073 14.673C14.7384 15.3816 15.0039 16.3565 15.7675 16.3565C16.1894 16.3565 16.6754 15.9774 16.8642 15.5773C17.0966 15.0853 16.5024 14.1609 16.0254 14.1609Z" fill="black"/>
<path d="M16.052 14.0162C16.9137 14.0162 17.2539 15.5662 16.8673 16.3852C16.5673 17.0206 16.0355 17.4812 15.3543 17.4812C14.1511 17.4812 14.3019 15.8411 14.7712 14.8467C14.9007 14.5728 15.3429 13.9757 15.6889 13.9757C15.816 13.9757 15.9213 14.0162 16.052 14.0162Z" stroke="black" stroke-width="1.2" stroke-miterlimit="3.86371" stroke-linejoin="round"/>
<path d="M16.0257 14.1609C15.8901 14.1609 15.7708 14.2279 15.7079 14.3614C15.5758 14.6411 16.2344 14.9241 16.1399 15.1243C16.0804 15.2503 15.8539 15.3682 15.7396 15.3682C15.1686 15.3682 15.1735 14.6253 15.5138 14.1411C15.3022 14.276 15.1635 14.4819 15.0734 14.673C14.7388 15.3816 15.0043 16.3565 15.7679 16.3565C16.1898 16.3565 16.6758 15.9775 16.8646 15.5773C17.097 15.0853 16.5027 14.1609 16.0257 14.1609Z" stroke="black" stroke-width="1.2" stroke-miterlimit="3.86371" stroke-linejoin="round"/>
<path fill-rule="evenodd" clip-rule="evenodd" d="M19.9683 16.568C19.7431 17.045 19.3235 17.3068 18.8511 17.3068C17.3518 17.3068 17.0543 15.9396 17.704 14.5631C17.8575 14.2382 18.1093 13.8788 18.4938 13.8788C19.6983 13.8788 20.5375 15.3622 19.9683 16.568ZM18.772 14.0515C18.6614 14.0515 18.5644 14.0915 18.5114 14.2038C18.3947 14.451 19.0293 14.6714 19.0302 14.9268C18.9639 15.0053 18.7784 15.0931 18.6975 15.0931C18.2405 15.0931 17.8956 14.4736 18.2857 14.0132C18.1274 14.1137 18.0335 14.2642 17.9666 14.4057C17.5711 15.2436 18.1349 16.0908 18.9565 16.0908C19.2985 16.0908 19.7393 15.9004 19.9169 15.5241C20.1683 14.9915 19.2729 14.0515 18.772 14.0515Z" fill="black"/>
<path d="M19.9683 16.568C19.7431 17.045 19.3235 17.3068 18.8511 17.3068C17.3518 17.3068 17.0543 15.9396 17.704 14.5631C17.8575 14.2382 18.1093 13.8788 18.4938 13.8788C19.6983 13.8788 20.5375 15.3622 19.9683 16.568Z" stroke="black" stroke-width="1.2" stroke-miterlimit="3.86371" stroke-linejoin="round"/>
<path d="M18.7721 14.0515C18.6615 14.0515 18.5644 14.0915 18.5114 14.2038C18.3948 14.451 19.0294 14.6714 19.0302 14.9268C18.964 15.0053 18.7784 15.0931 18.6976 15.0931C18.2406 15.0931 17.8957 14.4736 18.2858 14.0132C18.1275 14.1137 18.0335 14.2642 17.9667 14.4057C17.5711 15.2436 18.135 16.0908 18.9566 16.0908C19.2986 16.0908 19.7393 15.9004 19.9169 15.5241C20.1683 14.9915 19.2729 14.0515 18.7721 14.0515Z" stroke="black" stroke-width="1.2" stroke-miterlimit="3.86371" stroke-linejoin="round"/>
<path d="M21.519 14.0433C22.8112 14.0433 23.4677 16.4143 22.8902 17.6373C22.7799 17.8711 22.5742 18.1049 22.3029 18.1049C20.8267 18.1049 21.2036 15.1706 20.3726 14.3369C20.4485 14.2562 20.5213 14.1717 20.588 14.0867C21.1495 14.7457 20.8705 16.48 22.0698 16.48C22.3461 16.48 22.5551 16.238 22.6665 16.0019C22.9643 15.371 22.4132 14.2753 21.81 14.2753C21.804 14.2753 21.7174 14.2789 21.7193 14.3139C21.7416 14.7166 22.0583 14.4655 21.7393 15.1508C21.4134 15.0859 21.0682 14.5627 21.2464 14.1852C21.2989 14.0742 21.4301 14.0433 21.519 14.0433Z" fill="black"/>
<path d="M21.519 14.0433C22.8112 14.0433 23.4677 16.4143 22.8902 17.6373C22.7799 17.8711 22.5742 18.1049 22.3029 18.1049C20.8267 18.1049 21.2036 15.1706 20.3726 14.3369C20.4485 14.2562 20.5213 14.1717 20.588 14.0867C21.1495 14.7457 20.8705 16.48 22.0698 16.48C22.3461 16.48 22.5551 16.238 22.6665 16.0019C22.9643 15.371 22.4132 14.2753 21.81 14.2753C21.804 14.2753 21.7174 14.2789 21.7193 14.3139C21.7416 14.7166 22.0583 14.4655 21.7393 15.1508C21.4134 15.0859 21.0682 14.5627 21.2464 14.1852C21.2989 14.0742 21.4301 14.0433 21.519 14.0433Z" stroke="black" stroke-width="1.2" stroke-miterlimit="3.86371" stroke-linejoin="round"/>
<path fill-rule="evenodd" clip-rule="evenodd" d="M24.7317 14.0169C24.8533 14.0284 25.0362 14.0175 25.1406 14.0493C25.1602 14.0552 25.1454 14.0797 25.1487 14.099C25.1804 14.2782 25.2303 14.4482 25.2735 14.6213C25.4418 15.2959 25.5431 15.9884 25.7363 16.657C25.9465 17.385 26.1656 18.2053 25.9111 19.1188C25.8863 19.2082 25.853 19.2989 25.81 19.39C25.5215 20.0013 24.7797 20.5831 24.131 20.5831C24.0522 20.5831 23.9672 20.5609 23.9295 20.5096C24.2033 20.3356 24.3746 20.1571 24.4969 19.8981C24.6436 19.5874 24.6414 19.2965 24.6221 19.0288C24.674 19.0589 24.8401 19.1342 24.9093 19.1342C25.1898 19.1342 25.4308 18.8629 25.5433 18.6244C25.75 18.1864 25.7147 17.7394 25.6789 17.3664C25.6609 17.1797 25.6358 16.9955 25.601 16.8166L25.5483 16.5575L25.5416 16.5291L25.5352 16.5008C25.5665 16.5008 25.5384 16.5558 25.5396 16.5835C25.5589 17.0351 25.5508 17.6654 25.3082 18.1793C25.1954 18.4181 25.011 18.6643 24.728 18.6643C23.4874 18.6643 24.1114 15.1459 23.1172 14.3095C23.1723 14.2185 23.2215 14.1249 23.2627 14.0332C23.851 14.7437 23.8818 16.7024 24.7477 16.7024C24.9579 16.7024 25.1751 16.5055 25.2645 16.3162C25.6492 15.5013 25.0102 14.552 24.7317 14.0169Z" fill="black"/>
<path d="M24.7317 14.0169C24.8533 14.0284 25.0362 14.0175 25.1406 14.0493C25.1602 14.0552 25.1454 14.0797 25.1487 14.099C25.1804 14.2782 25.2303 14.4482 25.2735 14.6213C25.4418 15.2959 25.5431 15.9884 25.7363 16.657C25.9465 17.385 26.1656 18.2053 25.9111 19.1188C25.8863 19.2082 25.853 19.2989 25.81 19.39C25.5215 20.0013 24.7797 20.5831 24.131 20.5831C24.0522 20.5831 23.9672 20.5609 23.9295 20.5096C24.2033 20.3356 24.3746 20.1571 24.4969 19.8981C24.6436 19.5874 24.6414 19.2965 24.6221 19.0288C24.674 19.0589 24.8401 19.1342 24.9093 19.1342C25.1898 19.1342 25.4308 18.8629 25.5433 18.6244C25.75 18.1864 25.7147 17.7394 25.6789 17.3664C25.6609 17.1797 25.6358 16.9955 25.601 16.8166L25.5483 16.5575L25.5416 16.5291L25.5352 16.5008C25.5665 16.5008 25.5384 16.5558 25.5396 16.5835C25.5589 17.0351 25.5508 17.6654 25.3082 18.1793C25.1954 18.4181 25.011 18.6643 24.728 18.6643C23.4874 18.6643 24.1114 15.1459 23.1172 14.3095C23.1723 14.2185 23.2215 14.1249 23.2627 14.0332C23.851 14.7437 23.8818 16.7024 24.7477 16.7024C24.9579 16.7024 25.1751 16.5055 25.2645 16.3162C25.6492 15.5013 25.0102 14.552 24.7317 14.0169Z" stroke="black" stroke-width="1.2" stroke-miterlimit="3.86371" stroke-linejoin="round"/>
<path d="M9.45129 11.1427C10.3046 11.1427 9.80726 13.2749 9.50382 13.9178C9.24396 14.4683 8.65897 15.2621 7.96567 15.2621C7.13384 15.2621 7.15858 14.3305 7.4897 13.6291C7.66895 13.2494 7.94445 12.8237 8.324 12.5108C8.22685 12.8375 8.55525 13.0606 8.42243 13.342C8.33172 13.5342 8.14395 13.7442 8.04639 13.9509C7.88859 14.2851 7.94888 14.8782 8.3301 14.8782C8.67134 14.8782 8.97457 14.4555 9.09888 14.1922C9.35355 13.6526 9.99032 11.3507 9.27854 11.3507C8.45879 11.3507 7.04623 13.3483 6.75043 13.9749C6.22245 15.0933 6.60517 16.471 7.80817 16.471C8.62101 16.471 9.28959 15.6895 9.61253 15.0054C9.80491 14.5979 9.90966 14.1924 9.95091 13.8101L10.1087 13.7812C10.1436 14.8336 11.2569 16.5762 10.783 17.5802C10.1764 18.8651 8.36272 18.8536 7.32713 19.3097C7.10946 18.8005 6.81457 18.3271 6.39935 17.9658C7.3231 17.655 9.59309 17.1333 10.0867 16.0876C10.2941 15.6483 10.1529 14.9199 9.91322 14.673C9.87244 14.8283 9.81601 14.9866 9.74111 15.1452C9.31847 16.0405 8.41357 16.7348 7.48067 16.7348C6.18183 16.7348 5.6312 15.8015 6.24246 14.5064C6.60932 13.7293 8.48267 11.1427 9.45129 11.1427Z" fill="black"/>
<path d="M9.45129 11.1427C10.3046 11.1427 9.80726 13.2749 9.50382 13.9178C9.24396 14.4683 8.65897 15.2621 7.96567 15.2621C7.13384 15.2621 7.15858 14.3305 7.4897 13.6291C7.66895 13.2494 7.94445 12.8237 8.324 12.5108C8.22685 12.8375 8.55525 13.0606 8.42243 13.342C8.33172 13.5342 8.14395 13.7442 8.04639 13.9509C7.88859 14.2851 7.94888 14.8782 8.3301 14.8782C8.67134 14.8782 8.97457 14.4555 9.09888 14.1922C9.35355 13.6526 9.99032 11.3507 9.27854 11.3507C8.45879 11.3507 7.04623 13.3483 6.75043 13.9749C6.22245 15.0933 6.60517 16.471 7.80817 16.471C8.62101 16.471 9.28959 15.6895 9.61253 15.0054C9.80491 14.5979 9.90966 14.1924 9.95091 13.8101L10.1087 13.7812C10.1436 14.8336 11.2569 16.5762 10.783 17.5802C10.1764 18.8651 8.36272 18.8536 7.32713 19.3097C7.10946 18.8005 6.81457 18.3271 6.39935 17.9658C7.3231 17.655 9.59309 17.1333 10.0867 16.0876C10.2941 15.6483 10.1529 14.9199 9.91322 14.673C9.87244 14.8283 9.81601 14.9866 9.74111 15.1452C9.31847 16.0405 8.41357 16.7348 7.48067 16.7348C6.18183 16.7348 5.6312 15.8015 6.24246 14.5064C6.60932 13.7293 8.48267 11.1427 9.45129 11.1427Z" stroke="black" stroke-width="1.25" stroke-miterlimit="3.86369" stroke-linejoin="round"/>
<path d="M11.6703 14.2287C11.7219 14.3555 11.8711 15.0734 11.9844 15.0734C12.229 15.0734 12.6712 14.4077 12.7898 14.2349C13.0074 14.3774 12.8867 14.6765 13.2899 14.6765C13.4724 14.6765 13.5642 14.2833 13.7542 14.2769C13.7609 14.4358 13.7711 14.5796 13.6844 14.7632C13.5508 15.0463 13.2127 15.4299 12.8804 15.4299C12.6424 15.4299 12.3108 15.1433 12.2457 15.1433C12.175 15.1433 12.0451 15.1764 12.0037 15.2641C11.8307 15.6307 12.2933 16.8548 12.7573 16.8548C13.0052 16.8548 13.3011 16.6729 13.5604 16.5607C13.4929 17.0018 13.4835 17.3736 13.5728 17.7531C13.3365 17.9029 13.0597 17.966 12.8376 17.966C11.6974 17.966 12.3262 15.3145 11.2749 14.7496L11.6703 14.2287Z" fill="black"/>
<path d="M11.6703 14.2287C11.7219 14.3555 11.8711 15.0734 11.9844 15.0734C12.229 15.0734 12.6712 14.4077 12.7898 14.2349C13.0074 14.3774 12.8867 14.6765 13.2899 14.6765C13.4724 14.6765 13.5642 14.2833 13.7542 14.2769C13.7609 14.4358 13.7711 14.5796 13.6844 14.7632C13.5508 15.0463 13.2127 15.4299 12.8804 15.4299C12.6424 15.4299 12.3108 15.1433 12.2457 15.1433C12.175 15.1433 12.0451 15.1764 12.0037 15.2641C11.8307 15.6307 12.2933 16.8548 12.7573 16.8548C13.0052 16.8548 13.3011 16.6729 13.5604 16.5607C13.4929 17.0018 13.4835 17.3736 13.5728 17.7531C13.3365 17.9029 13.0597 17.966 12.8376 17.966C11.6974 17.966 12.3262 15.3145 11.2749 14.7496L11.6703 14.2287Z" stroke="black" stroke-width="1.2" stroke-miterlimit="3.86369" stroke-linejoin="round"/>
<path fill-rule="evenodd" clip-rule="evenodd" d="M16.052 14.0162C16.9137 14.0162 17.2539 15.5662 16.8673 16.3852C16.5673 17.0206 16.0355 17.4812 15.3543 17.4812C14.1511 17.4812 14.3019 15.8411 14.7712 14.8467C14.9007 14.5728 15.3429 13.9757 15.6889 13.9757C15.816 13.9757 15.9213 14.0162 16.052 14.0162ZM16.0254 14.1609C15.8897 14.1609 15.7705 14.2279 15.7076 14.3614C15.5755 14.6411 16.234 14.9241 16.1395 15.1243C16.08 15.2503 15.8535 15.3682 15.7392 15.3682C15.1683 15.3682 15.1731 14.6253 15.5135 14.1411C15.3018 14.276 15.1631 14.4819 15.073 14.673C14.7384 15.3816 15.0039 16.3565 15.7675 16.3565C16.1894 16.3565 16.6754 15.9774 16.8642 15.5773C17.0966 15.0853 16.5024 14.1609 16.0254 14.1609Z" fill="black"/>
<path d="M16.052 14.0162C16.9137 14.0162 17.2539 15.5662 16.8673 16.3852C16.5673 17.0206 16.0355 17.4812 15.3543 17.4812C14.1511 17.4812 14.3019 15.8411 14.7712 14.8467C14.9007 14.5728 15.3429 13.9757 15.6889 13.9757C15.816 13.9757 15.9213 14.0162 16.052 14.0162Z" stroke="black" stroke-width="1.2" stroke-miterlimit="3.86369" stroke-linejoin="round"/>
<path d="M16.0257 14.1609C15.8901 14.1609 15.7708 14.2279 15.7079 14.3614C15.5758 14.6411 16.2344 14.9241 16.1399 15.1243C16.0804 15.2503 15.8539 15.3682 15.7396 15.3682C15.1686 15.3682 15.1735 14.6253 15.5138 14.1411C15.3022 14.276 15.1635 14.4819 15.0734 14.673C14.7388 15.3816 15.0043 16.3565 15.7679 16.3565C16.1898 16.3565 16.6758 15.9775 16.8646 15.5773C17.097 15.0853 16.5027 14.1609 16.0257 14.1609Z" stroke="black" stroke-width="1.2" stroke-miterlimit="3.86369" stroke-linejoin="round"/>
<path fill-rule="evenodd" clip-rule="evenodd" d="M19.9683 16.568C19.7431 17.045 19.3235 17.3068 18.8511 17.3068C17.3518 17.3068 17.0543 15.9396 17.704 14.5631C17.8575 14.2382 18.1093 13.8788 18.4938 13.8788C19.6983 13.8788 20.5375 15.3622 19.9683 16.568ZM18.772 14.0515C18.6614 14.0515 18.5644 14.0915 18.5114 14.2038C18.3947 14.451 19.0293 14.6714 19.0302 14.9268C18.9639 15.0053 18.7784 15.0931 18.6975 15.0931C18.2405 15.0931 17.8956 14.4736 18.2857 14.0132C18.1274 14.1137 18.0335 14.2642 17.9666 14.4057C17.5711 15.2436 18.1349 16.0908 18.9565 16.0908C19.2985 16.0908 19.7393 15.9004 19.9169 15.5241C20.1683 14.9915 19.2729 14.0515 18.772 14.0515Z" fill="black"/>
<path d="M19.9683 16.568C19.7431 17.045 19.3235 17.3068 18.8511 17.3068C17.3518 17.3068 17.0543 15.9396 17.704 14.5631C17.8575 14.2382 18.1093 13.8788 18.4938 13.8788C19.6983 13.8788 20.5375 15.3622 19.9683 16.568Z" stroke="black" stroke-width="1.2" stroke-miterlimit="3.86369" stroke-linejoin="round"/>
<path d="M18.7721 14.0515C18.6615 14.0515 18.5644 14.0915 18.5114 14.2038C18.3948 14.451 19.0294 14.6714 19.0302 14.9268C18.964 15.0053 18.7784 15.0931 18.6976 15.0931C18.2406 15.0931 17.8957 14.4736 18.2858 14.0132C18.1275 14.1137 18.0335 14.2642 17.9667 14.4057C17.5711 15.2436 18.135 16.0908 18.9566 16.0908C19.2986 16.0908 19.7393 15.9004 19.9169 15.5241C20.1683 14.9915 19.2729 14.0515 18.7721 14.0515Z" stroke="black" stroke-width="1.2" stroke-miterlimit="3.86369" stroke-linejoin="round"/>
<path d="M21.519 14.0433C22.8112 14.0433 23.4677 16.4143 22.8902 17.6373C22.7799 17.8711 22.5742 18.1049 22.3029 18.1049C20.8267 18.1049 21.2036 15.1706 20.3726 14.3369C20.4485 14.2562 20.5213 14.1717 20.588 14.0867C21.1495 14.7457 20.8705 16.48 22.0698 16.48C22.3461 16.48 22.5551 16.238 22.6665 16.0019C22.9643 15.371 22.4132 14.2753 21.81 14.2753C21.804 14.2753 21.7174 14.2789 21.7193 14.3139C21.7416 14.7166 22.0583 14.4655 21.7393 15.1508C21.4134 15.0859 21.0682 14.5627 21.2464 14.1852C21.2989 14.0742 21.4301 14.0433 21.519 14.0433Z" fill="black"/>
<path d="M21.519 14.0433C22.8112 14.0433 23.4677 16.4143 22.8902 17.6373C22.7799 17.8711 22.5742 18.1049 22.3029 18.1049C20.8267 18.1049 21.2036 15.1706 20.3726 14.3369C20.4485 14.2562 20.5213 14.1717 20.588 14.0867C21.1495 14.7457 20.8705 16.48 22.0698 16.48C22.3461 16.48 22.5551 16.238 22.6665 16.0019C22.9643 15.371 22.4132 14.2753 21.81 14.2753C21.804 14.2753 21.7174 14.2789 21.7193 14.3139C21.7416 14.7166 22.0583 14.4655 21.7393 15.1508C21.4134 15.0859 21.0682 14.5627 21.2464 14.1852C21.2989 14.0742 21.4301 14.0433 21.519 14.0433Z" stroke="black" stroke-width="1.2" stroke-miterlimit="3.86369" stroke-linejoin="round"/>
<path fill-rule="evenodd" clip-rule="evenodd" d="M24.7317 14.0169C24.8533 14.0284 25.0362 14.0175 25.1406 14.0493C25.1602 14.0552 25.1454 14.0797 25.1487 14.099C25.1804 14.2782 25.2303 14.4482 25.2735 14.6213C25.4418 15.2959 25.5431 15.9884 25.7363 16.657C25.9465 17.385 26.1656 18.2053 25.9111 19.1188C25.8863 19.2082 25.853 19.2989 25.81 19.39C25.5215 20.0013 24.7797 20.5831 24.131 20.5831C24.0522 20.5831 23.9672 20.5609 23.9295 20.5096C24.2033 20.3356 24.3746 20.1571 24.4969 19.8981C24.6436 19.5874 24.6414 19.2965 24.6221 19.0288C24.674 19.0589 24.8401 19.1342 24.9093 19.1342C25.1898 19.1342 25.4308 18.8629 25.5433 18.6244C25.75 18.1864 25.7147 17.7394 25.6789 17.3664C25.6609 17.1797 25.6358 16.9955 25.601 16.8166L25.5483 16.5575L25.5416 16.5291L25.5352 16.5008C25.5665 16.5008 25.5384 16.5558 25.5396 16.5835C25.5589 17.0351 25.5508 17.6654 25.3082 18.1793C25.1954 18.4181 25.011 18.6643 24.728 18.6643C23.4874 18.6643 24.1114 15.1459 23.1172 14.3095C23.1723 14.2185 23.2215 14.1249 23.2627 14.0332C23.851 14.7437 23.8818 16.7024 24.7477 16.7024C24.9579 16.7024 25.1751 16.5055 25.2645 16.3162C25.6492 15.5013 25.0102 14.552 24.7317 14.0169Z" fill="black"/>
<path d="M24.7317 14.0169C24.8533 14.0284 25.0362 14.0175 25.1406 14.0493C25.1602 14.0552 25.1454 14.0797 25.1487 14.099C25.1804 14.2782 25.2303 14.4482 25.2735 14.6213C25.4418 15.2959 25.5431 15.9884 25.7363 16.657C25.9465 17.385 26.1656 18.2053 25.9111 19.1188C25.8863 19.2082 25.853 19.2989 25.81 19.39C25.5215 20.0013 24.7797 20.5831 24.131 20.5831C24.0522 20.5831 23.9672 20.5609 23.9295 20.5096C24.2033 20.3356 24.3746 20.1571 24.4969 19.8981C24.6436 19.5874 24.6414 19.2965 24.6221 19.0288C24.674 19.0589 24.8401 19.1342 24.9093 19.1342C25.1898 19.1342 25.4308 18.8629 25.5433 18.6244C25.75 18.1864 25.7147 17.7394 25.6789 17.3664C25.6609 17.1797 25.6358 16.9955 25.601 16.8166L25.5483 16.5575L25.5416 16.5291L25.5352 16.5008C25.5665 16.5008 25.5384 16.5558 25.5396 16.5835C25.5589 17.0351 25.5508 17.6654 25.3082 18.1793C25.1954 18.4181 25.011 18.6643 24.728 18.6643C23.4874 18.6643 24.1114 15.1459 23.1172 14.3095C23.1723 14.2185 23.2215 14.1249 23.2627 14.0332C23.851 14.7437 23.8818 16.7024 24.7477 16.7024C24.9579 16.7024 25.1751 16.5055 25.2645 16.3162C25.6492 15.5013 25.0102 14.552 24.7317 14.0169Z" stroke="black" stroke-width="1.2" stroke-miterlimit="3.86369" stroke-linejoin="round"/>
<path d="M9.45129 11.1427C10.3046 11.1427 9.80726 13.2749 9.50382 13.9178C9.24396 14.4683 8.65897 15.2621 7.96567 15.2621C7.13384 15.2621 7.15858 14.3305 7.4897 13.6291C7.66895 13.2494 7.94445 12.8237 8.324 12.5108C8.22685 12.8375 8.55525 13.0606 8.42243 13.342C8.33172 13.5342 8.14395 13.7442 8.04639 13.9509C7.88859 14.2851 7.94888 14.8782 8.3301 14.8782C8.67134 14.8782 8.97457 14.4555 9.09888 14.1922C9.35355 13.6526 9.99032 11.3507 9.27854 11.3507C8.45879 11.3507 7.04623 13.3483 6.75043 13.9749C6.22245 15.0933 6.60517 16.471 7.80817 16.471C8.62101 16.471 9.28959 15.6895 9.61253 15.0054C9.80491 14.5979 9.90966 14.1924 9.95091 13.8101L10.1087 13.7812C10.1436 14.8336 11.2569 16.5762 10.783 17.5802C10.1764 18.8651 8.36272 18.8536 7.32713 19.3097C7.10946 18.8005 6.81457 18.3271 6.39935 17.9658C7.3231 17.655 9.59309 17.1333 10.0867 16.0876C10.2941 15.6483 10.1529 14.9199 9.91322 14.673C9.87244 14.8283 9.81601 14.9866 9.74111 15.1452C9.31847 16.0405 8.41357 16.7348 7.48067 16.7348C6.18183 16.7348 5.6312 15.8015 6.24246 14.5064C6.60932 13.7293 8.48267 11.1427 9.45129 11.1427Z" fill="white"/>
<path d="M11.6703 14.2287C11.7219 14.3555 11.8711 15.0734 11.9844 15.0734C12.229 15.0734 12.6712 14.4077 12.7898 14.2349C13.0074 14.3774 12.8867 14.6765 13.2899 14.6765C13.4724 14.6765 13.5642 14.2833 13.7542 14.2769C13.7609 14.4358 13.7711 14.5796 13.6844 14.7632C13.5508 15.0463 13.2127 15.4299 12.8804 15.4299C12.6424 15.4299 12.3108 15.1433 12.2457 15.1433C12.175 15.1433 12.0451 15.1764 12.0037 15.2641C11.8307 15.6307 12.2933 16.8548 12.7573 16.8548C13.0052 16.8548 13.3011 16.6729 13.5604 16.5607C13.4929 17.0018 13.4835 17.3736 13.5728 17.7531C13.3365 17.9029 13.0597 17.966 12.8376 17.966C11.6974 17.966 12.3262 15.3145 11.2749 14.7496L11.6703 14.2287Z" fill="white"/>
<path fill-rule="evenodd" clip-rule="evenodd" d="M16.052 14.0162C16.9137 14.0162 17.2539 15.5662 16.8673 16.3852C16.5673 17.0206 16.0355 17.4812 15.3543 17.4812C14.1511 17.4812 14.3019 15.8411 14.7712 14.8467C14.9007 14.5728 15.3429 13.9757 15.6889 13.9757C15.816 13.9757 15.9213 14.0162 16.052 14.0162ZM16.0254 14.1609C15.8897 14.1609 15.7705 14.2279 15.7076 14.3614C15.5755 14.6411 16.234 14.9241 16.1395 15.1243C16.08 15.2503 15.8535 15.3682 15.7392 15.3682C15.1683 15.3682 15.1731 14.6253 15.5135 14.1411C15.3018 14.276 15.1631 14.4819 15.073 14.673C14.7384 15.3816 15.0039 16.3565 15.7675 16.3565C16.1894 16.3565 16.6754 15.9774 16.8642 15.5773C17.0966 15.0853 16.5024 14.1609 16.0254 14.1609Z" fill="white"/>
<path fill-rule="evenodd" clip-rule="evenodd" d="M19.9683 16.568C19.7431 17.045 19.3235 17.3068 18.8511 17.3068C17.3518 17.3068 17.0543 15.9396 17.704 14.5631C17.8575 14.2382 18.1093 13.8788 18.4938 13.8788C19.6983 13.8788 20.5375 15.3622 19.9683 16.568ZM18.772 14.0515C18.6614 14.0515 18.5644 14.0915 18.5114 14.2038C18.3947 14.451 19.0293 14.6714 19.0302 14.9268C18.9639 15.0053 18.7784 15.0931 18.6975 15.0931C18.2405 15.0931 17.8956 14.4736 18.2857 14.0132C18.1274 14.1137 18.0335 14.2642 17.9666 14.4057C17.5711 15.2436 18.1349 16.0908 18.9565 16.0908C19.2985 16.0908 19.7393 15.9004 19.9169 15.5241C20.1683 14.9915 19.2729 14.0515 18.772 14.0515Z" fill="white"/>
<path d="M21.519 14.0433C22.8112 14.0433 23.4677 16.4143 22.8902 17.6373C22.7799 17.8711 22.5742 18.1049 22.3029 18.1049C20.8267 18.1049 21.2036 15.1706 20.3726 14.3369C20.4485 14.2562 20.5213 14.1717 20.588 14.0867C21.1495 14.7457 20.8705 16.48 22.0698 16.48C22.3461 16.48 22.5551 16.238 22.6665 16.0019C22.9643 15.371 22.4132 14.2753 21.81 14.2753C21.804 14.2753 21.7174 14.2789 21.7193 14.3139C21.7416 14.7166 22.0583 14.4655 21.7393 15.1508C21.4134 15.0859 21.0682 14.5627 21.2464 14.1852C21.2989 14.0742 21.4301 14.0433 21.519 14.0433Z" fill="white"/>
<path fill-rule="evenodd" clip-rule="evenodd" d="M24.7319 14.0169C24.8536 14.0284 25.0365 14.0175 25.1409 14.0493C25.1605 14.0552 25.1456 14.0797 25.149 14.099C25.1807 14.2782 25.2306 14.4482 25.2737 14.6213C25.4421 15.2959 25.5434 15.9884 25.7366 16.657C25.9467 17.385 26.1659 18.2053 25.9114 19.1188C25.8865 19.2082 25.8532 19.2989 25.8102 19.39C24.8428 21.2483 22.7724 20.7474 22.1238 20.7474C22.045 20.7474 21.9599 20.7251 21.9224 20.6738C22.196 20.4998 22.3674 20.3214 22.4896 20.0623C22.6363 19.7517 22.6341 19.4608 22.6148 19.193C22.6667 19.2232 22.8329 19.2984 22.902 19.2984C23.1825 19.2984 24.7464 20.1019 25.5435 18.6244C25.7503 18.1864 25.7149 17.7394 25.6792 17.3665C25.6612 17.1798 25.636 16.9955 25.6013 16.8166L25.5485 16.5575L25.5419 16.5291L25.5354 16.5008C25.5668 16.5008 25.5387 16.5558 25.5398 16.5835C25.5591 17.0351 25.551 17.6655 25.3085 18.1794C25.1957 18.4181 25.0113 18.6643 24.7282 18.6643C23.4877 18.6643 24.1116 15.1459 23.1174 14.3095C23.1725 14.2185 23.2217 14.1249 23.2629 14.0332C23.8513 14.7437 23.8821 16.7025 24.748 16.7025C24.9581 16.7025 25.1754 16.5055 25.2647 16.3162C25.6494 15.5013 25.0104 14.552 24.7319 14.0169Z" fill="white"/>
</g>
<defs>
<clipPath id="clip0_14114_81626">
<rect width="32" height="15.9563" fill="white" transform="translate(0 8)"/>
</clipPath>
</defs>
</svg>
