<svg width="32" height="32" viewBox="0 0 32 32" fill="none" xmlns="http://www.w3.org/2000/svg">
<g clip-path="url(#clip0_14113_71097)">
<path fill-rule="evenodd" clip-rule="evenodd" d="M21.4199 30.71C20.8899 30.71 20.3799 30.59 19.9499 30.36C19.3899 30.06 18.9999 29.59 18.8199 29.01C18.4099 28.83 17.3299 28.43 15.8899 28.43C14.8399 28.43 14.3099 28.54 14.0499 28.61C13.7399 29.53 12.9099 30.28 11.9699 30.45C11.7799 30.49 11.5799 30.5 11.3899 30.5C10.5799 30.5 9.84992 30.21 9.13992 29.94C8.65992 29.75 8.20992 29.58 7.75992 29.49C6.82992 29.32 5.83992 29.12 4.87992 28.78C4.48992 28.65 4.01992 28.44 3.77992 28.01C3.62992 27.74 3.54992 27.47 3.55992 27.19C3.55992 26.89 3.64992 26.6 3.72992 26.33C3.76992 26.21 3.79992 26.09 3.82992 25.97C3.90992 25.63 3.87992 25.18 3.83992 24.75C3.78992 24.13 3.73992 23.48 4.00992 22.96C4.31992 22.3 5.13992 22.14 5.48992 22.08C5.89992 22 6.31992 21.92 6.43992 21.78C6.57992 21.63 6.69992 21.44 6.81992 21.24C6.93992 21.04 7.06992 20.83 7.22992 20.64C7.22992 20.11 7.23992 19.67 7.28992 19.33C7.37992 18.71 7.63992 17.73 7.96992 17.05C8.48992 15.97 9.42992 14.65 10.1199 13.68L10.3599 13.35C10.8099 12.72 11.1299 12.27 11.4399 11.53C11.7699 10.73 11.8299 10.54 11.8799 9.93C11.9399 9.26 11.9199 9.03 11.8999 8.61C11.8699 8.15 11.8299 7.46 11.8599 5.76C11.8699 4.98 12.0399 4.28 12.3399 3.66C13.2199 1.87 15.0699 1.33 15.6999 1.27C15.8099 1.27 15.9699 1.25 16.1499 1.25C16.7699 1.25 17.9499 1.35 18.8399 2.04C20.1399 3.05 20.7299 4.58 20.6699 6.84C20.6899 8.4 20.7499 9.39 20.8599 9.76L20.9299 9.99C21.0499 10.41 21.2299 10.98 21.4299 11.39C21.5999 11.73 21.9599 12.23 22.3399 12.75C22.5099 12.98 22.6799 13.22 22.8399 13.45C22.9499 13.61 23.0799 13.78 23.2099 13.97C24.0899 15.19 25.2999 16.85 25.5099 19.07C25.5699 19.7 25.5099 20.21 25.3899 20.79C25.6299 20.88 25.8799 21.03 26.0899 21.33C26.3399 21.69 26.3999 22.05 26.4599 22.44C26.4799 22.54 26.4899 22.65 26.5099 22.77C26.5699 23.11 26.8099 23.37 27.2099 23.72L27.3499 23.84C27.8699 24.29 28.4099 24.75 28.4599 25.39C28.4699 25.62 28.4299 25.85 28.3199 26.06C28.0899 26.54 27.5899 26.88 27.1899 27.15C27.1899 27.15 26.5299 27.6 26.2599 27.78C25.3299 28.41 24.4499 29 23.6499 29.73C23.2599 30.09 22.7899 30.52 21.9399 30.65C21.7599 30.68 21.5899 30.69 21.4199 30.69V30.71Z" fill="white"/>
<path fill-rule="evenodd" clip-rule="evenodd" d="M12.7901 3.89C12.5401 4.39 12.3701 5.01 12.3601 5.77C12.3001 8.99 12.5001 8.49 12.3801 9.97C12.3201 10.65 12.2501 10.9 11.9101 11.72C11.5401 12.61 11.1401 13.12 10.5901 13.9C9.90006 14.87 8.96006 16.2 8.44006 17.26C8.14006 17.86 7.90006 18.79 7.80006 19.4C7.74006 19.81 7.73006 20.34 7.75006 20.83C7.39006 21.15 7.20006 21.69 6.82006 22.1C6.58006 22.37 6.11006 22.45 5.59006 22.55C5.19006 22.63 4.65006 22.77 4.46006 23.17C4.09006 23.9 4.54006 25.15 4.32006 26.08C4.23006 26.47 4.06006 26.84 4.06006 27.18C4.06006 27.36 4.10006 27.54 4.22006 27.75C4.35006 27.98 4.64006 28.15 5.05006 28.29C5.96006 28.61 6.91006 28.81 7.85006 28.98C9.19006 29.22 10.4601 30.2 11.8801 29.94C12.7101 29.79 13.4501 29.04 13.6301 28.22C13.8601 28.1 14.4401 27.93 15.8001 27.91C17.8601 27.89 19.2301 28.64 19.2301 28.64V28.62C19.3301 29.19 19.6701 29.63 20.1701 29.9C20.6001 30.13 21.1901 30.26 21.8501 30.16C22.5401 30.06 22.9101 29.72 23.2901 29.37C24.3601 28.39 25.5901 27.63 26.7701 26.81C27.1401 26.55 27.6601 26.23 27.8601 25.82C27.9301 25.69 27.9601 25.55 27.9501 25.41C27.9201 24.94 27.3701 24.51 26.8801 24.09C26.4901 23.75 26.1201 23.38 26.0201 22.86C25.9201 22.34 25.9301 21.96 25.6801 21.62C25.4401 21.29 25.1601 21.22 24.7801 21.16C25.0001 20.33 25.0801 19.81 25.0101 19.12C24.7801 16.7 23.2601 14.94 22.4201 13.74C21.8801 12.96 21.2501 12.15 20.9801 11.62C20.7101 11.09 20.5101 10.34 20.3701 9.91C20.2401 9.48 20.1701 8.47 20.1501 6.83C20.2101 4.32 19.4401 3.16 18.5101 2.43C17.5801 1.71 16.2101 1.72 15.7201 1.76C15.3101 1.8 13.5701 2.22 12.7601 3.87L12.7901 3.89Z" fill="#191919"/>
<mask id="mask0_14113_71097" style="mask-type:luminance" maskUnits="userSpaceOnUse" x="0" y="0" width="32" height="32">
<path d="M32 0H0V32H32V0Z" fill="white"/>
</mask>
<g mask="url(#mask0_14113_71097)">
<path fill-rule="evenodd" clip-rule="evenodd" d="M12.7798 3.87C12.5298 4.37 12.3598 4.99 12.3498 5.75C12.2898 8.97 12.4898 8.47 12.3698 9.95C12.3098 10.63 12.2398 10.88 11.8998 11.7C11.5298 12.59 11.1298 13.1 10.5798 13.88C9.8898 14.85 8.9498 16.18 8.4298 17.24C8.1298 17.84 7.8898 18.77 7.7898 19.38C7.7298 19.79 7.7198 20.32 7.7398 20.81C7.3798 21.13 7.1898 21.67 6.8098 22.08C6.5698 22.35 6.0998 22.43 5.5798 22.53C5.1798 22.61 4.6398 22.75 4.4498 23.15C4.0798 23.88 4.5298 25.13 4.3098 26.06C4.2198 26.45 4.0498 26.82 4.0498 27.16C4.0498 27.34 4.0898 27.52 4.2098 27.73C4.3398 27.96 4.6298 28.13 5.0398 28.27C5.9498 28.59 6.8998 28.79 7.8398 28.96C9.1798 29.2 10.4498 30.18 11.8698 29.92C12.6998 29.77 13.4398 29.02 13.6198 28.2C13.8498 28.08 14.4298 27.91 15.7898 27.89C17.8498 27.87 19.2198 28.62 19.2198 28.62V28.6C19.3198 29.17 19.6598 29.61 20.1598 29.88C20.5898 30.11 21.1798 30.24 21.8398 30.14C22.5298 30.04 22.8998 29.7 23.2798 29.35C24.3498 28.37 25.5798 27.61 26.7598 26.79C27.1298 26.53 27.6498 26.21 27.8498 25.8C27.9198 25.67 27.9498 25.53 27.9398 25.39C27.9098 24.92 27.3598 24.49 26.8698 24.07C26.4798 23.73 26.1098 23.36 26.0098 22.84C25.9098 22.32 25.9198 21.94 25.6698 21.6C25.4298 21.27 25.1498 21.2 24.7698 21.14C24.9898 20.31 25.0698 19.79 24.9998 19.1C24.7698 16.68 23.2498 14.92 22.4098 13.72C21.8698 12.94 21.2398 12.13 20.9698 11.6C20.6998 11.07 20.4998 10.32 20.3598 9.89C20.2298 9.46 20.1598 8.45 20.1398 6.81C20.1998 4.3 19.4298 3.14 18.4998 2.41C17.5698 1.69 16.1998 1.7 15.7098 1.74C15.2998 1.78 13.5598 2.2 12.7498 3.85L12.7798 3.87Z" fill="#191919"/>
<path fill-rule="evenodd" clip-rule="evenodd" d="M5.87988 22.76C6.14988 22.7 6.41988 22.65 6.59988 22.56C7.06988 22.33 7.24988 21.99 7.40988 21.67C7.59988 21.31 7.76988 20.98 8.33988 20.88C8.68988 20.82 9.10988 21.01 9.61988 21.78C9.93988 22.26 10.2899 22.76 10.6499 23.29C11.1299 23.98 11.6299 24.71 12.1199 25.46C12.3099 25.75 12.4999 25.96 12.6799 26.17C12.9499 26.47 13.1799 26.74 13.3299 27.15C13.3999 27.35 13.4299 27.69 13.4199 28.01C13.3899 28.56 12.8699 29.13 12.5499 29.38C11.6899 30.06 10.3699 29.6 9.42988 29.23C8.41988 28.83 8.27988 28.8 7.88988 28.74C7.69988 28.71 7.43988 28.66 6.98988 28.55C6.83988 28.51 6.69988 28.48 6.55988 28.45C5.42988 28.18 4.61988 27.99 4.40988 27.63C4.17988 27.23 4.22988 27.06 4.38988 26.6C4.58988 26.04 4.58988 25.52 4.58988 25.05C4.58988 24.86 4.56988 24.67 4.55988 24.49C4.51988 24.05 4.47988 23.65 4.69988 23.28C4.86988 22.98 5.38988 22.87 5.86988 22.77L5.87988 22.76ZM19.9099 22.99C19.9099 22.44 19.9099 21.72 20.2999 21.44C20.5299 21.29 20.8599 21.35 21.1999 21.41C21.3099 21.43 21.4299 21.45 21.5399 21.46C22.3199 21.57 22.5299 21.55 22.7199 21.54C22.8399 21.54 22.9499 21.53 23.1899 21.55C23.4199 21.57 23.5999 21.52 23.7999 21.47C24.0899 21.39 24.4199 21.3 24.9999 21.42C25.1799 21.46 25.2999 21.55 25.4499 21.72C25.6499 21.92 25.6899 22.18 25.7399 22.49C25.8199 22.97 25.9099 23.57 26.6499 24.19C27.1199 24.58 27.5499 25.01 27.6699 25.29C27.7899 25.57 27.6699 25.75 27.5099 25.96C27.3399 26.17 26.1599 26.95 25.4199 27.43C24.9099 27.76 24.4699 28.11 24.0699 28.43C23.8999 28.57 23.7299 28.7 23.5599 28.83C23.4099 28.94 23.2799 29.06 23.1499 29.18C22.7899 29.51 22.4499 29.82 21.8199 29.91C20.9599 30.04 20.2699 29.76 19.8699 29.39C19.4799 29.02 19.4299 28.65 19.3799 28.01C19.3499 27.63 19.4899 26.99 19.6299 26.41C19.7199 26.02 19.7999 25.65 19.8199 25.41C19.8299 25.23 19.8399 24.93 19.8499 24.56C19.8599 24.18 19.8699 23.73 19.8899 23.31C19.8899 23.21 19.8899 23.09 19.8899 22.97L19.9099 22.99Z" fill="#FCC624"/>
<path fill-rule="evenodd" clip-rule="evenodd" d="M12.3397 13.64C11.8997 14.6 11.9297 14.28 11.6297 15.28C11.2197 15.65 10.7797 16.65 10.4897 17.52C10.1197 18.77 9.82972 20.06 10.1797 21.56C10.3197 21.71 10.4297 21.86 10.5597 21.98C10.7597 22.17 10.9797 22.33 11.2397 22.53C12.1697 23.25 12.8297 23.63 12.9597 24.09C13.1297 24.71 12.7497 25.12 12.2697 25.38C12.6197 25.73 13.7397 26.46 15.7797 26.37C17.5797 26.29 18.6997 25.6 19.6597 24.42C19.6597 24.15 19.6997 23.69 19.7097 23.2C19.7197 22.73 19.7297 22.26 19.7997 21.89C19.8197 21.8 19.8497 21.72 19.8797 21.65C19.9997 21.36 20.3097 21.16 20.6097 21.14C20.7697 21.14 20.9397 21.12 21.0997 21.15C21.3397 19.22 21.1497 17.89 20.1897 15.85C20.1197 15.71 19.7597 15.1 19.5497 14.93C19.3797 14.11 19.3597 14.15 19.0297 13.39C18.5297 12.25 18.3397 10.92 18.1897 10.15C18.0797 10.21 17.8997 10.28 17.6197 10.5C16.9697 11.01 16.2497 11.72 15.3597 11.74C14.5897 11.78 14.2197 11.59 13.8697 11.22C13.6097 10.95 13.4197 10.61 13.1097 10.39C13.1097 10.49 12.7797 12.67 12.3497 13.63L12.3397 13.64ZM15.7997 7.89C15.7797 7.68 15.7697 7.28 15.9197 6.79C16.1497 6.03 16.9697 5.52 17.6597 5.88C18.3597 6.24 18.4797 7.17 18.3197 7.69C18.2197 8.01 17.9697 8.39 17.7897 8.62C17.6497 8.56 17.4697 8.5 17.2497 8.42C17.3797 8.35 17.4897 8.23 17.5697 8.08C17.7997 7.66 17.7197 7.1 17.3897 6.85C17.0597 6.59 16.6097 6.73 16.3797 7.15C16.2197 7.45 16.2097 7.8 16.3297 8.08C16.1297 8 15.9597 7.94 15.7997 7.89ZM13.2497 6.07C13.8997 5.84 14.2897 6.39 14.4497 7.18C14.4997 7.42 14.4997 7.67 14.4697 7.89C14.3797 7.92 14.2797 7.97 14.1697 8.03C14.1797 7.98 14.1897 7.92 14.1997 7.87C14.2497 7.43 14.0497 6.97 13.7397 6.85C13.4297 6.73 13.1397 6.99 13.0897 7.43C13.0397 7.85 13.2297 8.29 13.5097 8.43C13.4297 8.49 13.3397 8.55 13.2597 8.61C13.0297 8.39 12.8797 8.03 12.7997 7.66C12.6397 6.98 12.8097 6.23 13.2497 6.07Z" fill="#F5F5F5"/>
<path d="M13.0597 10.16C13.0597 10.16 13.0597 10.13 13.0397 10.11L13.3597 10.3C13.6697 10.48 13.8397 10.56 14.1197 10.66C14.4197 10.76 14.7097 10.8 15.0497 10.78C15.4197 10.76 15.9797 10.58 16.2997 10.43C16.6197 10.28 17.1097 9.96 17.5497 9.63C17.6397 9.56 17.8897 9.46 17.8897 9.41C17.8897 9.34 17.6897 9.32 17.6197 9.35C17.5497 9.39 17.4297 9.5 17.3697 9.55C16.9697 9.86 16.5597 10.12 16.2197 10.28C15.8897 10.44 15.4297 10.57 15.0097 10.6C14.4897 10.63 13.9097 10.47 13.3997 10.17C13.0897 9.98 12.7697 9.82 12.7697 9.82C12.6497 9.66 12.7697 9.38 12.8597 9.25C12.9997 9.02 13.2397 8.8 13.4797 8.63C13.4797 8.63 14.1897 8.17 14.4697 8.05C14.7397 7.93 14.8697 7.94 15.0297 7.93C15.4897 7.91 15.8297 8.04 16.3297 8.24L18.0397 8.91C18.1897 9.01 18.2397 9.1 18.2697 9.24C18.2997 9.42 18.2497 9.81 18.1297 9.96C18.0197 10.1 17.9097 10.08 17.5397 10.36C17.3197 10.53 16.9297 10.87 16.6497 11.06C16.0597 11.45 15.5297 11.65 14.8297 11.56C14.4697 11.51 14.2197 11.39 13.9597 11.14C13.8197 11.01 13.6597 10.79 13.4997 10.6C13.3497 10.43 13.1897 10.29 13.0397 10.15L13.0597 10.16Z" fill="#FCC624"/>
<path fill-rule="evenodd" clip-rule="evenodd" d="M24.2599 21.29C24.2599 21.29 24.3099 21.13 24.3099 21.1C24.3699 20.45 23.1299 20.31 22.1599 20.34C21.7199 20.35 21.3799 20.41 21.1699 20.47C20.8099 20.58 20.6399 20.82 20.5999 21.13C20.5199 21.75 20.6999 23.06 21.3099 23.34C21.9399 23.64 22.8899 23.21 23.4499 22.58C23.8299 22.15 24.0699 21.65 24.2599 21.29Z" fill="#191919"/>
</g>
</g>
<defs>
<clipPath id="clip0_14113_71097">
<rect width="32" height="32" fill="white"/>
</clipPath>
</defs>
</svg>
