<svg width="32" height="32" viewBox="0 0 32 32" fill="none" xmlns="http://www.w3.org/2000/svg">
<path d="M26.0079 5.83944C23.4561 2.16391 18.376 1.08701 14.7238 3.4047L8.2858 7.52504C6.52998 8.62535 5.3126 10.428 4.96144 12.4648C4.6571 14.1738 4.91462 15.9296 5.734 17.4513C5.17214 18.2941 4.79756 19.2305 4.63368 20.2138C4.25911 22.2974 4.75074 24.4512 5.96811 26.1602C8.54332 29.8357 13.6001 30.9126 17.2522 28.595L23.6903 24.498C25.4461 23.3977 26.6635 21.5951 27.0146 19.5583C27.319 17.8493 27.0614 16.0935 26.2421 14.5718C26.8039 13.729 27.1785 12.7925 27.3424 11.8093C27.7404 9.70226 27.2487 7.54845 26.0079 5.83944Z" fill="#FF3E00"/>
<path d="M14.0916 26.5116C12.008 27.0501 9.83079 26.2307 8.61342 24.4749C7.86426 23.4448 7.58333 22.1572 7.79403 20.893C7.84085 20.6823 7.88768 20.495 7.9345 20.2843L8.05155 19.9097L8.37931 20.1438C9.15187 20.7057 9.99467 21.1271 10.9077 21.408L11.1418 21.4783L11.1184 21.7124C11.095 22.0401 11.1886 22.3913 11.3759 22.6722C11.7505 23.2107 12.406 23.4682 13.0381 23.3043C13.1786 23.2575 13.319 23.2107 13.4361 23.1404L19.8507 19.0435C20.1785 18.8328 20.3892 18.5285 20.4594 18.1539C20.5296 17.7793 20.436 17.3813 20.2253 17.077C19.8507 16.5385 19.1952 16.3044 18.5631 16.4683C18.4226 16.5151 18.2822 16.562 18.1651 16.6322L15.707 18.2007C15.309 18.4582 14.8642 18.6455 14.3959 18.7626C12.3124 19.301 10.1351 18.4817 8.91776 16.7258C8.19202 15.6957 7.88768 14.4081 8.12179 13.1439C8.33248 11.9266 9.08164 10.8263 10.1351 10.1707L16.5732 6.07382C16.9712 5.8163 17.416 5.62901 17.8842 5.48854C19.9678 4.95009 22.145 5.76947 23.3624 7.5253C24.1115 8.55538 24.3924 9.84299 24.1817 11.1072C24.1349 11.3179 24.0881 11.5052 24.0179 11.7159L23.9008 12.0904L23.5731 11.8563C22.8005 11.2945 21.9577 10.8731 21.0447 10.5921L20.8106 10.5219L20.834 10.2878C20.8574 9.96004 20.7637 9.60888 20.5764 9.32795C20.2019 8.78949 19.5464 8.55538 18.9143 8.71926C18.7738 8.76608 18.6333 8.81291 18.5163 8.88314L12.1017 12.9801C11.7739 13.1908 11.5632 13.4951 11.493 13.8697C11.4227 14.2443 11.5164 14.6422 11.7271 14.9466C12.1017 15.485 12.7572 15.7192 13.3893 15.5553C13.5297 15.5085 13.6702 15.4616 13.7873 15.3914L16.2454 13.8229C16.6434 13.5653 17.0882 13.3781 17.5564 13.2376C19.64 12.6991 21.8172 13.5185 23.0346 15.2743C23.7838 16.3044 24.0647 17.592 23.854 18.8562C23.6433 20.0736 22.8941 21.1739 21.8406 21.8294L15.4026 25.9264C15.0046 26.1839 14.5598 26.3712 14.0916 26.5116Z" fill="white"/>
</svg>
