<svg width="32" height="32" viewBox="0 0 32 32" fill="none" xmlns="http://www.w3.org/2000/svg">
<path d="M29.3212 15.7567C29.3672 12.916 28.7272 9.53801 27.3938 5.57468L26.3485 2.46667L24.9285 5.42201C24.8525 5.58001 24.7658 5.73468 24.6752 5.88734C22.3425 3.88468 19.3158 2.66667 15.9998 2.66667C8.63584 2.66667 2.6665 8.63601 2.6665 16C2.6665 23.364 8.63584 29.3333 15.9998 29.3333C23.3638 29.3333 29.3332 23.364 29.3332 16C29.3332 15.918 29.3225 15.8387 29.3212 15.7567Z" fill="#8BC34A"/>
<path d="M26.2565 21.7053C24.1745 24.5733 20.4892 24.7273 17.0205 24.6667H12.4999H11.2079C14.1599 23.6047 15.9165 23.352 17.7106 22.4C21.0892 20.6233 24.4292 16.736 25.1245 12.692C23.8379 16.5827 19.9385 19.9253 16.3852 21.2847C13.9505 22.2133 9.55322 23.1147 9.55322 23.1147L9.37522 23.018C6.38188 21.512 6.29122 14.8093 11.7332 12.6453C14.1159 11.6967 16.3952 12.218 18.9692 11.5833C21.7172 10.9087 24.8959 8.778 26.1892 6C27.6372 10.4447 29.3799 17.404 26.2565 21.7053ZM10.4452 25.63C10.2572 25.8633 9.96988 26 9.66988 26C9.12122 26 8.67322 25.5487 8.67322 25C8.67322 24.4513 9.12455 24 9.66988 24C9.89722 24 10.1212 24.0787 10.2972 24.224C10.7239 24.57 10.7906 25.2033 10.4452 25.63Z" fill="white"/>
</svg>
