<svg width="32" height="32" viewBox="0 0 32 32" fill="none" xmlns="http://www.w3.org/2000/svg">
<path d="M13.7546 12.1698H17.1886C19.3018 12.1698 19.3018 14.283 17.1886 14.283H13.7546V12.1698ZM5.56592 21.9434H16.132V19.0377H13.7546V16.9245H16.3961C19.3018 16.9245 17.7169 21.9434 20.0942 21.9434H26.698V16.9245H25.1131V17.4528C25.1131 19.566 22.7357 19.3019 22.4716 17.9811C22.2074 16.6604 21.1508 15.6038 20.8867 15.6038C24.8489 13.4906 22.4716 9.26415 19.3018 9.26415H6.88667V12.1698H9.52818V19.0377H5.56592V21.9434Z" fill="#D1D1D1" stroke="#D1D1D1" stroke-width="0.264151" stroke-linejoin="round"/>
<path d="M16.0001 27.3585C22.2732 27.3585 27.3586 22.2731 27.3586 16C27.3586 9.72688 22.2732 4.64151 16.0001 4.64151C9.72697 4.64151 4.6416 9.72688 4.6416 16C4.6416 22.2731 9.72697 27.3585 16.0001 27.3585Z" stroke="#D1D1D1" stroke-width="2.37736"/>
<path d="M28.1509 16.7925L29.4716 16L28.1509 15.2076V16.7925Z" fill="#D1D1D1" stroke="#D1D1D1" stroke-width="0.792453" stroke-linejoin="round"/>
<path d="M27.7631 19.1478L29.213 18.6282L28.0723 17.5933L27.7631 19.1478Z" fill="#D1D1D1" stroke="#D1D1D1" stroke-width="0.792453" stroke-linejoin="round"/>
<path d="M26.9228 21.3821L28.4463 21.1554L27.5293 19.9178L26.9228 21.3821Z" fill="#D1D1D1" stroke="#D1D1D1" stroke-width="0.792453" stroke-linejoin="round"/>
<path d="M25.6629 23.4096L27.2014 23.4845L26.5435 22.0918L25.6629 23.4096Z" fill="#D1D1D1" stroke="#D1D1D1" stroke-width="0.792453" stroke-linejoin="round"/>
<path d="M24.0316 25.1524L25.5259 25.5259L25.1523 24.0317L24.0316 25.1524Z" fill="#D1D1D1" stroke="#D1D1D1" stroke-width="0.792453" stroke-linejoin="round"/>
<path d="M22.0919 26.5434L23.4845 27.2013L23.4097 25.6629L22.0919 26.5434Z" fill="#D1D1D1" stroke="#D1D1D1" stroke-width="0.792453" stroke-linejoin="round"/>
<path d="M19.9181 27.5293L21.1556 28.4462L21.3823 26.9228L19.9181 27.5293Z" fill="#D1D1D1" stroke="#D1D1D1" stroke-width="0.792453" stroke-linejoin="round"/>
<path d="M17.5935 28.0721L18.6284 29.2128L19.1479 27.7629L17.5935 28.0721Z" fill="#D1D1D1" stroke="#D1D1D1" stroke-width="0.792453" stroke-linejoin="round"/>
<path d="M15.2076 28.1509L16 29.4717L16.7925 28.1509H15.2076Z" fill="#D1D1D1" stroke="#D1D1D1" stroke-width="0.792453" stroke-linejoin="round"/>
<path d="M12.8523 27.7629L13.3718 29.2128L14.4067 28.0721L12.8523 27.7629Z" fill="#D1D1D1" stroke="#D1D1D1" stroke-width="0.792453" stroke-linejoin="round"/>
<path d="M10.6178 26.9227L10.8445 28.4462L12.082 27.5293L10.6178 26.9227Z" fill="#D1D1D1" stroke="#D1D1D1" stroke-width="0.792453" stroke-linejoin="round"/>
<path d="M8.5904 25.6629L8.51553 27.2013L9.9082 26.5434L8.5904 25.6629Z" fill="#D1D1D1" stroke="#D1D1D1" stroke-width="0.792453" stroke-linejoin="round"/>
<path d="M6.84756 24.0317L6.474 25.5259L7.96826 25.1524L6.84756 24.0317Z" fill="#D1D1D1" stroke="#D1D1D1" stroke-width="0.792453" stroke-linejoin="round"/>
<path d="M5.45639 22.0918L4.79848 23.4845L6.33691 23.4096L5.45639 22.0918Z" fill="#D1D1D1" stroke="#D1D1D1" stroke-width="0.792453" stroke-linejoin="round"/>
<path d="M4.47063 19.9178L3.55367 21.1554L5.07715 21.3821L4.47063 19.9178Z" fill="#D1D1D1" stroke="#D1D1D1" stroke-width="0.792453" stroke-linejoin="round"/>
<path d="M3.9281 17.5933L2.78733 18.6282L4.2373 19.1478L3.9281 17.5933Z" fill="#D1D1D1" stroke="#D1D1D1" stroke-width="0.792453" stroke-linejoin="round"/>
<path d="M3.84912 15.2076L2.52837 16L3.84912 16.7925V15.2076Z" fill="#D1D1D1" stroke="#D1D1D1" stroke-width="0.792453" stroke-linejoin="round"/>
<path d="M4.23693 12.8522L2.78696 13.3718L3.92773 14.4067L4.23693 12.8522Z" fill="#D1D1D1" stroke="#D1D1D1" stroke-width="0.792453" stroke-linejoin="round"/>
<path d="M5.07722 10.6179L3.55374 10.8446L4.4707 12.0822L5.07722 10.6179Z" fill="#D1D1D1" stroke="#D1D1D1" stroke-width="0.792453" stroke-linejoin="round"/>
<path d="M6.33707 8.5904L4.79864 8.51553L5.45654 9.9082L6.33707 8.5904Z" fill="#D1D1D1" stroke="#D1D1D1" stroke-width="0.792453" stroke-linejoin="round"/>
<path d="M7.96835 6.84764L6.47409 6.47407L6.84766 7.96834L7.96835 6.84764Z" fill="#D1D1D1" stroke="#D1D1D1" stroke-width="0.792453" stroke-linejoin="round"/>
<path d="M9.90813 5.4566L8.51546 4.7987L8.59033 6.33713L9.90813 5.4566Z" fill="#D1D1D1" stroke="#D1D1D1" stroke-width="0.792453" stroke-linejoin="round"/>
<path d="M12.0824 4.47074L10.8449 3.55378L10.6182 5.07726L12.0824 4.47074Z" fill="#D1D1D1" stroke="#D1D1D1" stroke-width="0.792453" stroke-linejoin="round"/>
<path d="M14.4065 3.92794L13.3716 2.78716L12.8521 4.23714L14.4065 3.92794Z" fill="#D1D1D1" stroke="#D1D1D1" stroke-width="0.792453" stroke-linejoin="round"/>
<path d="M16.7924 3.84906L16 2.52831L15.2075 3.84906L16.7924 3.84906Z" fill="#D1D1D1" stroke="#D1D1D1" stroke-width="0.792453" stroke-linejoin="round"/>
<path d="M19.1477 4.23714L18.6282 2.78716L17.5933 3.92794L19.1477 4.23714Z" fill="#D1D1D1" stroke="#D1D1D1" stroke-width="0.792453" stroke-linejoin="round"/>
<path d="M21.3822 5.07725L21.1555 3.55377L19.918 4.47073L21.3822 5.07725Z" fill="#D1D1D1" stroke="#D1D1D1" stroke-width="0.792453" stroke-linejoin="round"/>
<path d="M23.4096 6.33712L23.4845 4.79869L22.0918 5.4566L23.4096 6.33712Z" fill="#D1D1D1" stroke="#D1D1D1" stroke-width="0.792453" stroke-linejoin="round"/>
<path d="M25.1524 7.96834L25.526 6.47408L24.0317 6.84764L25.1524 7.96834Z" fill="#D1D1D1" stroke="#D1D1D1" stroke-width="0.792453" stroke-linejoin="round"/>
<path d="M26.5436 9.9082L27.2015 8.51553L25.6631 8.5904L26.5436 9.9082Z" fill="#D1D1D1" stroke="#D1D1D1" stroke-width="0.792453" stroke-linejoin="round"/>
<path d="M27.5294 12.0822L28.4463 10.8446L26.9229 10.6179L27.5294 12.0822Z" fill="#D1D1D1" stroke="#D1D1D1" stroke-width="0.792453" stroke-linejoin="round"/>
<path d="M28.0719 14.4067L29.2127 13.3718L27.7627 12.8522L28.0719 14.4067Z" fill="#D1D1D1" stroke="#D1D1D1" stroke-width="0.792453" stroke-linejoin="round"/>
<path d="M14.1509 4.90566L15.9999 6.75472L17.849 4.90566H14.1509Z" fill="#D1D1D1" stroke="#D1D1D1" stroke-width="1.58491" stroke-linejoin="round"/>
<path d="M25.98 10.8131L24.7928 13.1431L27.1228 14.3302L25.98 10.8131Z" fill="#D1D1D1" stroke="#D1D1D1" stroke-width="1.58491" stroke-linejoin="round"/>
<path d="M24.0171 23.8887L21.4343 23.4796L21.0253 26.0624L24.0171 23.8887Z" fill="#D1D1D1" stroke="#D1D1D1" stroke-width="1.58491" stroke-linejoin="round"/>
<path d="M10.9751 26.0624L10.566 23.4796L7.98326 23.8887L10.9751 26.0624Z" fill="#D1D1D1" stroke="#D1D1D1" stroke-width="1.58491" stroke-linejoin="round"/>
<path d="M4.87744 14.3302L7.20739 13.143L6.02022 10.8131L4.87744 14.3302Z" fill="#D1D1D1" stroke="#D1D1D1" stroke-width="1.58491" stroke-linejoin="round"/>
</svg>
