<svg width="32" height="32" viewBox="0 0 32 32" fill="none" xmlns="http://www.w3.org/2000/svg">
<path d="M26.0079 5.83944C23.4561 2.16391 18.376 1.08701 14.7238 3.4047L8.2858 7.52504C6.52998 8.62535 5.3126 10.428 4.96144 12.4648C4.6571 14.1738 4.91462 15.9296 5.734 17.4513C5.17214 18.2941 4.79756 19.2305 4.63368 20.2138C4.25911 22.2974 4.75074 24.4512 5.96811 26.1602C8.54332 29.8357 13.6001 30.9126 17.2522 28.595L23.6903 24.498C25.4461 23.3977 26.6635 21.5951 27.0146 19.5583C27.319 17.8493 27.0614 16.0935 26.2421 14.5718C26.8039 13.729 27.1785 12.7925 27.3424 11.8093C27.7404 9.70226 27.2487 7.54845 26.0079 5.83944Z" fill="#FF3E00"/>
<path d="M14.0921 26.5116C12.0085 27.0501 9.83128 26.2307 8.61391 24.4749C7.86475 23.4448 7.58382 22.1572 7.79452 20.893C7.84134 20.6823 7.88816 20.495 7.93499 20.2843L8.05204 19.9097L8.37979 20.1438C9.15236 20.7057 9.99516 21.1271 10.9082 21.408L11.1423 21.4783L11.1189 21.7124C11.0955 22.0401 11.1891 22.3913 11.3764 22.6722C11.751 23.2107 12.4065 23.4682 13.0386 23.3043C13.1791 23.2575 13.3195 23.2107 13.4366 23.1404L19.8512 19.0435C20.1789 18.8328 20.3896 18.5285 20.4599 18.1539C20.5301 17.7793 20.4365 17.3813 20.2258 17.077C19.8512 16.5385 19.1957 16.3044 18.5636 16.4683C18.4231 16.5151 18.2827 16.562 18.1656 16.6322L15.7074 18.2007C15.3095 18.4582 14.8646 18.6455 14.3964 18.7626C12.3128 19.301 10.1356 18.4817 8.91825 16.7258C8.19251 15.6957 7.88816 14.4081 8.12227 13.1439C8.33297 11.9266 9.08213 10.8263 10.1356 10.1707L16.5737 6.07382C16.9716 5.8163 17.4164 5.62901 17.8847 5.48854C19.9682 4.95009 22.1455 5.76947 23.3628 7.5253C24.112 8.55538 24.3929 9.84299 24.1822 11.1072C24.1354 11.3179 24.0886 11.5052 24.0184 11.7159L23.9013 12.0904L23.5735 11.8563C22.801 11.2945 21.9582 10.8731 21.0452 10.5921L20.811 10.5219L20.8345 10.2878C20.8579 9.96004 20.7642 9.60888 20.5769 9.32795C20.2024 8.78949 19.5469 8.55538 18.9148 8.71926C18.7743 8.76608 18.6338 8.81291 18.5168 8.88314L12.1021 12.9801C11.7744 13.1908 11.5637 13.4951 11.4935 13.8697C11.4232 14.2443 11.5169 14.6422 11.7276 14.9466C12.1021 15.485 12.7577 15.7192 13.3898 15.5553C13.5302 15.5085 13.6707 15.4616 13.7877 15.3914L16.2459 13.8229C16.6439 13.5653 17.0887 13.3781 17.5569 13.2376C19.6405 12.6991 21.8177 13.5185 23.0351 15.2743C23.7842 16.3044 24.0652 17.592 23.8545 18.8562C23.6438 20.0736 22.8946 21.1739 21.8411 21.8294L15.4031 25.9264C15.0051 26.1839 14.5603 26.3712 14.0921 26.5116Z" fill="white"/>
</svg>
