<svg width="32" height="32" viewBox="0 0 32 32" fill="none" xmlns="http://www.w3.org/2000/svg">
<path d="M28 4H4V28H28V4Z" fill="#F3DF49"/>
<path d="M20.122 22.7501C20.6054 23.5394 21.2344 24.1196 22.3468 24.1196C23.2812 24.1196 23.8782 23.6526 23.8782 23.0072C23.8782 22.2339 23.2649 21.96 22.2363 21.5101L21.6725 21.2682C20.045 20.5749 18.9639 19.7063 18.9639 17.8701C18.9639 16.1787 20.2527 14.8911 22.2668 14.8911C23.7007 14.8911 24.7315 15.3901 25.4744 16.6968L23.7182 17.8244C23.3315 17.1311 22.9144 16.8579 22.2668 16.8579C21.6062 16.8579 21.1875 17.277 21.1875 17.8244C21.1875 18.501 21.6066 18.7749 22.5742 19.1939L23.138 19.4354C25.0542 20.2571 26.1361 21.0949 26.1361 22.9783C26.1361 25.0088 24.5411 26.1211 22.399 26.1211C20.3045 26.1211 18.9513 25.1231 18.2892 23.8149L20.122 22.7501ZM12.1551 22.9455C12.5094 23.5741 12.8317 24.1055 13.6066 24.1055C14.3475 24.1055 14.815 23.8156 14.815 22.6884V15.0198H17.0702V22.7189C17.0702 25.0541 15.7011 26.117 13.7026 26.117C11.8969 26.117 10.8511 25.1825 10.3193 24.057L12.1551 22.9455Z" fill="#2E2E2C"/>
</svg>
