<svg width="32" height="32" viewBox="0 0 32 32" fill="none" xmlns="http://www.w3.org/2000/svg">
<path fill-rule="evenodd" clip-rule="evenodd" d="M8 4C5.79086 4 4 5.79086 4 8V24C4 26.2091 5.79086 28 8 28H24C26.2091 28 28 26.2091 28 24V8C28 5.79086 26.2091 4 24 4H8ZM10 9.6C10 9.03995 10 8.75992 10.109 8.54601C10.2049 8.35785 10.3578 8.20487 10.546 8.10899C10.7599 8 11.0399 8 11.6 8H12.4C12.9601 8 13.2401 8 13.454 8.10899C13.6422 8.20487 13.7951 8.35785 13.891 8.54601C14 8.75992 14 9.03995 14 9.6V10.4C14 10.9601 14 11.2401 13.891 11.454C13.7951 11.6422 13.6422 11.7951 13.454 11.891C13.2401 12 12.9601 12 12.4 12H11.6C11.0399 12 10.7599 12 10.546 11.891C10.3578 11.7951 10.2049 11.6422 10.109 11.454C10 11.2401 10 10.9601 10 10.4V9.6ZM10 17.6C10 17.0399 10 16.7599 10.109 16.546C10.2049 16.3578 10.3578 16.2049 10.546 16.109C10.7599 16 11.0399 16 11.6 16H12.4C12.9601 16 13.2401 16 13.454 16.109C13.6422 16.2049 13.7951 16.3578 13.891 16.546C14 16.7599 14 17.0399 14 17.6V18.4C14 18.9601 14 19.2401 13.891 19.454C13.7951 19.6422 13.6422 19.7951 13.454 19.891C13.2401 20 12.9601 20 12.4 20H11.6C11.0399 20 10.7599 20 10.546 19.891C10.3578 19.7951 10.2049 19.6422 10.109 19.454C10 19.2401 10 18.9601 10 18.4V17.6ZM14.109 20.546C14 20.7599 14 21.0399 14 21.6V22.4C14 22.9601 14 23.2401 14.109 23.454C14.2049 23.6422 14.3578 23.7951 14.546 23.891C14.7599 24 15.0399 24 15.6 24H16.4C16.9601 24 17.2401 24 17.454 23.891C17.6422 23.7951 17.7951 23.6422 17.891 23.454C18 23.2401 18 22.9601 18 22.4V21.6C18 21.0399 18 20.7599 17.891 20.546C17.7951 20.3578 17.6422 20.2049 17.454 20.109C17.2401 20 16.9601 20 16.4 20H15.6C15.0399 20 14.7599 20 14.546 20.109C14.3578 20.2049 14.2049 20.3578 14.109 20.546ZM14 13.6C14 13.0399 14 12.7599 14.109 12.546C14.2049 12.3578 14.3578 12.2049 14.546 12.109C14.7599 12 15.0399 12 15.6 12H16.4C16.9601 12 17.2401 12 17.454 12.109C17.6422 12.2049 17.7951 12.3578 17.891 12.546C18 12.7599 18 13.0399 18 13.6V14.4C18 14.9601 18 15.2401 17.891 15.454C17.7951 15.6422 17.6422 15.7951 17.454 15.891C17.2401 16 16.9601 16 16.4 16H15.6C15.0399 16 14.7599 16 14.546 15.891C14.3578 15.7951 14.2049 15.6422 14.109 15.454C14 15.2401 14 14.9601 14 14.4V13.6Z" fill="#3EA17F"/>
</svg>
