<svg width="32" height="32" viewBox="0 0 32 32" fill="none" xmlns="http://www.w3.org/2000/svg">
<path fill-rule="evenodd" clip-rule="evenodd" d="M18.392 13.8747L18.3919 13.8747L18.3918 13.8748C18.0496 13.966 17.7025 14.0585 17.3007 14.1626L17.2766 14.1691C17.0802 14.222 17.0598 14.2275 16.8771 14.016C16.658 13.7667 16.4974 13.6054 16.1906 13.4588C15.2704 13.0043 14.3794 13.1363 13.5468 13.6788C12.5536 14.3238 12.0424 15.2768 12.057 16.4643C12.0716 17.6372 12.8749 18.6048 14.0289 18.7661C15.0221 18.8981 15.8547 18.5462 16.512 17.7985C16.6095 17.6789 16.6989 17.5512 16.7982 17.4095L16.7982 17.4095C16.8328 17.3601 16.8686 17.309 16.9063 17.256H14.0873C13.7805 17.256 13.7075 17.0654 13.8098 16.8162C13.9996 16.3617 14.3502 15.5993 14.5547 15.2182C14.5985 15.1302 14.7008 14.9836 14.9198 14.9836H19.6203C19.8314 14.3122 20.174 13.6779 20.6309 13.0776C21.6971 11.6702 22.9825 10.9371 24.7207 10.6292C26.2106 10.3653 27.6128 10.5119 28.8835 11.3769C30.0375 12.1686 30.7532 13.2389 30.9431 14.6463C31.1914 16.6256 30.6217 18.2383 29.2633 19.6164C28.2993 20.5987 27.1162 21.2145 25.7578 21.493C25.4986 21.5412 25.2395 21.564 24.9845 21.5865C24.8514 21.5982 24.7195 21.6099 24.5892 21.625C23.26 21.5956 22.0477 21.2145 21.0252 20.3348C20.3062 19.7109 19.8108 18.9441 19.5647 18.0515C19.3939 18.3977 19.1896 18.7293 18.9512 19.0447C17.8996 20.4375 16.5266 21.3025 14.7884 21.537C13.357 21.7276 12.0278 21.4491 10.8592 20.5694C9.77835 19.7484 9.16488 18.6635 9.00421 17.3147C8.81432 15.7166 9.28173 14.2799 10.2458 13.019C11.2828 11.6555 12.6558 10.7905 14.3356 10.4827C15.7086 10.2334 17.0232 10.3947 18.2063 11.201C18.9805 11.7142 19.5355 12.4179 19.9007 13.2682C19.9883 13.4002 19.9299 13.4735 19.7546 13.5175C19.2427 13.648 18.8211 13.7603 18.392 13.8747ZM3.26393 13.7813C3.20551 13.7813 3.1909 13.752 3.22011 13.708L3.52685 13.3121C3.55606 13.2681 3.62909 13.2388 3.68752 13.2388H8.90205C8.96047 13.2388 8.97508 13.2828 8.94587 13.3268L8.69756 13.708C8.66834 13.752 8.59531 13.7959 8.55149 13.7959L3.26393 13.7813ZM1.05843 15.1301C1 15.1301 0.985393 15.1008 1.01461 15.0568L1.32134 14.661C1.35056 14.617 1.42359 14.5877 1.48202 14.5877H8.14259C8.20101 14.5877 8.23023 14.6317 8.21562 14.6757L8.09877 15.0275C8.08416 15.0862 8.02573 15.1155 7.96731 15.1155L1.05843 15.1301ZM4.54946 16.391C4.52024 16.435 4.53485 16.4789 4.59328 16.4789L7.7775 16.4936C7.82132 16.4936 7.87974 16.4496 7.87974 16.391L7.90896 16.0391C7.90896 15.9805 7.87974 15.9365 7.82132 15.9365H4.90001C4.84159 15.9365 4.78316 15.9805 4.75395 16.0245L4.54946 16.391ZM28.0554 15.5451C28.0583 15.5944 28.0613 15.6463 28.0656 15.7019C27.9925 16.9628 27.3645 17.9011 26.2106 18.5022C25.4364 18.898 24.6331 18.942 23.8297 18.5901C22.778 18.121 22.223 16.9628 22.4859 15.8192C22.8072 14.4411 23.6836 13.5761 25.042 13.2682C26.4297 12.9457 27.7588 13.7667 28.0218 15.2181C28.0424 15.3219 28.0485 15.4257 28.0554 15.5451Z" fill="#00ACD7"/>
</svg>
