<svg width="32" height="32" viewBox="0 0 32 32" fill="none" xmlns="http://www.w3.org/2000/svg">
<path d="M26.2191 13.878C26.0909 12.5387 25.1363 11.6411 24.0392 11C23.0704 12.1541 22.5715 13.9777 23.4834 15.6589C22.8558 16.0119 22.1436 16.0461 21.9304 16.0579C19.9479 16.0579 9.00309 16.0579 4.97498 16.0579C4.56936 16.0579 4.21044 16.3242 4.12446 16.7206C3.20866 20.9428 4.68832 27 12.0711 27C19.9358 27 24.8371 21.7569 25.6919 17.0267C27.131 17.2262 29.0876 16.3119 29.5958 14.5191C28.5488 13.7761 27.7293 13.6643 26.2191 13.878Z" fill="#1A85F6"/>
<path fill-rule="evenodd" clip-rule="evenodd" d="M11 6.5C11 6.22386 11.2239 6 11.5 6H14.5C14.7761 6 15 6.22386 15 6.5V9.5C15 9.77614 14.7761 10 14.5 10H11.5C11.2239 10 11 9.77614 11 9.5V6.5ZM11 11.5C11 11.2239 11.2239 11 11.5 11H14.5C14.7761 11 15 11.2239 15 11.5V14.5C15 14.7761 14.7761 15 14.5 15H11.5C11.2239 15 11 14.7761 11 14.5V11.5ZM6.5 11C6.22386 11 6 11.2239 6 11.5V14.5C6 14.7761 6.22386 15 6.5 15H9.5C9.77614 15 10 14.7761 10 14.5V11.5C10 11.2239 9.77614 11 9.5 11H6.5ZM16 6.5C16 6.22386 16.2239 6 16.5 6H19.5C19.7761 6 20 6.22386 20 6.5V9.5C20 9.77614 19.7761 10 19.5 10H16.5C16.2239 10 16 9.77614 16 9.5V6.5ZM16.5 11C16.2239 11 16 11.2239 16 11.5V14.5C16 14.7761 16.2239 15 16.5 15H19.5C19.7761 15 20 14.7761 20 14.5V11.5C20 11.2239 19.7761 11 19.5 11H16.5Z" fill="#1A85F6"/>
</svg>
