<svg width="32" height="32" viewBox="0 0 32 32" fill="none" xmlns="http://www.w3.org/2000/svg">
<path fill-rule="evenodd" clip-rule="evenodd" d="M17.3258 3.44643C16.5936 2.7142 15.4064 2.7142 14.6742 3.44643L12.9625 5.1581L14.7512 6.94681C15.692 6.38996 16.925 6.51588 17.7337 7.32459C18.5424 8.13329 18.6683 9.36622 18.1114 10.307L21.6903 13.8859C22.6312 13.3287 23.8645 13.4545 24.6734 14.2634C25.6312 15.2212 25.6312 16.7742 24.6734 17.7321C23.7155 18.6899 22.1625 18.6899 21.2047 17.7321C20.3974 16.9247 20.2705 15.6946 20.8241 14.7544L17.2432 11.1736C17.044 11.2909 16.8318 11.3777 16.6133 11.434V20.5624C17.0238 20.6681 17.4122 20.8816 17.7336 21.203C18.6915 22.1609 18.6915 23.7139 17.7336 24.6717C16.7758 25.6296 15.2228 25.6296 14.2649 24.6717C13.3071 23.7139 13.3071 22.1609 14.2649 21.203C14.5867 20.8812 14.9757 20.6676 15.3867 20.562L15.3867 11.4343C14.9757 11.3287 14.5868 11.115 14.265 10.7933C13.4575 9.98579 13.3307 8.75536 13.8847 7.81509L12.0951 6.0255L3.4474 14.6732C2.71516 15.4054 2.71516 16.5926 3.4474 17.3249L14.6742 28.5516C15.4064 29.2839 16.5936 29.2839 17.3258 28.5516L28.5526 17.3249C29.2848 16.5926 29.2848 15.4054 28.5526 14.6732L17.3258 3.44643Z" fill="#F34E29"/>
</svg>
