<svg width="32" height="32" viewBox="0 0 32 32" fill="none" xmlns="http://www.w3.org/2000/svg">
<path d="M18.4839 26C11.2581 26 6 22.4516 6 17.5484C6 13.871 9.35484 11.0968 13.8387 11.0968C17.4839 11.0968 20 12.6129 20 14.4516C20 16.129 18.3548 16.7742 16.0323 16L16.5484 14.4516C12.9355 13.1935 10 14.6452 10 17.4839C10 20.6452 13.4516 22.7742 18.2581 22.7742C23.9032 22.7742 28 19.2903 28 14.4516C28 8.41935 21.9032 4 13.5161 4C10.7419 4 7.51613 4.70968 4.93548 6.12903L5.87097 7.80645C8.03226 6.58065 11 6 13.5161 6C20.7419 6 26 9.54839 26 14.4516C26 18.1935 22.4839 20.9032 18.1613 20.9032C14.5161 20.9032 12 19.3871 12 17.4839C12 15.9032 13.6452 15.2903 15.9677 16L15.4516 17.5161C19.0645 18.871 22 17.3548 22 14.4516C22 11.3548 18.5484 9.22581 13.7419 9.22581C8.09677 9.22581 4 12.7097 4 17.5484C4 23.5806 10.0968 28 18.4839 28C21.2903 28 24.4839 27.2903 27.129 25.871L26.1935 24.1613C24.0323 25.4194 21.0645 26 18.4839 26Z" fill="url(#paint0_linear_15672_1427204)"/>
<defs>
<linearGradient id="paint0_linear_15672_1427204" x1="6.37313" y1="8.31811" x2="39.3034" y2="33.874" gradientUnits="userSpaceOnUse">
<stop stop-color="#955AE0"/>
<stop offset="1" stop-color="#4D67F0"/>
</linearGradient>
</defs>
</svg>
