<svg width="32" height="32" viewBox="0 0 32 32" fill="none" xmlns="http://www.w3.org/2000/svg">
<g clip-path="url(#clip0_8164_125916)">
<path d="M16.1904 29.2506C19.2529 18.3012 19.164 18.2515 21.3774 10.4444L21.9094 10.7524C22.1992 10.9183 22.4358 10.7818 22.4358 10.4486V6.72456C23.0238 4.66796 23.483 3.07756 23.6188 2.60156H26.0163L30 6.29056L27.3834 8.55156L29.3623 10.6915L16.322 29.2506C16.259 29.3556 16.1701 29.3318 16.1904 29.2506ZM17.6149 5.64936C17.7339 5.64936 17.8291 5.71446 17.8291 5.79636V7.70386C17.8291 7.78366 17.7332 7.84876 17.6149 7.84876H14.3949C14.2759 7.84876 14.18 7.78366 14.18 7.70316V5.79496C14.18 5.71446 14.2759 5.64796 14.3942 5.64796H17.6142L17.6149 5.64936ZM21.5909 3.53676L18.0475 5.58216C18.0881 5.64516 18.1133 5.71726 18.1133 5.79566V7.70456C18.1133 7.80256 18.0741 7.89216 18.0111 7.96356L21.5902 10.03C21.8338 10.1714 22.034 10.0559 22.034 9.77446V3.79296C22.034 3.51086 21.8352 3.39606 21.5909 3.53676ZM13.8951 7.70456V5.79496C13.8951 5.71656 13.9203 5.64446 13.9609 5.58216L10.4175 3.53536C10.1739 3.39536 9.9737 3.51016 9.9737 3.79156V9.77306C9.9737 10.0545 10.1739 10.17 10.4182 10.0286L13.9966 7.96216C13.9336 7.89006 13.8958 7.80116 13.8958 7.70316L13.8951 7.70456ZM15.678 29.2506H15.8096C12.7478 18.3012 12.836 18.2515 10.6226 10.4444L10.0906 10.7524C9.8015 10.9183 9.5642 10.7818 9.5642 10.4486V6.72456C8.9762 4.66866 8.517 3.07756 8.3812 2.60156H5.9844L2 6.29056L4.6159 8.55156L2.637 10.6922L15.678 29.2506ZM15.9027 11.8339C16.437 11.8339 16.8701 11.4007 16.8701 10.8665C16.8701 10.3322 16.437 9.89906 15.9027 9.89906C15.3684 9.89906 14.9353 10.3322 14.9353 10.8665C14.9353 11.4007 15.3684 11.8339 15.9027 11.8339ZM15.9027 17.5844C16.437 17.5844 16.8701 17.1512 16.8701 16.617C16.8701 16.0827 16.437 15.6496 15.9027 15.6496C15.3684 15.6496 14.9353 16.0827 14.9353 16.617C14.9353 17.1512 15.3684 17.5844 15.9027 17.5844ZM15.9027 23.3363C16.437 23.3363 16.8701 22.9031 16.8701 22.3689C16.8701 21.8346 16.437 21.4015 15.9027 21.4015C15.3684 21.4015 14.9353 21.8346 14.9353 22.3689C14.9353 22.9031 15.3684 23.3363 15.9027 23.3363Z" fill="#E0E1E4"/>
</g>
<defs>
<clipPath id="clip0_8164_125916">
<rect width="28" height="28" fill="white" transform="translate(2 2)"/>
</clipPath>
</defs>
</svg>
