<svg width="32" height="32" viewBox="0 0 32 32" fill="none" xmlns="http://www.w3.org/2000/svg">
<mask id="mask0_14114_72093" style="mask-type:luminance" maskUnits="userSpaceOnUse" x="1" y="6" width="30" height="20">
<path d="M1 6.625H31V25.0341H1V6.625Z" fill="white"/>
</mask>
<g mask="url(#mask0_14114_72093)">
<path fill-rule="evenodd" clip-rule="evenodd" d="M16 6.625C12 6.625 9.5 8.67045 8.5 12.7614C10 10.7159 11.75 9.94886 13.75 10.4602C14.8911 10.7517 15.7067 11.5989 16.6094 12.5358C18.08 14.0625 19.7822 15.8295 23.5 15.8295C27.5 15.8295 30 13.7841 31 9.69318C29.5 11.7386 27.75 12.5057 25.75 11.9943C24.6089 11.7028 23.7933 10.8557 22.8906 9.91875C21.42 8.39205 19.7178 6.625 16 6.625ZM8.5 15.8295C4.5 15.8295 2 17.875 1 21.9659C2.5 19.9205 4.25 19.1534 6.25 19.6648C7.39111 19.9568 8.20667 20.8034 9.10944 21.7403C10.58 23.267 12.2822 25.0341 16 25.0341C20 25.0341 22.5 22.9886 23.5 18.8977C22 20.9432 20.25 21.7102 18.25 21.1989C17.1089 20.9074 16.2933 20.0602 15.3906 19.1233C13.92 17.5966 12.2178 15.8295 8.5 15.8295Z" fill="#38BDF8"/>
</g>
</svg>
