<svg width="32" height="32" viewBox="0 0 32 32" fill="none" xmlns="http://www.w3.org/2000/svg">
<path fill-rule="evenodd" clip-rule="evenodd" d="M20.0534 5.70873L19.7044 6.97397L14.532 25.724L14.1829 26.9892L11.6524 26.2911L12.0015 25.0259L17.1739 6.27591L17.5229 5.01067L20.0534 5.70873ZM12.0187 12.2768L10.9507 13.0396L5.88341 16.6591L10.9507 20.2786L12.0187 21.0415L10.4929 23.1775L9.42492 22.4146L2.86242 17.7271L1.36719 16.6591L2.86242 15.5911L9.42492 10.9036L10.4929 10.1407L12.0187 12.2768ZM21.0498 13.0396L19.9818 12.2768L21.5076 10.1407L22.5756 10.9036L29.1381 15.5911L30.6333 16.6591L29.1381 17.7271L22.5756 22.4146L21.5076 23.1775L19.9818 21.0415L21.0498 20.2786L26.1171 16.6591L21.0498 13.0396Z" fill="#F8AB17"/>
</svg>
