<svg width="32" height="32" viewBox="0 0 32 32" fill="none" xmlns="http://www.w3.org/2000/svg">
<path d="M10.151 12.4627L15.7725 9.21711C15.9132 9.13586 16.0866 9.13586 16.2273 9.21711L21.849 12.4627C21.9896 12.544 22.0764 12.694 22.0764 12.8565V19.3477C22.0764 19.5101 21.9896 19.6603 21.849 19.7417L16.2273 22.9872C16.0866 23.0685 15.9132 23.0685 15.7725 22.9872L10.151 19.7417C10.0103 19.6604 9.92358 19.5102 9.92358 19.3477V12.8565C9.9237 12.694 10.0104 12.544 10.151 12.4627Z" fill="#8080F2"/>
<path d="M30.6162 15.4193L23.8994 3.73415C23.6555 3.31165 23.2048 3 22.7169 3H9.28327C8.7953 3 8.34448 3.31165 8.1005 3.73415L1.38379 15.3935C1.13981 15.8161 1.13981 16.3495 1.38379 16.7721L8.1005 28.3615C8.34448 28.784 8.7953 29 9.28327 29H22.7168C23.2046 29 23.6555 28.7905 23.8993 28.3679L30.616 16.7596C30.8602 16.3372 30.8602 15.8418 30.6162 15.4193ZM25.0544 21.0383C25.0544 21.2101 24.9509 21.369 24.802 21.455L16.2464 26.3912C16.0976 26.4771 15.9112 26.4771 15.7624 26.3912L7.20013 21.455C7.05133 21.369 6.94721 21.2102 6.94721 21.0383V11.1659C6.94721 10.994 7.04982 10.8352 7.19874 10.7492L15.754 5.81299C15.9028 5.72698 16.089 5.72698 16.2378 5.81299L24.8006 10.7492C24.9495 10.8352 25.0544 10.994 25.0544 11.1659V21.0383Z" fill="#4B32C3"/>
</svg>
