<svg width="32" height="32" viewBox="0 0 32 32" fill="none" xmlns="http://www.w3.org/2000/svg">
<path fill-rule="evenodd" clip-rule="evenodd" d="M14.0134 9H16.1517L15.5474 11.9595H17.4687C18.5223 11.9802 19.3073 12.1971 19.8239 12.6102C20.3507 13.0233 20.5056 13.8086 20.2887 14.9654L19.2757 20H17.1065L18.073 15.1978C18.1762 14.6812 18.1452 14.3146 17.98 14.0977C17.8148 13.8808 17.4585 13.7723 16.9109 13.7723L15.191 13.7568L13.9454 20H11.8073L14.0134 9ZM4.21563 11.9594H8.36816C9.58696 11.9696 10.4701 12.321 11.0177 13.013C11.5653 13.705 11.746 14.6502 11.56 15.8485C11.4878 16.3961 11.3276 16.9331 11.0797 17.46C10.842 17.9868 10.5117 18.4618 10.088 18.8855C9.57147 19.4225 9.01893 19.7634 8.43014 19.9081C7.84134 20.0528 7.2318 20.125 6.60178 20.125H4.74244L4.16745 23H2.01367L4.21563 11.9594ZM20.3818 23H22.5356L23.1106 20.125H24.9699C25.6 20.125 26.2095 20.0528 26.7983 19.9081C27.3871 19.7634 27.9396 19.4225 28.4562 18.8855C28.8798 18.4618 29.2102 17.9868 29.4479 17.46C29.6958 16.9331 29.856 16.3961 29.9282 15.8485C30.1141 14.6502 29.9334 13.705 29.3859 13.013C28.8383 12.321 27.9551 11.9696 26.7363 11.9594H22.5838L20.3818 23ZM5.09882 18.3741L6.02539 13.7413H6.33838C6.4521 13.7413 6.5708 13.736 6.69475 13.7258C7.52122 13.7156 8.20795 13.793 8.75552 13.9582C9.31332 14.1234 9.49926 14.7484 9.31332 15.833C9.08617 17.1243 8.6418 17.8783 7.98079 18.0952C7.31979 18.3019 6.49332 18.3999 5.50167 18.3896H5.28475C5.22277 18.3896 5.1608 18.3844 5.09882 18.3741ZM24.3936 13.7413L23.467 18.3741C23.529 18.3844 23.5909 18.3896 23.6529 18.3896H23.8698C24.8615 18.3999 25.688 18.3019 26.349 18.0952C27.01 17.8783 27.4543 17.1243 27.6815 15.833C27.8674 14.7484 27.6815 14.1234 27.1237 13.9582C26.5761 13.793 25.8894 13.7156 25.0629 13.7258C24.939 13.736 24.8203 13.7413 24.7065 13.7413H24.3936Z" fill="#3691F9"/>
</svg>
