<svg width="32" height="32" viewBox="0 0 32 32" fill="none" xmlns="http://www.w3.org/2000/svg">
<path d="M14.9698 4L10.2878 11.0205V15.471H7.41805V11.0205L2.9458 4H6.17115L9.01497 8.52038L11.8821 4H14.9698Z" fill="black"/>
<path d="M19.7886 12.9469H14.5944L13.5379 15.4979H11.2378L16.1016 4.02689H18.4543L23.1207 15.4979H20.6628L19.7886 12.9469H19.7886ZM18.9258 10.6568L17.3335 6.44725L15.557 10.6568H18.9258Z" fill="#CB171E"/>
<path d="M7.41797 16.7574V28H9.83012V20.245L12.3546 25.4575H14.2533L16.8639 20.0618V27.9977H19.178V16.7574H16.0184L13.2149 21.8418L10.5449 16.7574H7.41797Z" fill="black"/>
<path d="M29.0545 25.5568H23.1208V16.7548H20.6631V27.949H29.0545V25.5569V25.5568Z" fill="black"/>
</svg>
