<svg width="32" height="32" viewBox="0 0 32 32" fill="none" xmlns="http://www.w3.org/2000/svg">
<path d="M28.0877 7.29414C27.2989 6.50527 26.2345 6.05363 25.1191 6.03451C24.0037 6.01538 22.9245 6.43027 22.1091 7.19163C22.0683 7.2305 22.0357 7.27726 22.0135 7.32909C21.9912 7.38092 21.9798 7.43673 21.9798 7.49312C21.9798 7.54952 21.9912 7.60533 22.0135 7.65716C22.0357 7.70898 22.0683 7.75575 22.1091 7.79462L22.6277 8.32524C22.6978 8.39494 22.7906 8.43698 22.8893 8.44362C22.9879 8.45027 23.0856 8.42108 23.1643 8.36142C23.6616 7.9642 24.2932 7.77461 24.9271 7.8323C25.5609 7.89 26.1479 8.1905 26.5653 8.67098C26.9827 9.15146 27.1982 9.77471 27.1667 10.4104C27.1352 11.0461 26.8592 11.645 26.3963 12.0818C22.9804 15.4947 18.4219 5.92536 8.07466 10.8578C7.90003 10.9417 7.74467 11.0608 7.6184 11.2078C7.49213 11.3547 7.39769 11.5262 7.34103 11.7115C7.28437 11.8968 7.26673 12.0918 7.28922 12.2842C7.3117 12.4766 7.37383 12.6623 7.47168 12.8295L9.24747 15.8957C9.43133 16.2155 9.73408 16.4498 10.0898 16.5475C10.4455 16.6451 10.8255 16.5984 11.1469 16.4173L11.1891 16.3932L11.1559 16.4173L11.9338 15.9831C12.8108 15.4386 13.6399 14.8203 14.412 14.135C14.4885 14.0653 14.5872 14.0252 14.6906 14.0219C14.7939 14.0186 14.8951 14.0523 14.9758 14.1169C15.0195 14.1535 15.0549 14.1989 15.0797 14.2502C15.1046 14.3015 15.1183 14.3574 15.12 14.4143C15.1217 14.4713 15.1114 14.5279 15.0897 14.5806C15.0679 14.6333 15.0353 14.6807 14.9939 14.7199C14.1813 15.4519 13.3055 16.1107 12.377 16.6886H12.3498L11.5629 17.1288C11.2306 17.3154 10.8557 17.4131 10.4745 17.4122C10.0798 17.4136 9.69162 17.311 9.34917 17.1146C9.00671 16.9183 8.72206 16.6351 8.52389 16.2937L6.84458 13.3963C3.63369 15.6817 1.66193 20.0714 2.72921 25.6309C2.74673 25.7246 2.79635 25.8093 2.86953 25.8703C2.94271 25.9314 3.03488 25.9651 3.13019 25.9656H5.02356C5.12787 25.9683 5.22929 25.9311 5.30715 25.8616C5.38501 25.7922 5.43347 25.6956 5.44264 25.5917C5.5316 24.9182 5.86227 24.3001 6.3731 23.8523C6.88392 23.4045 7.54008 23.1576 8.21938 23.1576C8.89869 23.1576 9.55484 23.4045 10.0657 23.8523C10.5765 24.3001 10.9072 24.9182 10.9961 25.5917C11.0079 25.6906 11.0556 25.7817 11.13 25.8478C11.2045 25.9139 11.3006 25.9504 11.4001 25.9505H13.2513C13.3507 25.9498 13.4464 25.913 13.5207 25.847C13.595 25.781 13.6429 25.6903 13.6553 25.5917C13.7442 24.9182 14.0749 24.3001 14.5857 23.8523C15.0966 23.4045 15.7527 23.1576 16.432 23.1576C17.1113 23.1576 17.7675 23.4045 18.2783 23.8523C18.7891 24.3001 19.1198 24.9182 19.2088 25.5917C19.2212 25.6903 19.269 25.781 19.3433 25.847C19.4176 25.913 19.5134 25.9498 19.6128 25.9505H21.4519C21.5596 25.9505 21.663 25.9081 21.7397 25.8325C21.8164 25.7569 21.8603 25.6542 21.8619 25.5465C21.9041 22.9536 22.6036 19.9749 24.5964 18.4825C31.5006 13.318 29.6856 8.89205 28.0877 7.29414ZM21.0479 15.0937L19.7303 14.4335C19.7302 14.2924 19.7662 14.1537 19.8349 14.0305C19.9036 13.9072 20.0027 13.8037 20.1228 13.7296C20.2429 13.6556 20.3799 13.6135 20.5208 13.6074C20.6618 13.6013 20.8019 13.6314 20.9279 13.6949C21.0539 13.7583 21.1616 13.853 21.2406 13.9698C21.3197 14.0866 21.3675 14.2218 21.3795 14.3623C21.3915 14.5029 21.3674 14.6441 21.3093 14.7727C21.2513 14.9013 21.1613 15.0128 21.0479 15.0968V15.0937Z" fill="#13A4CD"/>
</svg>
