<svg width="32" height="32" viewBox="0 0 32 32" fill="none" xmlns="http://www.w3.org/2000/svg">
<path d="M28 4H4V28H28V4Z" fill="#512BD4"/>
<path d="M8.49616 19.1146C8.32647 19.1146 8.18223 19.058 8.06344 18.9449C7.94465 18.8289 7.88525 18.6912 7.88525 18.5317C7.88525 18.3693 7.94465 18.2302 8.06344 18.1142C8.18223 17.9982 8.32647 17.9402 8.49616 17.9402C8.66869 17.9402 8.81435 17.9982 8.93314 18.1142C9.05475 18.2302 9.11556 18.3693 9.11556 18.5317C9.11556 18.6912 9.05475 18.8289 8.93314 18.9449C8.81435 19.058 8.66869 19.1146 8.49616 19.1146Z" fill="white"/>
<path d="M14.9623 19H13.9013L11.1059 14.59C11.0352 14.4784 10.9767 14.3626 10.9305 14.2427H10.906C10.9277 14.371 10.9386 14.6458 10.9386 15.0669V19H10V13H11.1304L13.8319 17.3054C13.9462 17.484 14.0196 17.6067 14.0523 17.6736H14.0686C14.0414 17.5147 14.0278 17.2455 14.0278 16.8661V13H14.9623V19Z" fill="white"/>
<path d="M19.2851 19H16V13H19.1545V13.8452H16.9713V15.5439H18.9831V16.3849H16.9713V18.159H19.2851V19Z" fill="white"/>
<path d="M23.9538 13.8452H22.2725V19H21.3012V13.8452H19.624V13H23.9538V13.8452Z" fill="white"/>
</svg>
