<svg width="32" height="32" viewBox="0 0 32 32" fill="none" xmlns="http://www.w3.org/2000/svg">
<path d="M16.1146 3.84325L3.93066 16.028L16.0638 28.1619L28.2477 15.9772L16.1146 3.84325Z" fill="#019833" stroke="black" stroke-width="0.0711205"/>
<path d="M16.064 3.89426V2.82809L2.81396 16.079H3.93082L16.064 3.89426Z" fill="#66FE98" stroke="black" stroke-width="0.0711205"/>
<path d="M16.0332 3.89409V2.82793L29.2832 16.0788H28.1663L16.0332 3.89409Z" fill="#45FE02" stroke="black" stroke-width="0.0711205"/>
<path d="M16.0635 28.233V29.2992L2.81348 16.0483H3.93033L16.0635 28.233Z" fill="#017D17" stroke="black" stroke-width="0.0711205"/>
<path d="M5.27158 4.17352H13.8151L14.3356 4.69406V6.29159L13.9228 6.79418H12.9895V14.728L21.0304 6.79418H19.7022L19.2356 6.29159V4.60431L19.6663 4.20941H28.3176L28.7483 4.64021V6.21979L9.18438 26.2877H6.95875L6.31454 25.9157V6.72239H5.23569L4.84082 6.32749V4.64021L5.27158 4.17352Z" stroke="black" stroke-width="1.42241"/>
<path d="M16.0332 28.233V29.2992L29.2832 16.0483H28.1663L16.0332 28.233Z" fill="#005D04" stroke="black" stroke-width="0.0711205"/>
<path d="M16.0279 2.72968L2.72803 16.0304L15.9724 29.2757L29.2723 15.975L16.0279 2.72968Z" stroke="black" stroke-width="0.426723"/>
<path d="M13.906 4.98552L14.3883 4.73167L13.8933 4.23667H5.27575L4.83789 4.67456V6.33092L5.32334 6.8164L5.55496 6.33092L5.25037 6.0263V4.8586L5.47881 4.65552H13.7029L13.906 4.98552Z" fill="#FEFEFE" stroke="black" stroke-width="0.0711205"/>
<path d="M19.9987 4.60438L19.6944 4.90868V6.02593L19.961 6.29247H21.3691V7.37196L12.0541 16.8142V6.3058H13.6022L13.9198 5.98817V4.85759L13.6266 4.63103H5.4799L5.21338 4.89757V6.05258L5.48434 6.32357H6.90136V25.6744L7.16788 25.941H8.77812L28.2987 5.79715V4.90868L27.9944 4.60438H19.9987Z" stroke="black" stroke-width="0.0711205"/>
<path d="M6.88733 6.29166V25.6774L7.13861 25.9646L6.94155 26.3402L6.38477 25.7851V6.79426L6.88733 6.29166Z" fill="#FEFEFE" stroke="black" stroke-width="0.0711205"/>
<path d="M5.49518 6.29166L5.35156 6.75904H6.39277L6.96723 6.29166H5.49518Z" fill="#808080" stroke="black" stroke-width="0.0711205"/>
<path d="M19.7951 6.8158L20.0235 6.34618L19.6935 6.04156V5.00078L20.0743 4.62001H28.0192L28.3238 5.02617L28.7553 4.72155L28.3111 4.27731H19.7697L19.3445 4.70251V6.37156L19.7856 6.78724M12.8829 14.8016L12.0532 16.8149L21.4196 7.4225V6.30556L12.8829 14.8016Z" fill="#FEFEFE"/>
<path d="M19.7951 6.8158L20.0235 6.34618L19.6935 6.04156V5.00078L20.0743 4.62001H28.0192L28.3238 5.02616L28.7553 4.72155L28.3111 4.27731H19.7697L19.3445 4.70251V6.37156L19.7856 6.78724M12.8829 14.8016L12.0532 16.8149L21.4196 7.4225V6.30556L12.8829 14.8016Z" stroke="black" stroke-width="0.0711205"/>
<path d="M13.8869 4.9275L14.2997 4.65825V6.29168L13.8241 6.76735H12.8997V14.8178L12.0562 16.8103V6.29168H13.5997L13.8869 6.05833V4.9275Z" fill="#808080" stroke="black" stroke-width="0.0711205"/>
<path d="M19.9987 4.60438L19.6944 4.90868V6.02593L19.961 6.29247H21.3691V7.37196L12.0541 16.8142V6.3058H13.6022L13.9198 5.98817V4.85759L13.6266 4.63103H5.4799L5.21338 4.89757V6.05258L5.48434 6.32357H6.90136V25.6744L7.16788 25.941H8.77812L28.2987 5.79715V4.90868L27.9944 4.60438H19.9987Z" fill="#CCCCCC" stroke="black" stroke-width="0.0711205"/>
<path d="M28.3236 4.93482L28.7571 4.68449V6.25483L9.09307 26.3498H7.00537L7.20483 25.9535H8.80397L28.2982 5.82329L28.3236 4.93482Z" fill="#808080" stroke="black" stroke-width="0.0711205"/>
<path d="M21.3807 6.31854L20.9409 6.77693H19.792L20.0613 6.31854C20.0702 6.31854 21.3807 6.31854 21.3807 6.31854Z" fill="#808080" stroke="black" stroke-width="0.0711205"/>
<path d="M16.6915 17.6481C16.6766 17.6512 16.6629 17.6581 16.6515 17.6681L16.2739 17.9924C16.2626 18.0027 16.2542 18.0157 16.2495 18.0302L15.8719 19.0875C15.8663 19.103 15.8653 19.1198 15.8688 19.1359C15.8723 19.152 15.8803 19.1668 15.8919 19.1785L16.1806 19.4673C16.1973 19.4833 16.2197 19.4921 16.2428 19.4917H17.4089C17.432 19.4921 17.4544 19.4833 17.471 19.4673L17.7753 19.1608C17.7858 19.1503 17.7935 19.1373 17.7975 19.123L18.1218 18.0102C18.1262 17.9951 18.1265 17.9791 18.1226 17.9638C18.1187 17.9486 18.1107 17.9347 18.0996 17.9236L17.8486 17.6726C17.8319 17.6565 17.8096 17.6478 17.7864 17.6481H16.7092C16.7033 17.6475 16.6974 17.6475 16.6915 17.6481ZM14.5548 20.629C14.5388 20.6324 14.5241 20.6403 14.5123 20.6516C14.5005 20.663 14.4922 20.6775 14.4882 20.6934L14.3438 21.2664C14.3406 21.2793 14.3404 21.2927 14.3431 21.3057C14.3459 21.3187 14.3515 21.3309 14.3596 21.3413C14.3678 21.3518 14.3782 21.3603 14.39 21.3662C14.4019 21.3721 14.415 21.3752 14.4282 21.3753H15.1145L13.4132 26.233C13.4088 26.2461 13.4076 26.26 13.4096 26.2737C13.4117 26.2874 13.4169 26.3004 13.4249 26.3117C13.4329 26.3229 13.4435 26.3321 13.4558 26.3385C13.468 26.3449 13.4816 26.3483 13.4954 26.3485H15.9719C15.9905 26.3487 16.0087 26.3431 16.0239 26.3323C16.039 26.3215 16.0504 26.3062 16.0563 26.2885L16.2184 25.7665C16.2224 25.7534 16.2233 25.7395 16.2209 25.7259C16.2186 25.7124 16.2131 25.6996 16.2049 25.6885C16.1966 25.6775 16.186 25.6686 16.1736 25.6624C16.1613 25.6563 16.1477 25.6532 16.134 25.6533H15.5743L17.2578 20.7445C17.2622 20.7314 17.2635 20.7174 17.2614 20.7037C17.2594 20.69 17.2542 20.677 17.2461 20.6658C17.2381 20.6545 17.2276 20.6453 17.2153 20.6389C17.2031 20.6325 17.1895 20.6291 17.1757 20.629H14.5726C14.5667 20.6284 14.5608 20.6284 14.5548 20.629ZM22.435 20.6467C22.416 20.6507 22.3988 20.6608 22.3862 20.6756L21.8709 21.2575H21.0513L20.505 20.6911C20.4969 20.6828 20.4872 20.6762 20.4765 20.6716C20.4659 20.667 20.4544 20.6646 20.4428 20.6645H18.4861C18.4681 20.6645 18.4506 20.6701 18.4359 20.6804C18.4212 20.6908 18.41 20.7054 18.4039 20.7222L18.224 21.2598C18.2196 21.2729 18.2183 21.2868 18.2204 21.3005C18.2224 21.3142 18.2276 21.3272 18.2357 21.3384C18.2437 21.3497 18.2542 21.3589 18.2665 21.3653C18.2787 21.3717 18.2923 21.3751 18.3062 21.3753H18.8303L17.2001 26.1797C17.1957 26.1928 17.1945 26.2067 17.1965 26.2204C17.1985 26.2341 17.2038 26.2471 17.2118 26.2583C17.2198 26.2696 17.2303 26.2788 17.2426 26.2852C17.2548 26.2916 17.2684 26.295 17.2823 26.2952H19.3656C19.3835 26.2951 19.4011 26.2896 19.4158 26.2792C19.4305 26.2689 19.4416 26.2543 19.4478 26.2374L19.6077 25.7688C19.6121 25.7556 19.6133 25.7417 19.6113 25.728C19.6092 25.7143 19.604 25.7013 19.596 25.6901C19.588 25.6788 19.5774 25.6696 19.5652 25.6632C19.5529 25.6568 19.5393 25.6534 19.5255 25.6533H19.1612L20.2007 22.3815H22.0819L20.8959 26.1819C20.8918 26.195 20.891 26.209 20.8933 26.2225C20.8957 26.2361 20.9012 26.2489 20.9094 26.2599C20.9176 26.2709 20.9283 26.2799 20.9406 26.286C20.9529 26.2921 20.9665 26.2953 20.9803 26.2952H22.9903C23.0074 26.295 23.024 26.2899 23.0382 26.2805C23.0524 26.271 23.0636 26.2576 23.0702 26.2419L23.2502 25.811C23.2554 25.7978 23.2573 25.7835 23.2558 25.7694C23.2544 25.7553 23.2495 25.7418 23.2416 25.73C23.2337 25.7182 23.2231 25.7085 23.2107 25.7017C23.1983 25.6949 23.1844 25.6913 23.1702 25.691H22.8059L23.8632 22.3637H25.6533L24.4495 26.1819C24.4455 26.195 24.4446 26.209 24.447 26.2225C24.4493 26.2361 24.4548 26.2489 24.463 26.2599C24.4712 26.2709 24.4819 26.2799 24.4943 26.286C24.5066 26.2921 24.5202 26.2953 24.5339 26.2952H26.7416C26.7593 26.2953 26.7766 26.2901 26.7913 26.2802C26.806 26.2702 26.8173 26.2561 26.8238 26.2396L27.0037 25.771C27.0085 25.7577 27.0101 25.7435 27.0083 25.7296C27.0065 25.7156 27.0013 25.7023 26.9932 25.6907C26.9852 25.6792 26.9744 25.6697 26.9619 25.6632C26.9495 25.6567 26.9356 25.6533 26.9215 25.6533H26.484L27.8144 21.3331C27.8187 21.3197 27.8198 21.3054 27.8175 21.2915C27.8152 21.2775 27.8095 21.2644 27.801 21.2531L27.3879 20.6978C27.3795 20.6871 27.3687 20.6785 27.3563 20.6727C27.344 20.667 27.3305 20.6641 27.3168 20.6645H25.7377C25.7257 20.6643 25.7138 20.6666 25.7027 20.6711C25.6917 20.6757 25.6816 20.6825 25.6733 20.6911L25.1758 21.2376H24.3051L23.7899 20.6734C23.7815 20.6648 23.7715 20.658 23.7604 20.6534C23.7493 20.6488 23.7374 20.6465 23.7255 20.6467H22.4528C22.4469 20.6461 22.4409 20.6461 22.435 20.6467Z" fill="#CCCCCC" stroke="black" stroke-width="0.568964" stroke-miterlimit="10"/>
<path d="M16.7094 17.7348L16.3319 18.0591L15.9543 19.1164L16.243 19.4052H17.409L17.7133 19.0986L18.0376 17.9858L17.7866 17.7348H16.7094ZM14.5728 20.7156L14.4284 21.2887H15.2369L13.4956 26.2619H15.972L16.1342 25.7399H15.4523L17.1758 20.7156H14.5728ZM22.453 20.7334L21.9133 21.3442H21.016L20.443 20.7512H18.4862L18.3063 21.2887H18.9527L17.2824 26.2086H19.3658L19.5257 25.7399H19.0415L20.1365 22.2949H22.202L20.9805 26.2086H22.9905L23.1704 25.7777H22.6862L23.7989 22.2771H25.7734L24.5341 26.2086H26.7418L26.9217 25.7399H26.3642L27.7301 21.3065L27.317 20.7512H25.7379L25.2159 21.3242H24.2653L23.7256 20.7334H22.453Z" fill="#CCCCCC" stroke="black" stroke-width="0.0711205" stroke-miterlimit="10"/>
</svg>
